SplineFontDB: 3.2
FontName: CraftyPE
FullName: Crafty PE
FamilyName: CraftyPE
Weight: Regular
Copyright: Copyright (c) \nDesigned by Erek Butcher (ParanormalChicken) in 2022 - 2024.\nLicensed under the SIL Open Font License (scripts.sil.org/OFL)\nOriginal Mojangles font made by Mojang Studios. (minecraft.net)\nSpecial thanks to the toki pona community (tokipona.org)\nCreated with FontForge (fontforge.org)\nInspiration from\nOmni Jacala (ArtsyOmni) of Curiomatic & Curioglyphic (curiomatic.com/fonts),\nRebecca Bettencourt of KreativeKorp (kreativekorp.com)\n\nThis font is currently in beta. Features may change before final release.\n\nI am not affiliated with Mojang Studios, Curiomatic, Curioglyphic, KreativeKorp, or FontForge. 
Version: Beta 17
ItalicAngle: 0
UnderlinePosition: -32
UnderlineWidth: 16
Ascent: 160
Descent: 32
InvalidEm: 0
LayerCount: 2
Layer: 0 0 "Back" 1
Layer: 1 0 "Fore" 0
XUID: [1021 164 -1670062982 29783]
StyleMap: 0x0000
FSType: 0
OS2Version: 4
OS2_WeightWidthSlopeOnly: 0
OS2_UseTypoMetrics: 1
CreationTime: 1650157296
ModificationTime: 1708390306
PfmFamily: 17
TTFWeight: 400
TTFWidth: 5
LineGap: 12
VLineGap: 0
Panose: 2 0 5 3 0 0 0 0 0 0
OS2TypoAscent: 160
OS2TypoAOffset: 0
OS2TypoDescent: -32
OS2TypoDOffset: 0
OS2TypoLinegap: 12
OS2WinAscent: 220
OS2WinAOffset: 0
OS2WinDescent: 64
OS2WinDOffset: 0
HheadAscent: 220
HheadAOffset: 0
HheadDescent: -64
HheadDOffset: 0
OS2SubXSize: 124
OS2SubYSize: 134
OS2SubXOff: 0
OS2SubYOff: 26
OS2SupXSize: 124
OS2SupYSize: 134
OS2SupXOff: 0
OS2SupYOff: 92
OS2StrikeYSize: 8
OS2StrikeYPos: 48
OS2CapHeight: 112
OS2XHeight: 80
OS2Vendor: 'PfEd'
OS2CodePages: 600001bf.dff70000
OS2UnicodeRanges: e4000eff.5a00fcfb.04408020.00000000
Lookup: 1 0 0 "Single Substitution lookup 0" { "Single Substitution lookup 0 subtable"  } []

StartChar: .notdef
Encoding: 1114112 -1 0
Width: 96
GlyphClass: 1
Flags: W
HStem: 0 16<32 64> 90 16<32 64>
VStem: 16 16<16 90> 64 16<16 90>
LayerCount: 2
Fore
SplineSet
16 0 m 1
 16 106 l 1
 80 106 l 1
 80 0 l 1
 16 0 l 1
32 16 m 1
 64 16 l 1
 64 90 l 1
 32 90 l 1
 32 16 l 1
EndSplineSet
Validated: 1
EndChar

StartChar: exclam
Encoding: 33 33 2
Width: 32
GlyphClass: 2
Flags: W
HStem: 0 16<0 16> 92 20G<0 16>
VStem: 0 16<0 16 32 112>
LayerCount: 2
Fore
SplineSet
0 16 m 1
 16 16 l 1
 16 0 l 1
 0 0 l 1
 0 16 l 1
0 112 m 1
 16 112 l 1
 16 32 l 1
 0 32 l 1
 0 112 l 1
EndSplineSet
Validated: 1
EndChar

StartChar: quotedbl
Encoding: 34 34 3
Width: 64
GlyphClass: 2
Flags: W
HStem: 80 32<0 16 32 48>
VStem: 0 16<80 112> 32 16<80 112>
LayerCount: 2
Fore
SplineSet
16 112 m 1
 16 80 l 1
 0 80 l 1
 0 112 l 1
 16 112 l 1
48 112 m 1
 48 80 l 1
 32 80 l 1
 32 112 l 1
 48 112 l 1
EndSplineSet
Validated: 1
EndChar

StartChar: numbersign
Encoding: 35 35 4
Width: 96
GlyphClass: 2
Flags: W
HStem: 0 21G<16 32 48 64> 32 16<0 16 32 48 64 80> 64 16<0 16 32 48 64 80> 92 20G<16 32 48 64>
VStem: 16 16<0 32 48 64 80 112> 48 16<0 32 48 64 80 112>
LayerCount: 2
Fore
SplineSet
16 112 m 1
 32 112 l 1
 32 80 l 1
 48 80 l 1
 48 112 l 1
 64 112 l 1
 64 80 l 1
 80 80 l 1
 80 64 l 1
 64 64 l 1
 64 48 l 1
 80 48 l 1
 80 32 l 1
 64 32 l 1
 64 0 l 1
 48 0 l 1
 48 32 l 1
 32 32 l 1
 32 0 l 1
 16 0 l 1
 16 32 l 1
 0 32 l 1
 0 48 l 1
 16 48 l 1
 16 64 l 1
 0 64 l 1
 0 80 l 1
 16 80 l 1
 16 112 l 1
48 48 m 1
 48 64 l 1
 32 64 l 1
 32 48 l 1
 48 48 l 1
EndSplineSet
Validated: 1
EndChar

StartChar: dollar
Encoding: 36 36 5
Width: 96
GlyphClass: 2
Flags: W
HStem: 0 32<32 48> 16 16<0 32 48 63.125> 48 16<16.543 63.457> 80 32<32 48> 80 16<16.875 32 48 80>
VStem: 0 16<64.9151 79.5849> 32 16<0 16 96 112> 64 16<32.4151 47.0849>
CounterMasks: 1 07
LayerCount: 2
Fore
SplineSet
48 96 m 1x2f
 80 96 l 1
 80 80 l 1x2f
 32 80 l 2
 16 80 16 80 16 72 c 0
 16 64 16 64 40 64 c 0
 72 64 80 56 80 40 c 0
 80 24 72 16 48 16 c 1x77
 48 0 l 1
 32 0 l 1xa7
 32 16 l 1
 0 16 l 1
 0 32 l 1x67
 48 32 l 2
 64 32 64 32 64 40 c 0
 64 48 64 48 40 48 c 0
 8 48 0 56 0 72 c 0
 0 88 8 96 32 96 c 1xaf
 32 112 l 1
 48 112 l 1x37
 48 96 l 1x2f
EndSplineSet
Validated: 1
EndChar

StartChar: percent
Encoding: 37 37 6
Width: 96
GlyphClass: 2
Flags: W
HStem: 0 21G<0 29.0714> 8 16<64 80> 88 16<0 16> 92 20G<50.9286 80>
VStem: 0 16<88 104> 64 16<8 24>
LayerCount: 2
Fore
SplineSet
80 8 m 1x4c
 64 8 l 1
 64 24 l 1
 80 24 l 1
 80 8 l 1x4c
0 104 m 1x2c
 16 104 l 1
 16 88 l 1
 0 88 l 1
 0 104 l 1x2c
0 0 m 1x9c
 62 112 l 1
 80 112 l 1
 18 0 l 1
 0 0 l 1x9c
EndSplineSet
Validated: 1
EndChar

StartChar: ampersand
Encoding: 38 38 7
Width: 96
GlyphClass: 2
Flags: W
HStem: 0 16<16.8088 41.2435> 96 16<32.263 47.737>
VStem: 0 16<16.8088 43.5706> 16 16<76.115 95.737> 48 16<81.7422 95.737> 64 16<43.5 64>
LayerCount: 2
Fore
SplineSet
40 112 m 0xd0
 56 112 64 104 64 88 c 0xd8
 64 80 54 71 44 64 c 1
 58 40 l 1
 62 46 64 52 64 64 c 1
 80 64 l 1
 80 48 74 38 66 26 c 1
 80 0 l 1
 64 0 l 1
 56 14 l 1
 48 2 42 0 32 0 c 0xd4
 8 0 0 8 0 32 c 0xe0
 0 48 12 58 24 68 c 1
 20 74 16 80 16 88 c 0
 16 104 24 112 40 112 c 0xd0
32 56 m 1
 24 50 16 40 16 32 c 0xe0
 16 16 16 16 32 16 c 0
 38.2462112512 16 44 22 48 28 c 1
 32 56 l 1
36 76 m 1
 42 80 48 84 48 88 c 0
 48 96 48 96 40 96 c 0
 32 96 32 96 32 88 c 0xd8
 32 84 34 80 36 76 c 1
EndSplineSet
Validated: 1
EndChar

StartChar: quotesingle
Encoding: 39 39 8
Width: 48
GlyphClass: 2
Flags: W
HStem: 80 32<0 16>
VStem: 0 16<80 112>
LayerCount: 2
Fore
SplineSet
0 112 m 1
 16 112 l 1
 16 80 l 1
 0 80 l 1
 0 112 l 1
EndSplineSet
Validated: 1
EndChar

StartChar: parenleft
Encoding: 40 40 9
Width: 64
GlyphClass: 2
Flags: W
HStem: 0 16<34.6582 48> 96 16<34.6582 48>
VStem: 0 16<36.2019 75.7981>
LayerCount: 2
Fore
SplineSet
48 0 m 5
 24 0 0 24 0 56 c 0
 0 88 24 112 48 112 c 5
 48 96 l 1
 32 96 16 80 16 56 c 0
 16 32 32 16 48 16 c 1
 48 0 l 5
EndSplineSet
EndChar

StartChar: parenright
Encoding: 41 41 10
Width: 64
GlyphClass: 2
Flags: W
HStem: 0 16<0 13.3418> 96 16<0 13.3418>
VStem: 32 16<36.2019 75.7981>
LayerCount: 2
Fore
SplineSet
0 112 m 5
 24 112 48 88 48 56 c 0
 48 24 24 0 0 0 c 5
 0 16 l 1
 16 16 32 32 32 56 c 0
 32 80 16 96 0 96 c 1
 0 112 l 5
EndSplineSet
EndChar

StartChar: asterisk
Encoding: 42 42 11
Width: 64
GlyphClass: 2
Flags: W
HStem: 64 48
VStem: 0 48
LayerCount: 2
Fore
SplineSet
0 100 m 1
 12 112 l 1
 24 100 l 1
 36 112 l 1
 48 100 l 1
 36 88 l 1
 48 76 l 1
 36 64 l 1
 24 76 l 1
 12 64 l 1
 0 76 l 1
 12 88 l 1
 0 100 l 1
EndSplineSet
Validated: 1
EndChar

StartChar: plus
Encoding: 43 43 12
Width: 96
GlyphClass: 2
Flags: W
HStem: 48 16<0 32 48 80>
VStem: 32 16<16 48 64 96>
LayerCount: 2
Fore
SplineSet
32 96 m 1
 48 96 l 1
 48 64 l 1
 80 64 l 1
 80 48 l 1
 48 48 l 1
 48 16 l 1
 32 16 l 1
 32 48 l 1
 0 48 l 1
 0 64 l 1
 32 64 l 1
 32 96 l 1
EndSplineSet
Validated: 1
EndChar

StartChar: comma
Encoding: 44 44 13
Width: 32
GlyphClass: 2
Flags: W
HStem: -16 32<0 16>
VStem: 0 16<-16 16>
LayerCount: 2
Fore
SplineSet
16 16 m 1
 16 -16 l 1
 0 -16 l 1
 0 16 l 1
 16 16 l 1
EndSplineSet
Validated: 1
EndChar

StartChar: hyphen
Encoding: 45 45 14
Width: 96
GlyphClass: 2
Flags: W
HStem: 48 16<0 80>
LayerCount: 2
Fore
SplineSet
0 64 m 1
 80 64 l 1
 80 48 l 1
 0 48 l 1
 0 64 l 1
EndSplineSet
Validated: 1
EndChar

StartChar: period
Encoding: 46 46 15
Width: 32
GlyphClass: 2
Flags: W
HStem: 0 16<0 16>
VStem: 0 16<0 16>
LayerCount: 2
Fore
SplineSet
0 0 m 1
 0 16 l 1
 16 16 l 1
 16 0 l 1
 0 0 l 1
EndSplineSet
Validated: 1
EndChar

StartChar: slash
Encoding: 47 47 16
Width: 96
GlyphClass: 2
Flags: W
HStem: 0 21G<0 29.0714> 92 20G<50.9286 80>
LayerCount: 2
Fore
SplineSet
0 0 m 1
 62 112 l 1
 80 112 l 1
 18 0 l 1
 0 0 l 1
EndSplineSet
Validated: 1
EndChar

StartChar: zero
Encoding: 48 48 17
Width: 96
GlyphClass: 2
Flags: W
HStem: 0 16<19.1899 59.7393> 96 16<20.2607 60.8101>
VStem: 0 16<19.3799 32 50 91.4606> 64 16<20.5394 62 80 92.6201>
LayerCount: 2
Fore
SplineSet
40 112 m 0
 72 112 80 104 80 56 c 0
 80 8 72 0 40 0 c 0
 8 0 0 8 0 56 c 0
 0 104 8 112 40 112 c 0
40 16 m 0
 64 16 64 16 64 62 c 1
 16 32 l 1
 16 16 24 16 40 16 c 0
64 80 m 1
 64 96 56 96 40 96 c 0
 16 96 16 96 16 50 c 1
 64 80 l 1
EndSplineSet
Validated: 1
EndChar

StartChar: one
Encoding: 49 49 18
Width: 96
GlyphClass: 2
Flags: W
HStem: 0 16<0 32 48 80> 92 20G<22 48>
VStem: 32 16<16 80>
LayerCount: 2
Fore
SplineSet
0 0 m 1
 0 16 l 1
 32 16 l 1
 32 80 l 1
 16 80 l 1
 32 112 l 1
 48 112 l 1
 48 16 l 1
 80 16 l 1
 80 0 l 1
 0 0 l 1
EndSplineSet
Validated: 1
EndChar

StartChar: two
Encoding: 50 50 19
Width: 96
GlyphClass: 2
Flags: W
HStem: 0 32<64 80> 0 16<16 64> 48 16<33.5761 63.125> 80 21G<0 16> 96 16<17.2705 62.7295>
VStem: 0 16<16 30.4239 80 94.3413> 64 16<16 32 64.8088 94.4263>
LayerCount: 2
Fore
SplineSet
80 32 m 1xa6
 80 0 l 1xa6
 0 0 l 1
 0 16 l 2
 0 40 24 64 48 64 c 0
 64 64 64 64 64 80 c 0x76
 64 96 64 96 40 96 c 0x2e
 16 96 16 96 16 80 c 1
 0 80 l 1x36
 0 104 8 112 40 112 c 0x2e
 72 112 80 104 80 80 c 0
 80 56 72 48 48 48 c 0
 32 48 16 32 16 16 c 1
 64 16 l 1x76
 64 32 l 1
 80 32 l 1xa6
EndSplineSet
Validated: 1
EndChar

StartChar: three
Encoding: 51 51 20
Width: 96
GlyphClass: 2
Flags: W
HStem: 0 16<17.2705 62.7295> 48 16<32 62.5148> 80 21G<0 16> 96 16<17.2705 62.7295>
VStem: 0 16<17.6587 32 80 94.3413> 64 16<17.5737 45.9243 66.0757 94.4263>
LayerCount: 2
Fore
SplineSet
72 56 m 1xec
 78 52 80 44 80 32 c 0
 80 8 72 0 40 0 c 0
 8 0 0 8 0 32 c 1
 16 32 l 1
 16 16 16 16 40 16 c 0
 64 16 64 16 64 32 c 0
 64 48 64 48 32 48 c 1
 32 64 l 1
 64 64 64 64 64 80 c 0xec
 64 96 64 96 40 96 c 0xdc
 16 96 16 96 16 80 c 1
 0 80 l 1xec
 0 104 8 112 40 112 c 0xdc
 72 112 80 104 80 80 c 0
 80 68 78 60 72 56 c 1xec
EndSplineSet
Validated: 1
EndChar

StartChar: four
Encoding: 52 52 21
Width: 96
GlyphClass: 2
Flags: W
HStem: 0 21G<64 80> 32 16<20 64> 92 20G<44 80>
VStem: 64 16<0 32 48 92>
LayerCount: 2
Fore
SplineSet
20 48 m 1
 64 48 l 1
 64 92 l 1
 20 48 l 1
80 112 m 1
 80 0 l 1
 64 0 l 1
 64 32 l 1
 0 32 l 1
 0 48 l 1
 64 112 l 1
 80 112 l 1
EndSplineSet
Validated: 1
EndChar

StartChar: five
Encoding: 53 53 22
Width: 96
GlyphClass: 2
Flags: W
HStem: 0 16<17.2705 61.7139> 64 16<16 59.5342> 96 16<16 80>
VStem: 0 16<17.6587 32 80 96> 64 16<18.2861 59.7393>
LayerCount: 2
Fore
SplineSet
16 80 m 1
 72 80 80 72 80 40 c 0
 80 8 72 0 40 0 c 0
 8 0 0 8 0 32 c 1
 16 32 l 1
 16 16 16 16 40 16 c 0
 64 16 64 16 64 40 c 0
 64 64 64 64 16 64 c 2
 0 64 l 1
 0 112 l 1
 80 112 l 1
 80 96 l 1
 16 96 l 1
 16 80 l 1
EndSplineSet
Validated: 1
EndChar

StartChar: six
Encoding: 54 54 23
Width: 96
GlyphClass: 2
Flags: W
HStem: 0 16<19.1401 62.7295> 48 16<16 61.4476> 96 16<40.1306 64>
VStem: 0 16<19.1426 48 64 77.144> 64 16<17.5753 44.8801>
CounterMasks: 1 e0
LayerCount: 2
Fore
SplineSet
40 16 m 0
 64 16 64 16 64 32 c 0
 64 48 64 48 16 48 c 1
 16 16 16 16 40 16 c 0
0 64 m 2
 -1.46952762459e-15 88 24 112 64 112 c 1
 64 96 l 1
 32 96 16 80 16 64 c 1
 68 64 80 58 80 32 c 0
 80 6 72 0 40 0 c 0
 8 0 -2.44921270764e-15 8 0 48 c 2
 0 64 l 2
EndSplineSet
Validated: 1
EndChar

StartChar: seven
Encoding: 55 55 24
Width: 96
GlyphClass: 2
Flags: W
HStem: 0 21G<32 48> 80 32<0 16> 96 16<16 64>
VStem: 0 16<80 96> 32 16<0 27.4087> 64 16<76.7944 96>
CounterMasks: 1 1c
LayerCount: 2
Fore
SplineSet
64 96 m 1xbc
 16 96 l 1xbc
 16 80 l 1
 0 80 l 1
 0 112 l 1xdc
 80 112 l 1
 80 96 l 1
 80 64 48 48 48 0 c 1
 32 0 l 1
 32 48 64 64 64 96 c 1xbc
EndSplineSet
Validated: 1
EndChar

StartChar: eight
Encoding: 56 56 25
Width: 96
GlyphClass: 2
Flags: W
HStem: 0 16<17.2705 62.7092> 48 16<17.1139 62.8861> 96 16<17.2705 62.7295>
VStem: 0 16<17.5737 46.5667 65.4333 94.4263> 64 16<17.5737 46.5667 65.4333 94.4263>
CounterMasks: 1 e0
LayerCount: 2
Fore
SplineSet
40 16 m 0
 64 16 64 16 64 32 c 0
 64 48 64 48 40 48 c 0
 16 48 16 48 16 32 c 0
 16 16 16 16 40 16 c 0
40 112 m 0
 72 112 80 104 80 80 c 0
 80 68 76 60 72 56 c 1
 76 52 80 44 80 32 c 0
 80 8 74 0 40 0 c 0
 8 0 0 8 0 32 c 0
 0 44 4 52 8 56 c 1
 4 60 0 68 0 80 c 0
 0 104 8 112 40 112 c 0
40 64 m 0
 64 64 64 64 64 80 c 0
 64 96 64 96 40 96 c 0
 16 96 16 96 16 80 c 0
 16 64 16 64 40 64 c 0
EndSplineSet
Validated: 1
EndChar

StartChar: nine
Encoding: 57 57 26
Width: 96
GlyphClass: 2
Flags: W
HStem: 0 16<16 39.8694> 48 16<18.5524 64> 96 16<17.2705 60.8599>
VStem: 0 16<67.1199 94.4247> 64 16<34.856 48 64 92.8574>
CounterMasks: 1 e0
LayerCount: 2
Fore
SplineSet
40 96 m 0
 16 96 16 96 16 80 c 0
 16 64 16 64 64 64 c 1
 64 96 64 96 40 96 c 0
80 48 m 2
 80 24 56 0 16 0 c 1
 16 16 l 1
 48 16 64 32 64 48 c 1
 12 48 0 54 0 80 c 0
 0 106 8 112 40 112 c 0
 72 112 80 104 80 64 c 2
 80 48 l 2
EndSplineSet
Validated: 1
EndChar

StartChar: colon
Encoding: 58 58 27
Width: 32
GlyphClass: 2
Flags: W
HStem: 0 16<0 16> 64 16<0 16>
VStem: 0 16<0 16 64 80>
LayerCount: 2
Fore
SplineSet
0 16 m 1
 16 16 l 1
 16 0 l 1
 0 0 l 1
 0 16 l 1
0 80 m 1
 16 80 l 1
 16 64 l 1
 0 64 l 1
 0 80 l 1
EndSplineSet
Validated: 1
EndChar

StartChar: semicolon
Encoding: 59 59 28
Width: 32
GlyphClass: 2
Flags: W
HStem: -16 32<0 16> 64 16<0 16>
VStem: 0 16<-16 16 64 80>
LayerCount: 2
Fore
SplineSet
0 16 m 1
 16 16 l 1
 16 -16 l 1
 0 -16 l 1
 0 16 l 1
0 80 m 1
 16 80 l 1
 16 64 l 1
 0 64 l 1
 0 80 l 1
EndSplineSet
Validated: 1
EndChar

StartChar: less
Encoding: 60 60 29
Width: 80
GlyphClass: 2
Flags: W
HStem: 0 21G<37.3333 64> 92 20G<37.3333 64>
LayerCount: 2
Fore
SplineSet
64 20 m 1
 64 0 l 1
 0 48 l 1
 0 64 l 1
 64 112 l 1
 64 92 l 1
 16 56 l 1
 64 20 l 1
EndSplineSet
Validated: 1
EndChar

StartChar: equal
Encoding: 61 61 30
Width: 96
GlyphClass: 2
Flags: W
HStem: 16 16<0 80> 64 16<0 80>
LayerCount: 2
Fore
SplineSet
0 32 m 1
 80 32 l 1
 80 16 l 1
 0 16 l 1
 0 32 l 1
0 80 m 1
 80 80 l 1
 80 64 l 1
 0 64 l 1
 0 80 l 1
EndSplineSet
Validated: 1
EndChar

StartChar: greater
Encoding: 62 62 31
Width: 80
GlyphClass: 2
Flags: W
HStem: 0 21G<0 26.6667> 92 20G<0 26.6667>
LayerCount: 2
Fore
SplineSet
0 20 m 1
 48 56 l 1
 0 92 l 1
 0 112 l 1
 64 64 l 1
 64 48 l 1
 0 0 l 1
 0 20 l 1
EndSplineSet
Validated: 1
EndChar

StartChar: question
Encoding: 63 63 32
Width: 96
GlyphClass: 2
Flags: W
HStem: 0 16<32 48> 80 21G<0 16> 96 16<17.2705 62.7295>
VStem: 0 16<80 94.3413> 32 16<0 16 32 41.2425> 64 16<70.5773 94.4263>
CounterMasks: 1 1c
LayerCount: 2
Fore
SplineSet
32 0 m 1x9c
 32 16 l 1
 48 16 l 1
 48 0 l 1
 32 0 l 1x9c
32 32 m 1
 32 56 64 64 64 80 c 0xdc
 64 96 64 96 40 96 c 0xbc
 16 96 16 96 16 80 c 1
 0 80 l 1xdc
 0 104 8 112 40 112 c 0xbc
 72 112 80 104 80 80 c 0xdc
 80 56 48 48 48 32 c 1
 32 32 l 1
EndSplineSet
Validated: 1
EndChar

StartChar: at
Encoding: 64 64 33
Width: 112
GlyphClass: 2
Flags: W
HStem: -16 16<33.1917 80> 16 16<40.875 56 72 78.9141> 48 16<40.263 55.5849> 80 16<21.0538 77.0637>
VStem: 0 16<9.33421 74.6289> 24 16<32.4151 47.737> 56 16<32 47.139> 80 16<32.3721 76.8599>
LayerCount: 2
Fore
SplineSet
48 64 m 0
 64 64 72 60 72 32 c 1
 80 32 80 32 80 56 c 0
 80 80 80 80 48 80 c 0
 16 80 16 80 16 40 c 0
 16 0 16 0 80 0 c 1
 80 -16 l 1
 8 -16 0 -8 0 40 c 0
 0 88 8 96 48 96 c 0
 84 96 96 88 96 56 c 0
 96 24 88 16 72 16 c 1
 56 16 l 0
 32 16 24 24 24 40 c 0
 24 56 32 64 48 64 c 0
48 48 m 0
 40 48 40 48 40 40 c 0
 40 32 40 32 56 32 c 1
 56 48 56 48 48 48 c 0
EndSplineSet
Validated: 1
EndChar

StartChar: A
Encoding: 65 65 34
AltUni2: 000410.ffffffff.0 000391.ffffffff.0 001d2c.ffffffff.0
Width: 96
GlyphClass: 2
Flags: W
HStem: 0 21G<0 16 64 80> 64 16<16 64> 96 16<17.2705 62.7295>
VStem: 0 16<0 64 80 94.3413> 64 16<0 64 80 94.3413>
AnchorPoint: "Anchor-1" 40 0 basechar 0
AnchorPoint: "Anchor-0" 40 112 basechar 0
LayerCount: 2
Fore
SplineSet
16 80 m 1
 64 80 l 1
 64 96 64 96 40 96 c 0
 16 96 16 96 16 80 c 1
0 0 m 1
 0 80 l 2
 -1.46952762459e-15 104 8 112 40 112 c 0
 72 112 80 104 80 80 c 2
 80 0 l 1
 64 0 l 1
 64 64 l 1
 16 64 l 1
 16 0 l 1
 0 0 l 1
EndSplineSet
Validated: 1
EndChar

StartChar: B
Encoding: 66 66 35
AltUni2: 000412.ffffffff.0 000392.ffffffff.0 001d2e.ffffffff.0
Width: 96
GlyphClass: 2
Flags: W
HStem: 0 16<16 59.5342> 64 16<16 59.5342> 96 16<16 63.1663>
VStem: 0 16<16 64 80 96> 64 16<20.4736 59.7789 81.4868 94.2901>
AnchorPoint: "Anchor-1" 8 0 basechar 0
AnchorPoint: "Anchor-0" 40 112 basechar 0
LayerCount: 2
Fore
SplineSet
0 0 m 1
 0 112 l 1
 16 112 l 2
 72 112 80 108 80 88 c 0
 80 80 78 76 72 72 c 1
 78 68 80 62 80 40 c 0
 80 4 72 -6.85779558141e-15 16 0 c 2
 0 0 l 1
16 80 m 1
 64 80 64 80 64 88 c 0
 64 96 64 96 16 96 c 1
 16 80 l 1
16 16 m 1
 64 16 64 16 64 40 c 0
 64 64 64 64 16 64 c 1
 16 16 l 1
EndSplineSet
Validated: 1
EndChar

StartChar: C
Encoding: 67 67 36
AltUni2: 000421.ffffffff.0
Width: 96
GlyphClass: 2
Flags: W
HStem: 0 16<20.0116 62.7295> 80 21G<64 80> 96 16<20.0116 62.7295>
VStem: 0 16<19.9948 92.0052> 64 16<17.6587 32 80 94.3413>
AnchorPoint: "Anchor-1" 40 0 basechar 0
AnchorPoint: "Anchor-0" 40 112 basechar 0
LayerCount: 2
Fore
SplineSet
40 0 m 0xb8
 6 0 0 10 0 56 c 0
 0 102 6 112 40 112 c 0xb8
 72 112 80 104 80 80 c 1
 64 80 l 1xd8
 64 96 64 96 40 96 c 0
 16 96 16 96 16 56 c 0
 16 16 16 16 40 16 c 0
 64 16 64 16 64 32 c 1
 80 32 l 1
 80 8 72 0 40 0 c 0xb8
EndSplineSet
Validated: 1
EndChar

StartChar: D
Encoding: 68 68 37
AltUni2: 001d30.ffffffff.0
Width: 96
GlyphClass: 2
Flags: W
HStem: 0 16<16 55.6582> 96 16<16 55.6582>
VStem: 0 16<16 96> 64 16<23.054 88.946>
AnchorPoint: "Anchor-1" 40 0 basechar 0
AnchorPoint: "Anchor-0" 40 112 basechar 0
LayerCount: 2
Fore
SplineSet
16 96 m 1
 16 16 l 1
 64 16 64 16 64 56 c 0
 64 96 64 96 16 96 c 1
0 112 m 1
 16 112 l 2
 72 112 80 104 80 56 c 0
 80 8 72 0 16 0 c 2
 0 0 l 1
 0 112 l 1
EndSplineSet
Validated: 1
EndChar

StartChar: E
Encoding: 69 69 38
AltUni2: 000415.ffffffff.0 000395.ffffffff.0 001d31.ffffffff.0
Width: 96
GlyphClass: 2
Flags: W
HStem: 0 16<16 80> 64 16<16 48> 96 16<16 80>
VStem: 0 16<16 64 80 96>
AnchorPoint: "Anchor-1" 40 0 basechar 0
AnchorPoint: "Anchor-0" 40 112 basechar 0
LayerCount: 2
Fore
SplineSet
0 112 m 1
 80 112 l 1
 80 96 l 1
 16 96 l 1
 16 80 l 1
 48 80 l 1
 48 64 l 1
 16 64 l 1
 16 16 l 1
 80 16 l 1
 80 0 l 1
 0 0 l 1
 0 112 l 1
EndSplineSet
Validated: 1
EndChar

StartChar: F
Encoding: 70 70 39
Width: 96
GlyphClass: 2
Flags: W
HStem: 0 21G<0 16> 64 16<16 48> 96 16<16 80>
VStem: 0 16<0 64 80 96>
AnchorPoint: "Anchor-1" 8 0 basechar 0
AnchorPoint: "Anchor-0" 40 112 basechar 0
LayerCount: 2
Fore
SplineSet
0 112 m 1
 80 112 l 1
 80 96 l 1
 16 96 l 1
 16 80 l 1
 48 80 l 1
 48 64 l 1
 16 64 l 1
 16 0 l 1
 0 0 l 1
 0 112 l 1
EndSplineSet
Validated: 1
EndChar

StartChar: G
Encoding: 71 71 40
AltUni2: 001d33.ffffffff.0
Width: 96
GlyphClass: 2
Flags: W
HStem: 0 16<20.0116 59.6519> 64 16<48 64> 96 16<32.8264 80>
VStem: 0 16<19.9948 87.0955> 48 32<64 80> 64 16<21.251 64>
AnchorPoint: "Anchor-1" 40 0 basechar 0
AnchorPoint: "Anchor-0" 40 112 basechar 0
LayerCount: 2
Fore
SplineSet
40 0 m 0xf8
 6 0 0 10 0 56 c 0
 0 106 10 112 80 112 c 1
 80 96 l 1
 16 96 16 96 16 56 c 0
 16 16 16 16 40 16 c 0
 64 16 64 16 64 64 c 1xf4
 48 64 l 1
 48 80 l 1
 80 80 l 1
 80 64 l 2
 80 10 74 0 40 0 c 0xf8
EndSplineSet
Validated: 1
EndChar

StartChar: H
Encoding: 72 72 41
AltUni2: 00041d.ffffffff.0 000397.ffffffff.0 001d34.ffffffff.0
Width: 96
GlyphClass: 2
Flags: W
HStem: 0 21G<0 16 64 80> 64 16<16 64> 92 20G<0 16 64 80>
VStem: 0 16<0 64 80 112> 64 16<0 64 80 112>
AnchorPoint: "Anchor-1" 40 0 basechar 0
AnchorPoint: "Anchor-0" 40 112 basechar 0
LayerCount: 2
Fore
SplineSet
16 112 m 1
 16 80 l 1
 64 80 l 1
 64 112 l 1
 80 112 l 1
 80 0 l 1
 64 0 l 1
 64 64 l 1
 16 64 l 1
 16 0 l 1
 0 0 l 1
 0 112 l 1
 16 112 l 1
EndSplineSet
Validated: 1
EndChar

StartChar: I
Encoding: 73 73 42
AltUni2: 000399.ffffffff.0 001d35.ffffffff.0 000406.ffffffff.0
Width: 64
GlyphClass: 2
Flags: W
HStem: 0 16<0 16 32 48> 96 16<0 16 32 48>
VStem: 0 48<0 16 96 112>
AnchorPoint: "Anchor-1" 24 0 basechar 0
AnchorPoint: "Anchor-0" 24 112 basechar 0
LayerCount: 2
Fore
SplineSet
0 112 m 1
 48 112 l 1
 48 96 l 1
 32 96 l 1
 32 16 l 1
 48 16 l 1
 48 0 l 1
 0 0 l 1
 0 16 l 1
 16 16 l 1
 16 96 l 1
 0 96 l 1
 0 112 l 1
EndSplineSet
Validated: 1
EndChar

StartChar: J
Encoding: 74 74 43
AltUni2: 001d36.ffffffff.0 000408.ffffffff.0
Width: 96
GlyphClass: 2
Flags: W
HStem: 0 16<17.2705 57.1383> 92 20G<64 80>
VStem: 0 16<17.6587 32> 64 16<67.1432 112>
AnchorPoint: "Anchor-1" 40 0 basechar 0
AnchorPoint: "Anchor-0" 72 112 basechar 0
LayerCount: 2
Fore
SplineSet
40 0 m 0
 8 0 0 8 0 32 c 1
 16 32 l 1
 16 16 16 16 40 16 c 0
 64 16 64 16 64 112 c 1
 80 112 l 1
 80 10 76 0 40 0 c 0
EndSplineSet
Validated: 1
EndChar

StartChar: K
Encoding: 75 75 44
AltUni2: 00041a.ffffffff.0 00039a.ffffffff.0 001d37.ffffffff.0
Width: 96
GlyphClass: 2
Flags: W
HStem: 0 21G<0 16 64 80> 64 16<16 39.2031> 92 20G<0 16 64 80>
VStem: 0 16<0 64 80 112> 64 16<0 33.2622 98.856 112>
AnchorPoint: "Anchor-1" 40 0 basechar 0
AnchorPoint: "Anchor-0" 40 112 basechar 0
LayerCount: 2
Fore
SplineSet
48 72 m 1
 70 61 80 37 80 0 c 1
 64 0 l 1
 64 48 48 64 16 64 c 1
 16 0 l 1
 0 0 l 1
 0 112 l 1
 16 112 l 1
 16 80 l 1
 48 80 64 96 64 112 c 1
 80 112 l 1
 80 96 70 80 48 72 c 1
EndSplineSet
Validated: 1
EndChar

StartChar: L
Encoding: 76 76 45
AltUni2: 001d38.ffffffff.0
Width: 96
GlyphClass: 2
Flags: W
HStem: 0 16<16 80> 92 20G<0 16>
VStem: 0 16<16 112>
AnchorPoint: "Anchor-1" 40 0 basechar 0
AnchorPoint: "Anchor-0" 8 112 basechar 0
LayerCount: 2
Fore
SplineSet
0 112 m 1
 16 112 l 1
 16 16 l 1
 80 16 l 1
 80 0 l 1
 0 0 l 1
 0 112 l 1
EndSplineSet
Validated: 1
EndChar

StartChar: M
Encoding: 77 77 46
AltUni2: 00041c.ffffffff.0 00039c.ffffffff.0 001d39.ffffffff.0
Width: 96
GlyphClass: 2
Flags: W
HStem: 0 21G<0 16 64 80> 92 20G<0 32 48 80>
VStem: 0 16<0 90> 64 16<0 90>
AnchorPoint: "Anchor-1" 40 0 basechar 0
AnchorPoint: "Anchor-0" 40 112 basechar 0
LayerCount: 2
Fore
SplineSet
0 112 m 1
 16 112 l 1
 40 82 l 1
 64 112 l 1
 80 112 l 1
 80 0 l 1
 64 0 l 1
 64 90 l 1
 40 60 l 1
 16 90 l 1
 16 0 l 1
 0 0 l 1
 0 112 l 1
EndSplineSet
Validated: 1
EndChar

StartChar: N
Encoding: 78 78 47
AltUni2: 00039d.ffffffff.0 001d3a.ffffffff.0
Width: 96
GlyphClass: 2
Flags: W
HStem: 0 21G<0 16 64 80> 92 20G<0 36 64 80>
VStem: 0 16<0 90> 64 16<0 42 64 112>
AnchorPoint: "Anchor-1" 40 0 basechar 0
AnchorPoint: "Anchor-0" 40 112 basechar 0
LayerCount: 2
Fore
SplineSet
64 64 m 1
 64 112 l 1
 80 112 l 1
 80 0 l 1
 64 0 l 1
 64 42 l 1
 16 90 l 1
 16 0 l 1
 0 0 l 1
 0 112 l 1
 16 112 l 1
 64 64 l 1
EndSplineSet
Validated: 1
EndChar

StartChar: O
Encoding: 79 79 48
AltUni2: 00041e.ffffffff.0 00039f.ffffffff.0 001d3c.ffffffff.0
Width: 96
GlyphClass: 2
Flags: W
HStem: 0 16<20.0116 59.9884> 96 16<20.0116 59.9884>
VStem: 0 16<19.9948 92.0052> 64 16<19.9948 92.0052>
AnchorPoint: "Anchor-1" 40 0 basechar 0
AnchorPoint: "Anchor-0" 40 112 basechar 0
LayerCount: 2
Fore
SplineSet
40 16 m 0
 64 16 64 16 64 56 c 0
 64 96 64 96 40 96 c 0
 16 96 16 96 16 56 c 0
 16 16 16 16 40 16 c 0
40 112 m 0
 74 112 80 102 80 56 c 0
 80 10 74 0 40 0 c 0
 6 0 0 10 0 56 c 0
 0 102 6 112 40 112 c 0
EndSplineSet
Validated: 1
EndChar

StartChar: P
Encoding: 80 80 49
AltUni2: 000420.ffffffff.0 0003a1.ffffffff.0 001d3e.ffffffff.0
Width: 96
GlyphClass: 2
Flags: W
HStem: 0 21G<0 16> 64 16<16 63.1663> 96 16<16 63.1663>
VStem: 0 16<0 64 80 96> 64 16<81.7099 94.2901>
AnchorPoint: "Anchor-1" 8 0 basechar 0
AnchorPoint: "Anchor-0" 40 112 basechar 0
LayerCount: 2
Fore
SplineSet
16 64 m 1
 16 0 l 1
 0 0 l 1
 0 112 l 1
 16 112 l 2
 72 112 80 108 80 88 c 0
 80 68 72 64 16 64 c 1
16 96 m 1
 16 80 l 1
 64 80 64 80 64 88 c 0
 64 96 64 96 16 96 c 1
EndSplineSet
Validated: 1
EndChar

StartChar: Q
Encoding: 81 81 50
Width: 96
GlyphClass: 2
Flags: W
HStem: 0 16<18.4567 45.954> 96 16<20.0116 59.9884>
VStem: 0 16<17.9615 92.0052> 64 16<36.2771 92.0052>
AnchorPoint: "Anchor-1" 40 0 basechar 0
AnchorPoint: "Anchor-0" 40 112 basechar 0
LayerCount: 2
Fore
SplineSet
40 112 m 0
 74 112 80 102 80 56 c 0
 80 38 74 28 68 20 c 1
 80 0 l 1
 64 0 l 1
 58 10 l 1
 52 4 42 0 32 0 c 0
 6 0 0 10 0 56 c 0
 0 102 6 112 40 112 c 0
64 56 m 0
 64 96 64 96 40 96 c 0
 16 96 16 96 16 56 c 0
 16 16 16 16 32 16 c 0
 48 16 64 32 64 56 c 0
EndSplineSet
Validated: 1
EndChar

StartChar: R
Encoding: 82 82 51
AltUni2: 001d3f.ffffffff.0
Width: 96
GlyphClass: 2
Flags: W
HStem: 0 21G<0 16 64 80> 64 16<16 53.1384> 96 16<16 63.1663>
VStem: 0 16<0 64 80 96> 64 16<0 47.0654 81.5173 94.2901>
AnchorPoint: "Anchor-1" 40 0 basechar 0
AnchorPoint: "Anchor-0" 40 112 basechar 0
LayerCount: 2
Fore
SplineSet
68 68 m 1
 76 60 80 48 80 0 c 1
 64 0 l 1
 64 64 64 64 16 64 c 1
 16 0 l 1
 0 0 l 1
 0 112 l 1
 16 112 l 2
 72 112 80 108 80 88 c 0
 80 76 76 72 68 68 c 1
16 80 m 1
 64 80 64 80 64 88 c 0
 64 96 64 96 16 96 c 1
 16 80 l 1
EndSplineSet
Validated: 1
EndChar

StartChar: S
Encoding: 83 83 52
AltUni2: 000405.ffffffff.0
Width: 96
GlyphClass: 2
Flags: W
HStem: 0 16<17.2705 61.7139> 64 16<16.5754 61.6606> 96 16<33.0929 80>
VStem: 0 16<17.6587 32 80.9229 94.0969> 64 16<18.2861 61.7139>
AnchorPoint: "Anchor-0" 40 112 basechar 0
AnchorPoint: "Anchor-1" 40 0 basechar 0
LayerCount: 2
Fore
SplineSet
40 80 m 0
 72 80 80 72 80 40 c 0
 80 8 72 0 40 0 c 0
 8 0 0 8 0 32 c 1
 16 32 l 1
 16 16 16 16 40 16 c 0
 64 16 64 16 64 40 c 0
 64 64 64 64 40 64 c 0
 10 64 0 70 0 88 c 0
 0 108 12 112 80 112 c 1
 80 96 l 1
 16 96 16 96 16 88 c 0
 16 80 16 80 40 80 c 0
EndSplineSet
Validated: 1
EndChar

StartChar: T
Encoding: 84 84 53
AltUni2: 000422.ffffffff.0 0003a4.ffffffff.0 001d40.ffffffff.0
Width: 96
GlyphClass: 2
Flags: W
HStem: 0 21G<32 48> 96 16<0 32 48 80>
VStem: 32 16<0 96>
AnchorPoint: "Anchor-1" 40 0 basechar 0
AnchorPoint: "Anchor-0" 40 112 basechar 0
LayerCount: 2
Fore
SplineSet
0 112 m 1
 80 112 l 1
 80 96 l 1
 48 96 l 1
 48 0 l 1
 32 0 l 1
 32 96 l 1
 0 96 l 1
 0 112 l 1
EndSplineSet
Validated: 1
EndChar

StartChar: U
Encoding: 85 85 54
AltUni2: 001d41.ffffffff.0
Width: 96
GlyphClass: 2
Flags: W
HStem: 0 16<22.8617 57.1383> 92 20G<0 16 64 80>
VStem: 0 16<67.1432 112> 64 16<67.1432 112>
AnchorPoint: "Anchor-1" 40 0 basechar 0
AnchorPoint: "Anchor-0" 40 112 basechar 0
LayerCount: 2
Fore
SplineSet
40 16 m 0
 64 16 64 16 64 112 c 1
 80 112 l 1
 80 10 76 0 40 0 c 0
 4 0 0 10 0 112 c 1
 16 112 l 1
 16 16 16 16 40 16 c 0
EndSplineSet
Validated: 1
EndChar

StartChar: V
Encoding: 86 86 55
Width: 96
GlyphClass: 2
Flags: W
HStem: 0 21G<24 56> 92 20G<0 16 64 80>
VStem: 0 16<65.5899 112> 64 16<65.5899 112>
AnchorPoint: "Anchor-1" 40 0 basechar 0
AnchorPoint: "Anchor-0" 40 112 basechar 0
LayerCount: 2
Fore
SplineSet
40 16 m 1
 58 44 64 56 64 112 c 1
 80 112 l 1
 80 40 64 26 48 0 c 1
 32 0 l 1
 16 26 0 40 0 112 c 1
 16 112 l 1
 16 56 22 44 40 16 c 1
  Spiro
    40 16 v
    54.2116 40.4204 o
    61.7824 68.2559 o
    64 112 v
    80 112 v
    75.2681 56.7819 o
    63.3932 24.5668 o
    48 0 v
    32 0 v
    16.6068 24.5668 o
    4.73186 56.7819 o
    0 112 v
    16 112 v
    18.2176 68.2559 o
    25.7884 40.4204 o
    0 0 z
  EndSpiro
EndSplineSet
Validated: 1
EndChar

StartChar: W
Encoding: 87 87 56
AltUni2: 001d42.ffffffff.0
Width: 96
GlyphClass: 2
Flags: W
HStem: 0 21G<0 32 48 80> 92 20G<0 16 64 80>
VStem: 0 16<24 112> 64 16<24 112>
AnchorPoint: "Anchor-1" 40 0 basechar 0
AnchorPoint: "Anchor-0" 40 112 basechar 0
LayerCount: 2
Fore
SplineSet
80 0 m 1
 64 0 l 1
 40 30 l 1
 16 0 l 1
 0 0 l 1
 0 112 l 1
 16 112 l 1
 16 24 l 1
 40 52 l 1
 64 24 l 1
 64 112 l 1
 80 112 l 1
 80 0 l 1
EndSplineSet
Validated: 1
EndChar

StartChar: X
Encoding: 88 88 57
AltUni2: 0003a7.ffffffff.0 000425.ffffffff.0
Width: 96
GlyphClass: 2
Flags: W
HStem: 0 21G<0 16 64 80> 92 20G<0 34.2857 45.7143 80>
VStem: 0 16<0 29.5309> 64 16<0 29.5309>
AnchorPoint: "Anchor-1" 40 0 basechar 0
AnchorPoint: "Anchor-0" 40 112 basechar 0
LayerCount: 2
Fore
SplineSet
40 60 m 1
 24 40 16 32 16 0 c 1
 0 0 l 1
 0 40 12 48 30 72 c 1
 0 112 l 1
 20 112 l 1
 40 84 l 1
 60 112 l 1
 80 112 l 1
 50 72 l 1
 68 48 80 40 80 0 c 1
 64 0 l 1
 64 32 56 40 40 60 c 1
EndSplineSet
Validated: 1
EndChar

StartChar: Y
Encoding: 89 89 58
AltUni2: 0003a5.ffffffff.0
Width: 96
GlyphClass: 2
Flags: W
HStem: 0 21G<32 48> 92 20G<0 32.6667 47.3333 80>
VStem: 32 16<0 68>
AnchorPoint: "Anchor-1" 40 0 basechar 0
AnchorPoint: "Anchor-0" 40 112 basechar 0
LayerCount: 2
Fore
SplineSet
0 112 m 1
 18 112 l 1
 40 82 l 1
 62 112 l 1
 80 112 l 1
 48 68 l 1
 48 0 l 1
 32 0 l 1
 32 68 l 1
 0 112 l 1
EndSplineSet
Validated: 1
EndChar

StartChar: Z
Encoding: 90 90 59
AltUni2: 000396.ffffffff.0
Width: 96
GlyphClass: 2
Flags: W
HStem: 0 16<20 80> 96 16<0 60>
AnchorPoint: "Anchor-1" 40 0 basechar 0
AnchorPoint: "Anchor-0" 40 112 basechar 0
LayerCount: 2
Fore
SplineSet
0 0 m 1
 0 16 l 1
 60 96 l 1
 0 96 l 1
 0 112 l 1
 80 112 l 1
 80 96 l 1
 20 16 l 1
 80 16 l 1
 80 0 l 1
 0 0 l 1
EndSplineSet
Validated: 1
EndChar

StartChar: bracketleft
Encoding: 91 91 60
Width: 64
GlyphClass: 2
Flags: W
HStem: 0 16<16 48> 96 16<16 48>
VStem: 0 48<0 16 96 112> 0 16<16 96>
LayerCount: 2
Fore
SplineSet
0 112 m 1xe0
 48 112 l 1
 48 96 l 1xe0
 16 96 l 1
 16 16 l 1xd0
 48 16 l 1
 48 0 l 1
 0 0 l 1
 0 112 l 1xe0
EndSplineSet
Validated: 1
EndChar

StartChar: backslash
Encoding: 92 92 61
Width: 96
GlyphClass: 2
Flags: W
HStem: 0 21G<50.9286 80> 92 20G<0 29.0714>
LayerCount: 2
Fore
SplineSet
80 0 m 1
 62 0 l 1
 0 112 l 1
 18 112 l 1
 80 0 l 1
EndSplineSet
Validated: 1
EndChar

StartChar: bracketright
Encoding: 93 93 62
Width: 64
GlyphClass: 2
Flags: W
HStem: 0 16<0 32> 96 16<0 32>
VStem: 0 48<0 16 96 112> 32 16<16 96>
LayerCount: 2
Fore
SplineSet
48 0 m 1xe0
 0 0 l 1
 0 16 l 1xe0
 32 16 l 1
 32 96 l 1xd0
 0 96 l 1
 0 112 l 1
 48 112 l 1
 48 0 l 1xe0
EndSplineSet
Validated: 1
EndChar

StartChar: asciicircum
Encoding: 94 94 63
Width: 96
GlyphClass: 2
Flags: W
HStem: 64 48
LayerCount: 2
Fore
SplineSet
80 64 m 1
 60 64 l 1
 40 88 l 1
 20 64 l 1
 0 64 l 1
 40 112 l 1
 80 64 l 1
EndSplineSet
Validated: 1
EndChar

StartChar: underscore
Encoding: 95 95 64
Width: 96
GlyphClass: 2
Flags: W
HStem: -16 16<0 80>
LayerCount: 2
Fore
SplineSet
0 0 m 1
 80 0 l 1
 80 -16 l 1
 0 -16 l 1
 0 0 l 1
EndSplineSet
Validated: 1
EndChar

StartChar: grave
Encoding: 96 96 65
Width: 48
GlyphClass: 4
Flags: W
HStem: 80 32
VStem: 0 32
AnchorPoint: "Anchor-0" 24 64 mark 0
LayerCount: 2
Fore
SplineSet
0 112 m 1
 16 112 l 1
 32 80 l 1
 16 80 l 1
 0 112 l 1
EndSplineSet
Validated: 1
EndChar

StartChar: a
Encoding: 97 97 66
AltUni2: 001d43.ffffffff.0 000430.ffffffff.0
Width: 96
GlyphClass: 2
Flags: W
HStem: 0 16<16.4023 64> 32 16<16.4023 64> 64 16<16 61.1662>
VStem: 0 16<17.7099 30.2901> 64 16<16 32 48 60.4121>
CounterMasks: 1 e0
AnchorPoint: "Anchor-1" 40 0 basechar 0
AnchorPoint: "Anchor-0" 40 80 basechar 0
LayerCount: 2
Fore
SplineSet
16 24 m 0
 16 16 16 16 64 16 c 1
 64 32 l 1
 16 32 16 32 16 24 c 0
16 80 m 1
 70 80 80 76 80 48 c 2
 80 0 l 1
 64 0 l 2
 12 0 0 4 0 24 c 0
 0 44 12 48 64 48 c 1
 64 64 64 64 16 64 c 1
 16 80 l 1
EndSplineSet
Validated: 1
EndChar

StartChar: b
Encoding: 98 98 67
AltUni2: 001d47.ffffffff.0
Width: 96
GlyphClass: 2
Flags: W
HStem: 0 16<16 58.749> 64 16<32.9482 62.4263> 92 20G<0 16>
VStem: 0 16<16 43.3281 64 112> 64 16<20.3481 62.7295>
AnchorPoint: "Anchor-1" 40 0 basechar 0
AnchorPoint: "Anchor-0" 8 112 basechar 0
LayerCount: 2
Fore
SplineSet
16 64 m 1
 24 74 34 80 48 80 c 0
 72 80 80 72 80 40 c 0
 80 6 70 0 16 0 c 2
 0 0 l 1
 0 16 l 1
 0 112 l 1
 16 112 l 1
 16 64 l 1
16 16 m 1
 64 16 64 16 64 40 c 0
 64 64 64 64 48 64 c 0
 28 64 16 48 16 16 c 1
EndSplineSet
Validated: 1
EndChar

StartChar: c
Encoding: 99 99 68
AltUni2: 000441.ffffffff.0
Width: 96
GlyphClass: 2
Flags: W
HStem: 0 16<18.2861 62.7295> 64 16<18.2861 62.7295>
VStem: 0 16<18.2861 61.7139> 64 16<17.6587 32 48 62.3413>
AnchorPoint: "Anchor-1" 40 0 basechar 0
AnchorPoint: "Anchor-0" 40 80 basechar 0
LayerCount: 2
Fore
SplineSet
40 0 m 0
 8 0 0 8 0 40 c 0
 0 72 8 80 40 80 c 0
 72 80 80 72 80 48 c 1
 64 48 l 1
 64 64 64 64 40 64 c 0
 16 64 16 64 16 40 c 0
 16 16 16 16 40 16 c 0
 64 16 64 16 64 32 c 1
 80 32 l 1
 80 8 72 0 40 0 c 0
EndSplineSet
Validated: 1
EndChar

StartChar: d
Encoding: 100 100 69
AltUni2: 001d48.ffffffff.0
Width: 96
GlyphClass: 2
Flags: W
HStem: 0 16<21.251 64> 64 16<17.5737 47.0518> 92 20G<64 80>
VStem: 0 16<20.3481 62.7295> 64 16<16 43.3281 64 112>
AnchorPoint: "Anchor-1" 40 0 basechar 0
AnchorPoint: "Anchor-0" 72 112 basechar 0
LayerCount: 2
Fore
SplineSet
64 64 m 1
 64 112 l 1
 80 112 l 1
 80 16 l 1
 80 0 l 1
 64 0 l 2
 10 0 0 6 0 40 c 0
 0 72 8 80 32 80 c 0
 46 80 56 74 64 64 c 1
64 16 m 1
 64 48 52 64 32 64 c 0
 16 64 16 64 16 40 c 0
 16 16 16 16 64 16 c 1
EndSplineSet
Validated: 1
EndChar

StartChar: e
Encoding: 101 101 70
AltUni2: 001d49.ffffffff.0 000435.ffffffff.0
Width: 96
GlyphClass: 2
Flags: W
HStem: 0 16<33.0929 80> 32 16<16 64> 64 16<17.2705 62.7295>
VStem: 0 16<19.6205 32 48 62.3413> 64 16<48 62.3413>
CounterMasks: 1 e0
AnchorPoint: "Anchor-1" 40 0 basechar 0
AnchorPoint: "Anchor-0" 40 80 basechar 0
LayerCount: 2
Fore
SplineSet
16 48 m 1
 64 48 l 1
 64 64 64 64 40 64 c 0
 16 64 16 64 16 48 c 1
80 0 m 1
 12 0 -1.71444889535e-15 4 0 32 c 2
 0 48 l 2
 0 72 8 80 40 80 c 0
 72 80 80 72 80 48 c 2
 80 32 l 1
 16 32 l 1
 16 16 16 16 80 16 c 1
 80 0 l 1
EndSplineSet
Validated: 1
EndChar

StartChar: f
Encoding: 102 102 71
Width: 80
GlyphClass: 2
Flags: W
HStem: 0 21G<16 32> 64 16<0 16 32 64> 96 16<34.0071 64>
VStem: 16 16<0 64 80 93.4855>
AnchorPoint: "Anchor-1" 24 0 basechar 0
AnchorPoint: "Anchor-0" 40 112 basechar 0
LayerCount: 2
Fore
SplineSet
64 112 m 1
 64 96 l 1
 32 96 32 96 32 80 c 1
 64 80 l 1
 64 64 l 1
 32 64 l 1
 32 0 l 1
 16 0 l 1
 16 64 l 1
 0 64 l 1
 0 80 l 1
 16 80 l 1
 16 106 26 112 64 112 c 1
EndSplineSet
Validated: 1
EndChar

StartChar: g
Encoding: 103 103 72
AltUni2: 001d4d.ffffffff.0
Width: 96
GlyphClass: 2
Flags: W
HStem: -16 16<0 46.9071> 16 16<18.5524 64> 64 16<18.5524 64>
VStem: 0 16<35.1199 60.8801> 64 16<3.62054 16 32 64>
AnchorPoint: "Anchor-1" 40 -16 basechar 0
AnchorPoint: "Anchor-0" 40 80 basechar 0
LayerCount: 2
Fore
SplineSet
16 48 m 0
 16 32 16 32 64 32 c 1
 64 64 l 1
 16 64 16 64 16 48 c 0
0 -16 m 1
 0 0 l 1
 64 0 64 0 64 16 c 1
 12 16 0 22 0 48 c 0
 0 74 12 80 64 80 c 2
 80 80 l 1
 80 16 l 2
 80 -12 68 -16 0 -16 c 1
EndSplineSet
Validated: 1
EndChar

StartChar: h
Encoding: 104 104 73
AltUni2: 0002b0.ffffffff.0
Width: 96
GlyphClass: 2
Flags: W
HStem: 0 21G<0 16 64 80> 64 16<33.5122 60.4937> 92 20G<0 16>
VStem: 0 16<0 38.3243 64 112> 64 16<0 46.8083>
AnchorPoint: "Anchor-1" 40 0 basechar 0
AnchorPoint: "Anchor-0" 8 112 basechar 0
LayerCount: 2
Fore
SplineSet
16 0 m 1
 0 0 l 1
 0 112 l 1
 16 112 l 1
 16 64 l 1
 24 74 34 80 48 80 c 0
 74 80 80 72 80 0 c 1
 64 0 l 1
 64 64 64 64 48 64 c 0
 26 64 16 44 16 0 c 1
EndSplineSet
Validated: 1
EndChar

StartChar: i
Encoding: 105 105 74
AltUni2: 001d62.ffffffff.0 000456.ffffffff.0
Width: 32
GlyphClass: 2
Flags: W
HStem: 0 21G<0 16> 60 20G<0 16> 96 16<0 16>
VStem: 0 16<0 80 96 112>
AnchorPoint: "Anchor-1" 8 0 basechar 0
AnchorPoint: "Anchor-0" 8 112 basechar 0
LayerCount: 2
Fore
SplineSet
0 112 m 1
 16 112 l 1
 16 96 l 1
 0 96 l 1
 0 112 l 1
16 80 m 1
 16 0 l 1
 0 0 l 1
 0 80 l 1
 16 80 l 1
EndSplineSet
Validated: 1
EndChar

StartChar: j
Encoding: 106 106 75
AltUni2: 000458.ffffffff.0 0002b2.ffffffff.0
Width: 96
GlyphClass: 2
Flags: W
HStem: -16 16<19.1401 57.6001> 60 20G<64 80> 96 16<64 80>
VStem: 0 16<3.14258 32> 64 16<33.7818 80 96 112>
AnchorPoint: "Anchor-1" 40 -16 basechar 0
AnchorPoint: "Anchor-0" 72 112 basechar 0
LayerCount: 2
Fore
SplineSet
64 112 m 1
 80 112 l 1
 80 96 l 1
 64 96 l 1
 64 112 l 1
40 -16 m 0
 8 -16 0 -8 0 32 c 1
 16 32 l 1
 16 0 16 0 40 0 c 0
 64 0 64 0 64 80 c 1
 80 80 l 1
 80 -6 76 -16 40 -16 c 0
EndSplineSet
Validated: 1
EndChar

StartChar: k
Encoding: 107 107 76
AltUni2: 001d4f.ffffffff.0
Width: 80
GlyphClass: 2
Flags: W
HStem: 0 21G<0 16 24 64> 60 20G<24 64> 92 20G<0 16>
VStem: 0 16<0 28 52 112>
AnchorPoint: "Anchor-1" 40 0 basechar 0
AnchorPoint: "Anchor-0" 8 112 basechar 0
LayerCount: 2
Fore
SplineSet
0 112 m 1
 16 112 l 1
 16 52 l 1
 44 80 l 1
 64 80 l 1
 24 40 l 1
 64 0 l 1
 44 0 l 1
 16 28 l 1
 16 0 l 1
 0 0 l 1
 0 112 l 1
EndSplineSet
Validated: 1
EndChar

StartChar: l
Encoding: 108 108 77
AltUni2: 0002e1.ffffffff.0
Width: 48
GlyphClass: 2
Flags: W
HStem: 0 16<21.4375 32> 92 20G<0 16>
VStem: 0 16<66.436 112>
AnchorPoint: "Anchor-1" 40 0 basechar 0
AnchorPoint: "Anchor-0" 8 112 basechar 0
LayerCount: 2
Fore
SplineSet
0 112 m 1
 16 112 l 1
 16 16 16 16 32 16 c 1
 32 0 l 1
 0 0 0 8 0 112 c 1
EndSplineSet
Validated: 1
EndChar

StartChar: m
Encoding: 109 109 78
AltUni2: 001d50.ffffffff.0
Width: 96
GlyphClass: 2
Flags: W
HStem: 0 21G<0 16 64 80> 64 16<16 29.8486 49.0027 62.0969>
VStem: 0 16<0 64> 32 16<32 62.5148> 64 16<0 46.9071>
CounterMasks: 1 38
AnchorPoint: "Anchor-1" 40 0 basechar 0
AnchorPoint: "Anchor-0" 40 80 basechar 0
LayerCount: 2
Fore
SplineSet
16 64 m 1
 16 0 l 1
 0 0 l 1
 0 80 l 1
 16 80 l 2
 28 80 36 78 40 72 c 1
 44 78 48 80 56 80 c 0
 76 80 80 68 80 0 c 1
 64 0 l 1
 64 64 64 64 56 64 c 0
 48 64 48 64 48 32 c 1
 32 32 l 1
 32 64 32 64 16 64 c 1
EndSplineSet
Validated: 1
EndChar

StartChar: n
Encoding: 110 110 79
Width: 96
GlyphClass: 2
Flags: W
HStem: 0 21G<0 16 64 80> 64 16<16 52.7493>
VStem: 0 16<0 64> 64 16<0 46.8083>
AnchorPoint: "Anchor-1" 40 0 basechar 0
AnchorPoint: "Anchor-0" 40 80 basechar 0
LayerCount: 2
Fore
SplineSet
16 64 m 1
 16 0 l 1
 0 0 l 1
 0 80 l 1
 16 80 l 2
 72 80 80 72 80 0 c 1
 64 0 l 1
 64 64 64 64 16 64 c 1
EndSplineSet
Validated: 1
EndChar

StartChar: o
Encoding: 111 111 80
AltUni2: 001d52.ffffffff.0 00043e.ffffffff.0
Width: 96
GlyphClass: 2
Flags: W
HStem: 0 16<18.2861 61.7139> 64 16<18.2861 61.7139>
VStem: 0 16<18.2861 61.7139> 64 16<18.2861 61.7139>
AnchorPoint: "Anchor-1" 40 0 basechar 0
AnchorPoint: "Anchor-0" 40 80 basechar 0
LayerCount: 2
Fore
SplineSet
40 16 m 0
 64 16 64 16 64 40 c 0
 64 64 64 64 40 64 c 0
 16 64 16 64 16 40 c 0
 16 16 16 16 40 16 c 0
40 80 m 0
 72 80 80 72 80 40 c 0
 80 8 72 0 40 0 c 0
 8 0 0 8 0 40 c 0
 0 72 8 80 40 80 c 0
EndSplineSet
Validated: 1
EndChar

StartChar: p
Encoding: 112 112 81
AltUni2: 001d56.ffffffff.0 000440.ffffffff.0
Width: 96
GlyphClass: 2
Flags: W
HStem: 16 16<16 61.4476> 64 16<33.5657 63.1912>
VStem: 0 16<-16 16 32 46.5117 66 80> 64 16<35.1199 63.1912>
AnchorPoint: "Anchor-1" 40 0 basechar 0
AnchorPoint: "Anchor-0" 40 80 basechar 0
LayerCount: 2
Fore
SplineSet
16 32 m 5
 64 32 64 32 64 48 c 0
 64 64 64 64 48 64 c 4
 32 64 16 48 16 32 c 5
0 80 m 1
 16 80 l 1
 16 66 l 5
 24 74 36 80 48 80 c 4
 72 80 80 72 80 48 c 0
 80 22 68 16 16 16 c 1
 16 -16 l 1
 0 -16 l 1
 0 80 l 1
EndSplineSet
Validated: 1
EndChar

StartChar: q
Encoding: 113 113 82
Width: 96
GlyphClass: 2
Flags: W
HStem: 16 16<18.5524 64> 64 16<16.8088 46.4343>
VStem: 0 16<35.1199 63.1912> 64 16<-16 16 32 46.5117 66 80>
AnchorPoint: "Anchor-1" 40 0 basechar 0
AnchorPoint: "Anchor-0" 40 80 basechar 0
LayerCount: 2
Fore
SplineSet
64 32 m 1
 64 48 48 64 32 64 c 0
 16 64 16 64 16 48 c 0
 16 32 16 32 64 32 c 1
80 80 m 1
 80 -16 l 1
 64 -16 l 1
 64 16 l 1
 12 16 0 22 0 48 c 0
 0 72 8 80 32 80 c 0
 44 80 56 74 64 66 c 1
 64 80 l 1
 80 80 l 1
EndSplineSet
Validated: 1
EndChar

StartChar: r
Encoding: 114 114 83
AltUni2: 001d63.ffffffff.0 0002b3.ffffffff.0
Width: 96
GlyphClass: 2
Flags: W
HStem: 0 21G<0 16> 64 16<33.5122 63.1912>
VStem: 0 16<0 38.3243 64 80> 64 16<48 63.125>
AnchorPoint: "Anchor-1" 40 0 basechar 0
AnchorPoint: "Anchor-0" 40 80 basechar 0
LayerCount: 2
Fore
SplineSet
16 64 m 1
 24 74 34 80 48 80 c 0
 72 80 80 72 80 48 c 1
 64 48 l 1
 64 64 64 64 48 64 c 0
 26 64 16 44 16 0 c 1
 0 0 l 1
 0 80 l 1
 16 80 l 1
 16 64 l 1
EndSplineSet
Validated: 1
EndChar

StartChar: s
Encoding: 115 115 84
AltUni2: 000455.ffffffff.0 0002e2.ffffffff.0
Width: 96
GlyphClass: 2
Flags: W
HStem: 0 16<0 46.9071> 32 16<16.5754 63.4246> 64 16<33.0929 80>
VStem: 0 16<48.9229 62.0969> 64 16<17.9031 31.0771>
CounterMasks: 1 e0
AnchorPoint: "Anchor-1" 40 0 basechar 0
AnchorPoint: "Anchor-0" 40 80 basechar 0
LayerCount: 2
Fore
SplineSet
0 0 m 1
 0 16 l 1
 64 16 64 16 64 24 c 0
 64 32 64 32 40 32 c 0
 10 32 0 38 0 56 c 0
 0 76 12 80 80 80 c 1
 80 64 l 1
 16 64 16 64 16 56 c 0
 16 48 16 48 40 48 c 0
 70 48 80 42 80 24 c 0
 80 4 68 0 0 0 c 1
EndSplineSet
Validated: 1
EndChar

StartChar: t
Encoding: 116 116 85
AltUni2: 001d57.ffffffff.0
Width: 64
GlyphClass: 2
Flags: W
HStem: 0 16<35.2217 48> 64 16<0 16 32 48> 92 20G<16 32>
VStem: 16 16<19.1346 64 80 112>
AnchorPoint: "Anchor-1" 24 0 basechar 0
AnchorPoint: "Anchor-0" 24 112 basechar 0
LayerCount: 2
Fore
SplineSet
48 0 m 1
 16 0 16 16 16 64 c 1
 0 64 l 1
 0 80 l 1
 16 80 l 1
 16 112 l 1
 32 112 l 1
 32 80 l 1
 48 80 l 1
 48 64 l 1
 32 64 l 1
 32 16 32 16 48 16 c 1
 48 0 l 1
EndSplineSet
Validated: 1
EndChar

StartChar: u
Encoding: 117 117 86
AltUni2: 001d64.ffffffff.0 001d58.ffffffff.0
Width: 96
GlyphClass: 2
Flags: W
HStem: 0 16<27.2507 64> 60 20G<0 16 64 80>
VStem: 0 16<33.1917 80> 64 16<16 80>
AnchorPoint: "Anchor-1" 40 0 basechar 0
AnchorPoint: "Anchor-0" 40 80 basechar 0
LayerCount: 2
Fore
SplineSet
64 16 m 1
 64 80 l 1
 80 80 l 1
 80 0 l 1
 64 0 l 2
 8 0 0 8 0 80 c 1
 16 80 l 1
 16 16 16 16 64 16 c 1
EndSplineSet
Validated: 1
EndChar

StartChar: v
Encoding: 118 118 87
AltUni2: 001d5b.ffffffff.0 001d65.ffffffff.0
Width: 96
GlyphClass: 2
Flags: W
HStem: 0 21G<23 57> 60 20G<0 16 64 80>
VStem: 0 16<45.5878 80> 64 16<45.5878 80>
AnchorPoint: "Anchor-1" 40 0 basechar 0
AnchorPoint: "Anchor-0" 40 80 basechar 0
LayerCount: 2
Fore
SplineSet
48 0 m 1
 32 0 l 1
 14 24 0 32 0 80 c 1
 16 80 l 1
 16 40 24 36 40 16 c 1
 56 36 64 40 64 80 c 1
 80 80 l 1
 80 32 66 24 48 0 c 1
EndSplineSet
Validated: 1
EndChar

StartChar: w
Encoding: 119 119 88
AltUni2: 0002b7.ffffffff.0
Width: 96
GlyphClass: 2
Flags: W
HStem: 0 16<19.6205 32 48 64> 60 20G<0 16 64 80>
VStem: 0 16<32.8264 80> 32 16<16 48> 64 16<16 80>
CounterMasks: 1 38
AnchorPoint: "Anchor-1" 40 0 basechar 0
AnchorPoint: "Anchor-0" 40 80 basechar 0
LayerCount: 2
Fore
SplineSet
64 16 m 1
 64 80 l 1
 80 80 l 1
 80 0 l 1
 32 0 l 2
 4 0 0 10 0 80 c 1
 16 80 l 1
 16 16 16 16 32 16 c 1
 32 48 l 1
 48 48 l 1
 48 16 l 1
 64 16 l 1
EndSplineSet
Validated: 1
EndChar

StartChar: x
Encoding: 120 120 89
AltUni2: 000445.ffffffff.0 001d61.ffffffff.0 001d6a.ffffffff.0 0002e3.ffffffff.0
Width: 96
GlyphClass: 2
Flags: W
HStem: 0 21G<0 34.2857 45.7143 80> 60 20G<0 34.2857 45.7143 80>
AnchorPoint: "Anchor-1" 40 0 basechar 0
AnchorPoint: "Anchor-0" 40 80 basechar 0
LayerCount: 2
Fore
SplineSet
0 80 m 1
 20 80 l 1
 40 52 l 1
 60 80 l 1
 80 80 l 1
 50 40 l 1
 80 0 l 1
 60 0 l 1
 40 28 l 1
 20 0 l 1
 0 0 l 1
 30 40 l 1
 0 80 l 1
EndSplineSet
Validated: 1
EndChar

StartChar: y
Encoding: 121 121 90
AltUni2: 000443.ffffffff.0 0002b8.ffffffff.0
Width: 96
GlyphClass: 2
Flags: W
HStem: -16 16<0 46.9071> 16 16<24.543 64> 60 20G<0 16 64 80>
VStem: 0 16<40.543 80> 64 16<3.62054 16 32 80>
AnchorPoint: "Anchor-1" 40 -16 basechar 0
AnchorPoint: "Anchor-0" 40 80 basechar 0
LayerCount: 2
Fore
SplineSet
64 16 m 1
 8 16 0 24 0 80 c 1
 16 80 l 1
 16 32 16 32 64 32 c 1
 64 80 l 1
 80 80 l 1
 80 16 l 2
 80 -12 68 -16 0 -16 c 1
 0 0 l 1
 64 0 64 0 64 16 c 1
EndSplineSet
Validated: 1
EndChar

StartChar: z
Encoding: 122 122 91
Width: 96
GlyphClass: 2
Flags: W
HStem: 0 16<24 80> 64 16<0 56>
AnchorPoint: "Anchor-1" 40 0 basechar 0
AnchorPoint: "Anchor-0" 40 80 basechar 0
LayerCount: 2
Fore
SplineSet
80 0 m 1
 0 0 l 1
 0 16 l 1
 56 64 l 1
 0 64 l 1
 0 80 l 1
 80 80 l 1
 80 64 l 1
 24 16 l 1
 80 16 l 1
 80 0 l 1
EndSplineSet
Validated: 1
EndChar

StartChar: braceleft
Encoding: 123 123 92
Width: 64
GlyphClass: 2
Flags: W
HStem: 0 16<32.875 48> 48 16<0 15.2574> 96 16<32.875 48>
VStem: 16 16<16.875 47 65 95.125>
CounterMasks: 1 e0
LayerCount: 2
Fore
SplineSet
16 80 m 0
 16 104 24 112 48 112 c 1
 48 96 l 1
 32 96 32 96 32 80 c 0
 32 68 30 60 26 56 c 1
 30 52 32 44 32 32 c 0
 32 16 32 16 48 16 c 1
 48 0 l 1
 24 0 16 8 16 32 c 0
 16 48 16 48 0 48 c 1
 0 64 l 1
 16 64 16 64 16 80 c 0
EndSplineSet
Validated: 1
EndChar

StartChar: bar
Encoding: 124 124 93
Width: 32
GlyphClass: 2
Flags: W
HStem: 0 21G<0 16> 92 20G<0 16>
VStem: 0 16<0 112>
LayerCount: 2
Fore
SplineSet
0 112 m 1
 16 112 l 1
 16 0 l 1
 0 0 l 1
 0 112 l 1
EndSplineSet
Validated: 1
EndChar

StartChar: braceright
Encoding: 125 125 94
Width: 64
GlyphClass: 2
Flags: W
HStem: 0 16<0 15.125> 48 16<32.7426 48> 96 16<0 15.125>
VStem: 16 16<16.875 47 65 95.125>
CounterMasks: 1 e0
LayerCount: 2
Fore
SplineSet
32 80 m 0
 32 64 32 64 48 64 c 1
 48 48 l 1
 32 48 32 48 32 32 c 0
 32 8 24 0 0 0 c 1
 0 16 l 1
 16 16 16 16 16 32 c 0
 16 44 18 52 22 56 c 1
 18 60 16 68 16 80 c 0
 16 96 16 96 0 96 c 1
 0 112 l 1
 24 112 32 104 32 80 c 0
EndSplineSet
Validated: 1
EndChar

StartChar: asciitilde
Encoding: 126 126 95
Width: 112
GlyphClass: 2
Flags: W
HStem: 80 16<54.1001 79.1912> 96 16<16.8088 41.8999>
VStem: 0 16<80 95.125> 80 16<96.875 112>
LayerCount: 2
Fore
SplineSet
80 112 m 1x70
 96 112 l 1x70
 96 88 88 80 64 80 c 0xb0
 40 80 48 96 32 96 c 0x70
 16 96 16 96 16 80 c 1
 0 80 l 1xb0
 0 104 8 112 32 112 c 0x70
 56 112 48 96 64 96 c 0xb0
 80 96 80 96 80 112 c 1x70
EndSplineSet
Validated: 1
EndChar

StartChar: exclamdown
Encoding: 161 161 96
Width: 32
GlyphClass: 2
Flags: W
HStem: 0 21G<0 16> 60 20G<0 16> 96 16<0 16>
VStem: 0 16<0 80 96 112>
LayerCount: 2
Fore
SplineSet
16 96 m 1
 0 96 l 1
 0 112 l 1
 16 112 l 1
 16 96 l 1
16 0 m 1
 0 0 l 1
 0 80 l 1
 16 80 l 1
 16 0 l 1
EndSplineSet
Validated: 1
EndChar

StartChar: cent
Encoding: 162 162 97
Width: 96
GlyphClass: 2
Flags: W
HStem: -16 32<32 48> 64 32<32 48>
VStem: 0 16<17.289 62.711> 32 16<-16 0 80 96> 64 16<16.9713 32 48 63.0287>
CounterMasks: 1 38
LayerCount: 2
Fore
SplineSet
32 96 m 1
 48 96 l 1
 48 80 l 1
 72 80 80 70 80 48 c 1
 64 48 l 1
 64 64 64 64 48 64 c 2
 32 64 l 2
 16 64 16 64 16 40 c 0
 16 16 16 16 32 16 c 2
 48 16 l 2
 64 16 64 16 64 32 c 1
 80 32 l 1
 80 10 72 0 48 0 c 1
 48 -16 l 1
 32 -16 l 1
 32 0 l 1
 8 0 0 12 0 40 c 0
 0 68 8 80 32 80 c 1
 32 96 l 1
EndSplineSet
Validated: 1
EndChar

StartChar: sterling
Encoding: 163 163 98
Width: 96
GlyphClass: 2
Flags: W
HStem: 0 16<0 16 32 80> 48 16<0 16 32 64> 80 21G<64 80> 96 16<34.2316 63.1912>
VStem: 16 16<16 48 64 93.8869> 64 16<80 95.125>
LayerCount: 2
Fore
SplineSet
16 48 m 1xdc
 0 48 l 1
 0 64 l 1
 16 64 l 1
 16 104 24 112 48 112 c 0xdc
 72 112 80 104 80 80 c 1
 64 80 l 1xec
 64 96 64 96 48 96 c 0
 32 96 32 96 32 64 c 1
 64 64 l 1
 64 48 l 1
 32 48 l 1
 32 16 l 1
 80 16 l 1
 80 0 l 1
 0 0 l 1
 0 16 l 1
 16 16 l 1
 16 48 l 1xdc
EndSplineSet
Validated: 1
EndChar

StartChar: currency
Encoding: 164 164 99
Width: 128
GlyphClass: 2
Flags: W
HStem: 0 16<0 14.3632 34.2712 77.7288 97.6368 112> 64 16<0 14.3632 34.2712 77.7288 97.6368 112>
VStem: 16 16<18.2329 61.7671> 80 16<18.2329 61.7671>
LayerCount: 2
Fore
SplineSet
56 0 m 0
 32 0 28 4 24 8 c 1
 20 4 16 0 0 0 c 1
 0 16 l 1
 16 16 16 16 16 40 c 0
 16 64 16 64 0 64 c 1
 0 80 l 1
 16 80 20 76 24 72 c 1
 28 76 32 80 56 80 c 0
 80 80 84 76 88 72 c 1
 92 76 96 80 112 80 c 1
 112 64 l 1
 96 64 96 64 96 40 c 0
 96 16 96 16 112 16 c 1
 112 0 l 1
 96 0 92 4 88 8 c 1
 84 4 80 0 56 0 c 0
56 64 m 0
 32 64 32 64 32 40 c 0
 32 16 32 16 56 16 c 0
 80 16 80 16 80 40 c 0
 80 64 80 64 56 64 c 0
EndSplineSet
Validated: 1
EndChar

StartChar: yen
Encoding: 165 165 100
Width: 96
GlyphClass: 2
Flags: W
HStem: 0 21G<32 48> 32 16<0 32 48 80> 64 16<0 24 56 80> 92 20G<0 32.6667 47.3333 80>
VStem: 32 16<0 32 48 64>
LayerCount: 2
Fore
SplineSet
0 112 m 1
 18 112 l 1
 40 82 l 1
 62 112 l 1
 80 112 l 1
 56 80 l 1
 80 80 l 1
 80 64 l 1
 48 64 l 1
 48 48 l 1
 80 48 l 1
 80 32 l 1
 48 32 l 1
 48 0 l 1
 32 0 l 1
 32 32 l 1
 0 32 l 1
 0 48 l 1
 32 48 l 1
 32 64 l 1
 0 64 l 1
 0 80 l 1
 24 80 l 1
 0 112 l 1
EndSplineSet
Validated: 1
EndChar

StartChar: brokenbar
Encoding: 166 166 101
Width: 32
GlyphClass: 2
Flags: W
HStem: 0 21G<0 16> 92 20G<0 16>
VStem: 0 16<0 48 64 112>
LayerCount: 2
Fore
SplineSet
0 48 m 1
 16 48 l 1
 16 0 l 1
 0 0 l 1
 0 48 l 1
0 112 m 1
 16 112 l 1
 16 64 l 1
 0 64 l 1
 0 112 l 1
EndSplineSet
Validated: 1
EndChar

StartChar: section
Encoding: 167 167 102
Width: 96
GlyphClass: 2
Flags: W
HStem: 0 16<0 46.8083> 32 16<16.543 63.7989> 64 16<16.2011 63.457> 96 16<33.1917 80>
VStem: 0 16<48.9854 63.2583 80.7417 94.0969> 64 16<17.9031 31.2583 48.7417 63.0771>
LayerCount: 2
Fore
SplineSet
0 88 m 0
 0 108 8 112 80 112 c 1
 80 96 l 1
 16 96 16 96 16 88 c 0
 16 80 16 80 40 80 c 0
 72 80 80 74 80 56 c 0
 80 48 78 44 72 40 c 1
 78 36 80 32 80 24 c 0
 80 4 72 0 0 0 c 1
 0 16 l 1
 64 16 64 16 64 24 c 0
 64 32 64 32 40 32 c 0
 8 32 0 36 0 56 c 0
 0 64 2 68 8 72 c 1
 2 76 0 80 0 88 c 0
40 48 m 0
 64 48 64 48 64 56 c 0
 64 64 64 64 40 64 c 0
 16 64 16 64 16 56 c 0
 16 48 16 48 40 48 c 0
EndSplineSet
Validated: 1
EndChar

StartChar: dieresis
Encoding: 168 168 103
Width: 64
GlyphClass: 4
Flags: W
HStem: 96 16<0 16 32 48>
VStem: 0 16<96 112> 32 16<96 112>
AnchorPoint: "Anchor-0" 24 80 mark 0
LayerCount: 2
Fore
SplineSet
32 112 m 1
 48 112 l 1
 48 96 l 1
 32 96 l 1
 32 112 l 1
0 112 m 1
 16 112 l 1
 16 96 l 1
 0 96 l 1
 0 112 l 1
EndSplineSet
Validated: 1
EndChar

StartChar: copyright
Encoding: 169 169 104
Width: 128
GlyphClass: 2
Flags: W
HStem: 0 16<37.2869 74.7131> 32 16<48.263 67.9892> 64 16<48.263 67.9892> 96 16<37.2869 74.7131>
VStem: 0 16<37.2869 74.7131> 32 16<48.263 63.737> 64 16<48.2113 52 60 63.7887> 96 16<37.2869 74.7131>
LayerCount: 2
Fore
SplineSet
56 32 m 0
 40 32 32 40 32 56 c 0
 32 72 40 80 56 80 c 0
 72 80 80 72 80 60 c 1
 64 60 l 1
 64 64 64 64 56 64 c 0
 48 64 48 64 48 56 c 0
 48 48 48 48 56 48 c 0
 64 48 64 48 64 52 c 1
 80 52 l 1
 80 40 72 32 56 32 c 0
16 56 m 0
 16 32 32 16 56 16 c 0
 80 16 96 32 96 56 c 0
 96 80 80 96 56 96 c 0
 32 96 16 80 16 56 c 0
0 56 m 0
 0 88 24 112 56 112 c 0
 88 112 112 88 112 56 c 0
 112 24 88 0 56 0 c 0
 24 0 0 24 0 56 c 0
EndSplineSet
Validated: 1
EndChar

StartChar: ordfeminine
Encoding: 170 170 105
Width: 80
GlyphClass: 2
Flags: W
HStem: 16 16<0 64> 48 16<16.1595 48> 72 16<16.1595 48> 96 16<16 46.8811>
VStem: 0 16<64.6169 71.3831> 48 16<64 72 88 94.9141>
LayerCount: 2
Fore
SplineSet
0 32 m 1
 64 32 l 1
 64 16 l 1
 0 16 l 1
 0 32 l 1
16 68 m 0
 16 64 16 64 48 64 c 1
 48 72 l 1
 16 72 16 72 16 68 c 0
16 112 m 1
 56 112 64 104 64 88 c 2
 64 48 l 1
 48 48 l 2
 8 48 0 56 0 68 c 0
 0 80 8 88 48 88 c 1
 48 96 48 96 16 96 c 1
 16 112 l 1
EndSplineSet
Validated: 1
EndChar

StartChar: guillemotleft
Encoding: 171 171 106
Width: 112
GlyphClass: 2
Flags: W
LayerCount: 2
Fore
SplineSet
64 56 m 1
 96 16 l 1
 76 16 l 1
 44 56 l 1
 76 96 l 1
 96 96 l 1
 64 56 l 1
20 56 m 1
 52 16 l 1
 32 16 l 1
 0 56 l 1
 32 96 l 1
 52 96 l 1
 20 56 l 1
EndSplineSet
Validated: 1
EndChar

StartChar: logicalnot
Encoding: 172 172 107
Width: 96
GlyphClass: 2
Flags: W
HStem: 48 16<0 64>
VStem: 64 16<16 48>
LayerCount: 2
Fore
SplineSet
64 48 m 1
 0 48 l 1
 0 64 l 1
 80 64 l 1
 80 16 l 1
 64 16 l 1
 64 48 l 1
EndSplineSet
Validated: 1
EndChar

StartChar: uni00AD
Encoding: 173 173 108
Width: 48
GlyphClass: 2
Flags: W
HStem: 32 16<0 32>
VStem: 0 32<32 48>
LayerCount: 2
Fore
SplineSet
0 48 m 1
 32 48 l 1
 32 32 l 1
 0 32 l 1
 0 48 l 1
EndSplineSet
Validated: 1
EndChar

StartChar: registered
Encoding: 174 174 109
Width: 128
GlyphClass: 2
Flags: W
HStem: 0 16<37.2869 74.7131> 44 16<48 63.2574> 68 16<48 63.9899> 96 16<37.2869 74.7131>
VStem: 0 16<37.2869 74.7131> 32 16<28 44 60 68> 64 16<28 43.0886 60.2076 67.6742> 96 16<37.2869 74.7131>
LayerCount: 2
Fore
SplineSet
16 56 m 0
 16 32 32 16 56 16 c 0
 80 16 96 32 96 56 c 0
 96 80 80 96 56 96 c 0
 32 96 16 80 16 56 c 0
0 56 m 0
 0 88 24 112 56 112 c 0
 88 112 112 88 112 56 c 0
 112 24 88 0 56 0 c 0
 24 0 0 24 0 56 c 0
48 44 m 1
 48 28 l 1
 32 28 l 1
 32 84 l 1
 48 84 l 2
 76 84 80 80 80 64 c 0
 80 56 74 52 64 52 c 1
 74 52 80 52 80 28 c 1
 64 28 l 1
 64 44 64 44 48 44 c 1
48 60 m 1
 64 60 64 60 64 64 c 0
 64 68 64 68 48 68 c 1
 48 60 l 1
EndSplineSet
Validated: 1
EndChar

StartChar: macron
Encoding: 175 175 110
Width: 96
GlyphClass: 2
Flags: W
HStem: 96 16<0 80>
LayerCount: 2
Fore
SplineSet
0 112 m 1
 80 112 l 1
 80 96 l 1
 0 96 l 1
 0 112 l 1
EndSplineSet
Validated: 1
EndChar

StartChar: degree
Encoding: 176 176 111
Width: 64
GlyphClass: 2
Flags: W
HStem: 64 16<16.263 31.737> 96 16<16.263 31.737>
VStem: 0 16<80.263 95.737> 32 16<80.263 95.737>
LayerCount: 2
Fore
SplineSet
16 88 m 0
 16 80 16 80 24 80 c 0
 32 80 32 80 32 88 c 0
 32 96 32 96 24 96 c 0
 16 96 16 96 16 88 c 0
0 88 m 0
 0 104 8 112 24 112 c 0
 40 112 48 104 48 88 c 0
 48 72 40 64 24 64 c 0
 8 64 0 72 0 88 c 0
EndSplineSet
Validated: 1
EndChar

StartChar: plusminus
Encoding: 177 177 112
Width: 96
GlyphClass: 2
Flags: W
HStem: 0 16<0 80> 64 16<0 32 48 80> 92 20G<32 48>
VStem: 32 16<32 64 80 112>
LayerCount: 2
Fore
SplineSet
0 0 m 1
 0 16 l 1
 80 16 l 1
 80 0 l 1
 0 0 l 1
32 112 m 1
 48 112 l 1
 48 80 l 1
 80 80 l 1
 80 64 l 1
 48 64 l 1
 48 32 l 1
 32 32 l 1
 32 64 l 1
 0 64 l 1
 0 80 l 1
 32 80 l 1
 32 112 l 1
EndSplineSet
Validated: 1
EndChar

StartChar: uni00B2
Encoding: 178 178 113
Width: 80
GlyphClass: 2
Flags: W
HStem: 32 16<16 64> 56 16<16.875 47.125> 80 21G<0 16> 96 16<16.7789 47.1912>
VStem: 0 16<48 55.541 80 94.8359> 48 16<72.592 95.1912>
LayerCount: 2
Fore
SplineSet
64 48 m 1xec
 64 32 l 1
 0 32 l 1
 0 48 l 1
 0 64 8 72 32 72 c 0
 48 72 48 72 48 80 c 0xec
 48 96 48 96 32 96 c 0xdc
 16 96 16 96 16 80 c 1
 0 80 l 1xec
 0 112 16 112 32 112 c 0xdc
 56 112 64 104 64 80 c 0
 64 65 56 56 32 56 c 0
 16 56 16 56 16 48 c 1
 64 48 l 1xec
EndSplineSet
EndChar

StartChar: uni00B3
Encoding: 179 179 114
Width: 80
GlyphClass: 2
Flags: W
HStem: 32 16<16.8088 47.4955> 64 16<32 47.8659> 80 21G<0 16> 96 16<16.8088 47.4955>
VStem: 0 16<48.875 64 80 95.125> 48 16<48.4151 63.5332 80.4668 95.5849>
LayerCount: 2
Fore
SplineSet
32 64 m 1xdc
 32 80 l 1
 48 80 48 80 48 88 c 0
 48 96 48 96 32 96 c 0xdc
 16 96 16 96 16 80 c 1
 0 80 l 1xac
 0 104 8 112 32 112 c 0
 56 112 64 104 64 88 c 0
 64 84 62 76 56 72 c 1
 62 68 64 60 64 56 c 0
 64 40 56 32 32 32 c 0
 8 32 0 40 0 64 c 1
 16 64 l 1
 16 48 16 48 32 48 c 0
 48 48 48 48 48 56 c 0
 48 64 48 64 32 64 c 1xdc
EndSplineSet
Validated: 1
EndChar

StartChar: acute
Encoding: 180 180 115
Width: 48
GlyphClass: 2
Flags: W
HStem: 80 32
VStem: 0 32
LayerCount: 2
Fore
SplineSet
32 112 m 1
 16 80 l 1
 0 80 l 1
 16 112 l 1
 32 112 l 1
EndSplineSet
Validated: 1
EndChar

StartChar: uni03BC
Encoding: 956 956 116
AltUni2: 0000b5.ffffffff.0
Width: 96
GlyphClass: 2
Flags: W
HStem: 0 16<16 52.7493> 60 20G<0 16 64 80>
VStem: 0 16<-16 0 16 80> 64 16<33.1917 80>
AnchorPoint: "Anchor-0" 40 80 basechar 0
LayerCount: 2
Fore
SplineSet
0 80 m 1
 16 80 l 1
 16 16 l 1
 64 16 64 16 64 80 c 1
 80 80 l 1
 80 8 72 0 16 0 c 1
 16 -16 l 1
 0 -16 l 1
 0 80 l 1
EndSplineSet
Validated: 1
EndChar

StartChar: paragraph
Encoding: 182 182 117
Width: 112
GlyphClass: 2
Flags: W
HStem: 0 21G<32 48 64 80> 96 16<48 64 80 96>
VStem: 0 48<72.9121 95.541> 32 16<0 64> 64 16<0 96>
LayerCount: 2
Fore
SplineSet
32 64 m 1xd8
 8 64 0 72 0 88 c 0xe8
 0 104 10 112 32 112 c 2
 96 112 l 1
 96 96 l 1
 80 96 l 1
 80 0 l 1
 64 0 l 1
 64 96 l 1
 48 96 l 1
 48 0 l 1
 32 0 l 1
 32 64 l 1xd8
EndSplineSet
Validated: 1
EndChar

StartChar: periodcentered
Encoding: 183 183 118
Width: 32
GlyphClass: 2
Flags: W
HStem: 48 16<0 16>
VStem: 0 16<48 64>
LayerCount: 2
Fore
SplineSet
0 64 m 1
 16 64 l 1
 16 48 l 1
 0 48 l 1
 0 64 l 1
EndSplineSet
Validated: 1
EndChar

StartChar: cedilla
Encoding: 184 184 119
Width: 48
GlyphClass: 2
Flags: W
HStem: -32 16<0 15.125> 0 16<0 15.125>
VStem: 16 16<-15.5849 -0.415146>
LayerCount: 2
Fore
SplineSet
32 -8 m 0
 32 -24 24 -32 0 -32 c 1
 0 -16 l 1
 16 -16 16 -16 16 -8 c 0
 16 0 16 0 0 0 c 1
 0 16 l 1
 24 16 32 8 32 -8 c 0
EndSplineSet
Validated: 1
EndChar

StartChar: uni00B9
Encoding: 185 185 120
Width: 64
GlyphClass: 2
Flags: W
HStem: 32 16<0 16 32 48> 92 20G<6 32>
VStem: 16 16<48 80>
LayerCount: 2
Fore
SplineSet
0 32 m 1
 0 48 l 1
 16 48 l 1
 16 80 l 1
 0 80 l 1
 16 112 l 1
 32 112 l 1
 32 48 l 1
 48 48 l 1
 48 32 l 1
 0 32 l 1
EndSplineSet
Validated: 1
EndChar

StartChar: ordmasculine
Encoding: 186 186 121
Width: 80
GlyphClass: 2
Flags: W
HStem: 16 16<0 64> 48 16<16.8088 47.1912> 96 16<16.8088 47.1912>
VStem: 0 16<64.8088 95.1912> 48 16<64.7885 95.1912>
LayerCount: 2
Fore
SplineSet
0 32 m 1
 64 32 l 1
 64 16 l 1
 0 16 l 1
 0 32 l 1
32 64 m 0
 48 64 48 64 48 80 c 0
 48 96 48 96 32 96 c 0
 16 96 16 96 16 80 c 0
 16 64 16 64 32 64 c 0
32 112 m 0
 56 112 64 104 64 80 c 0
 64 54 56 48 32 48 c 0
 8 48 0 56 0 80 c 0
 0 104 8 112 32 112 c 0
EndSplineSet
Validated: 1
EndChar

StartChar: guillemotright
Encoding: 187 187 122
Width: 112
GlyphClass: 2
Flags: W
LayerCount: 2
Fore
SplineSet
32 56 m 1
 0 96 l 1
 20 96 l 1
 52 56 l 1
 20 16 l 1
 0 16 l 1
 32 56 l 1
76 56 m 1
 44 96 l 1
 64 96 l 1
 96 56 l 1
 64 16 l 1
 44 16 l 1
 76 56 l 1
EndSplineSet
Validated: 1
EndChar

StartChar: onequarter
Encoding: 188 188 123
Width: 128
GlyphClass: 2
Flags: W
HStem: 0 21G<16 45.0714 96 112> 16 16<84 96> 48 16<0 8 24 32> 92 20G<6 24 66.9286 96>
VStem: 0 32<48 64> 8 16<64 80> 96 16<0 16 32 44>
LayerCount: 2
Fore
SplineSet
16 0 m 1xb2
 78 112 l 1
 96 112 l 1
 34 0 l 1
 16 0 l 1xb2
84 32 m 1x72
 96 32 l 1
 96 44 l 1
 84 32 l 1x72
112 64 m 1
 112 0 l 1
 96 0 l 1xb2
 96 16 l 1
 64 16 l 1
 64 32 l 1
 96 64 l 1
 112 64 l 1
0 48 m 1x3a
 0 64 l 1x3a
 8 64 l 1
 8 80 l 1x36
 0 80 l 1x3a
 16 112 l 1
 24 112 l 1
 24 64 l 1x36
 32 64 l 1
 32 48 l 1
 0 48 l 1x3a
EndSplineSet
Validated: 1
EndChar

StartChar: onehalf
Encoding: 189 189 124
Width: 128
GlyphClass: 2
Flags: W
HStem: 0 16<96 112> 48 16<0 8 24 32 72 94.5729> 92 20G<6 24 66.9286 96>
VStem: 0 32<48 64> 8 16<64 80> 96 16<31.3208 46.3004>
LayerCount: 2
Fore
SplineSet
112 16 m 1xe4
 112 0 l 1
 72 0 l 1
 72 16 l 1
 88 28 96 32 96 40 c 0
 96 48 88 48 72 48 c 1
 72 64 l 1
 104 64 112 56 112 40 c 0
 112 28 108 28 96 16 c 1
 112 16 l 1xe4
16 0 m 1
 78 112 l 1
 96 112 l 1
 34 0 l 1
 16 0 l 1
0 48 m 1xf4
 0 64 l 1xf4
 8 64 l 1
 8 80 l 1xec
 0 80 l 1xf4
 16 112 l 1
 24 112 l 1
 24 64 l 1xec
 32 64 l 1
 32 48 l 1
 0 48 l 1xf4
EndSplineSet
Validated: 1
EndChar

StartChar: threequarters
Encoding: 190 190 125
Width: 128
GlyphClass: 2
Flags: W
HStem: 0 21G<16 45.0714 96 112> 16 16<84 96> 48 16<0 31.8405> 72 16<0 31.9999> 96 16<0 31.8405>
VStem: 32 16<64.8193 71.4375 88.5625 95.1807> 96 16<0 16 32 44>
LayerCount: 2
Fore
SplineSet
0 72 m 1x3e
 0 88 l 1
 32 88 32 88 32 92 c 0
 32 96 32 96 0 96 c 1
 0 112 l 1
 40 112 48 108 48 92 c 0
 48 88 46 84 40 80 c 1
 46 76 48 72 48 68 c 0
 48 52 40 48 0 48 c 1
 0 64 l 1
 32 64 32 64 32 68 c 0
 32 72 32 72 0 72 c 1x3e
16 0 m 1xbe
 78 112 l 1
 96 112 l 1
 34 0 l 1
 16 0 l 1xbe
84 32 m 1x7e
 96 32 l 1
 96 44 l 1
 84 32 l 1x7e
112 64 m 1
 112 0 l 1
 96 0 l 1xbe
 96 16 l 1
 64 16 l 1
 64 32 l 1
 96 64 l 1
 112 64 l 1
EndSplineSet
Validated: 1
EndChar

StartChar: questiondown
Encoding: 191 191 126
Width: 96
GlyphClass: 2
Flags: W
HStem: 0 16<17.2705 62.7295> 60 20G<32 48> 96 16<32 48>
VStem: 0 16<17.5737 41.4227> 32 16<70.7575 80 96 112> 64 16<17.6587 32>
CounterMasks: 1 1c
LayerCount: 2
Fore
SplineSet
48 112 m 1
 48 96 l 1
 32 96 l 1
 32 112 l 1
 48 112 l 1
48 80 m 1
 48 56 16 48 16 32 c 0
 16 16 16 16 40 16 c 0
 64 16 64 16 64 32 c 1
 80 32 l 1
 80 8 72 0 40 0 c 0
 8 0 0 8 0 32 c 0
 0 56 32 64 32 80 c 1
 48 80 l 1
EndSplineSet
Validated: 1
EndChar

StartChar: AE
Encoding: 198 198 133
AltUni2: 001d2d.ffffffff.0
Width: 160
GlyphClass: 2
Flags: W
HStem: 0 16<80 144> 64 16<16 64 80 112> 96 16<19.4109 64 80 144>
VStem: 0 16<0 64 80 92.7116> 64 16<16 64 80 96>
AnchorPoint: "Anchor-0" 72 112 basechar 0
LayerCount: 2
Fore
SplineSet
0 0 m 1
 0 80 l 2
 -1.46952762459e-15 104 0 112 64 112 c 2
 144 112 l 1
 144 96 l 1
 80 96 l 1
 80 80 l 1
 112 80 l 1
 112 64 l 1
 80 64 l 1
 80 16 l 1
 144 16 l 1
 144 0 l 1
 80 0 l 1
 64 0 l 1
 64 64 l 1
 16 64 l 1
 16 0 l 1
 0 0 l 1
64 80 m 1
 64 96 l 1
 16 96 16 96 16 80 c 1
 64 80 l 1
EndSplineSet
Validated: 1
EndChar

StartChar: Eth
Encoding: 208 208 143
Width: 112
GlyphClass: 2
Flags: W
HStem: 0 16<32 71.6582> 64 16<0 16 32 48> 96 16<32 71.6582>
VStem: 16 16<16 64 80 96> 80 16<23.054 88.946>
LayerCount: 2
Fore
SplineSet
16 112 m 1
 32 112 l 2
 88 112 96 104 96 56 c 0
 96 8 88 0 32 0 c 2
 16 0 l 1
 16 64 l 1
 0 64 l 1
 0 80 l 1
 16 80 l 1
 16 112 l 1
32 64 m 1
 32 16 l 1
 80 16 80 16 80 56 c 0
 80 96 80 96 32 96 c 1
 32 80 l 1
 48 80 l 1
 48 64 l 1
 32 64 l 1
EndSplineSet
Validated: 1
EndChar

StartChar: multiply
Encoding: 215 215 150
Width: 96
GlyphClass: 2
Flags: W
LayerCount: 2
Fore
SplineSet
0 84 m 1
 12 96 l 1
 40 68 l 1
 68 96 l 1
 80 84 l 1
 52 56 l 1
 80 28 l 1
 68 16 l 1
 40 44 l 1
 12 16 l 1
 0 28 l 1
 28 56 l 1
 0 84 l 1
EndSplineSet
Validated: 1
EndChar

StartChar: Oslash
Encoding: 216 216 151
Width: 96
GlyphClass: 2
Flags: W
HStem: 0 16<32.5335 59.5752> 96 16<20.4248 47.4665>
VStem: 0 16<22.9889 91.4606> 64 16<20.5394 89.0111>
AnchorPoint: "Anchor-0" 40 112 basechar 0
LayerCount: 2
Fore
SplineSet
40 112 m 0
 74 112 80 104 80 56 c 0
 80 8 74 0 40 0 c 0
 6 0 0 8 0 56 c 0
 0 104 6 112 40 112 c 0
40 16 m 2
 64 16 64 16 64 56 c 2
 64 90 l 1
 32 16 l 1
 40 16 l 2
48 96 m 1
 40 96 l 2
 16 96 16 96 16 56 c 2
 16 22 l 1
 48 96 l 1
EndSplineSet
Validated: 1
EndChar

StartChar: Thorn
Encoding: 222 222 157
Width: 96
GlyphClass: 2
Flags: W
HStem: 0 21G<0 16> 32 16<16 62.9069> 64 16<16 62.9069> 92 20G<0 16>
VStem: 0 16<0 32 48 64 80 112> 64 16<49.5742 62.4258>
LayerCount: 2
Fore
SplineSet
16 48 m 1
 64 48 64 48 64 56 c 0
 64 64 64 64 16 64 c 1
 16 48 l 1
0 0 m 1
 0 112 l 1
 16 112 l 1
 16 80 l 1
 74 80 80 72 80 56 c 0
 80 40 74 32 16 32 c 1
 16 0 l 1
 0 0 l 1
EndSplineSet
Validated: 1
EndChar

StartChar: germandbls
Encoding: 223 223 158
Width: 96
GlyphClass: 2
Flags: W
HStem: 0 16<32 60.8574> 64 16<32 61.0228> 96 16<23.6531 63.6279>
VStem: 0 16<-16 28.7241> 64 16<19.3002 60.9299 81.0027 95.0146>
AnchorPoint: "Anchor-0" 40 112 basechar 0
LayerCount: 2
Fore
SplineSet
32 16 m 1
 64 16 64 16 64 40 c 0
 64 64 64 64 32 64 c 1
 32 80 l 1
 64 80 64 80 64 88 c 0
 64 96 64 96 40 96 c 0
 16 96 16 96 16 -16 c 1
 0 -16 l 1
 0 96 0 112 40 112 c 0
 72 112 80 108 80 88 c 0
 80 80 78 76 72 72 c 1
 78 68 80 62 80 40 c 0
 80 4 72 0 32 0 c 9
 32 16 l 1
EndSplineSet
Validated: 1
EndChar

StartChar: ae
Encoding: 230 230 165
Width: 160
GlyphClass: 2
Flags: W
HStem: 0 16<16.8337 64 96.8264 144> 32 16<16.8337 64 80 128> 64 16<16 61.3125 81.2679 126.73>
VStem: 0 16<17.5742 30.4258> 64 16<19.6205 32 48 61.1523> 128 16<48 62.3413>
CounterMasks: 1 fc
AnchorPoint: "Anchor-0" 72 80 basechar 0
LayerCount: 2
Fore
SplineSet
72 72 m 1
 80 80 88 80 104 80 c 0
 136 80 144 72 144 48 c 2
 144 32 l 1
 80 32 l 1
 80 16 80 16 144 16 c 1
 144 0 l 1
 112 0 88 0 80 4 c 1
 80 0 l 1
 64 0 l 2
 8 0 0 8 0 24 c 0
 0 40 8 48 64 48 c 1
 64 64 64 64 16 64 c 1
 16 80 l 1
 56 80 64 80 72 72 c 1
16 24 m 0
 16 16 16 16 64 16 c 1
 64 32 l 1
 16 32 16 32 16 24 c 0
128 48 m 1
 128 64 128 64 104 64 c 0
 80 64 80 64 80 48 c 1
 128 48 l 1
EndSplineSet
Validated: 1
EndChar

StartChar: eth
Encoding: 240 240 175
Width: 96
GlyphClass: 2
Flags: W
HStem: 0 16<16.3738 62.7295> 32 16<16.8337 64> 96 16<16 38.4121>
VStem: 0 16<16.9229 30.4258> 64 16<17.6587 32 48 70.1484>
LayerCount: 2
Fore
SplineSet
0 24 m 0
 0 40 8 48 64 48 c 1
 64 64 60 72 56 76 c 1
 44 64 l 1
 32 76 l 1
 44 88 l 1
 40 92 32 96 16 96 c 1
 16 112 l 1
 40 112 53 104 56 100 c 1
 68 112 l 1
 80 100 l 1
 68 88 l 1
 72 84 80 72 80 48 c 2
 80 32 l 2
 80 8 72 0 40 0 c 0
 6 0 0 6 0 24 c 0
40 16 m 0
 64 16 64 16 64 32 c 1
 16 32 16 32 16 24 c 0
 16 16 16 16 40 16 c 0
EndSplineSet
Validated: 1
EndChar

StartChar: divide
Encoding: 247 247 182
Width: 96
GlyphClass: 2
Flags: W
HStem: 16 16<32 48> 48 16<0 80> 80 16<32 48>
VStem: 32 16<16 32 80 96>
CounterMasks: 1 e0
LayerCount: 2
Fore
SplineSet
32 32 m 1
 48 32 l 1
 48 16 l 1
 32 16 l 1
 32 32 l 1
32 96 m 1
 48 96 l 1
 48 80 l 1
 32 80 l 1
 32 96 l 1
0 64 m 1
 80 64 l 1
 80 48 l 1
 0 48 l 1
 0 64 l 1
EndSplineSet
Validated: 1
EndChar

StartChar: oslash
Encoding: 248 248 183
Width: 96
GlyphClass: 2
Flags: W
HStem: 0 16<32.9318 61.5793> 64 16<18.3394 47.0682>
VStem: 0 16<20.25 61.6606> 64 16<18.4207 59.75>
AnchorPoint: "Anchor-0" 40 80 basechar 0
LayerCount: 2
Fore
SplineSet
40 80 m 0
 72 80 80 72 80 40 c 0
 80 6 74 0 40 0 c 0
 8 0 0 8 0 40 c 0
 0 72 8 80 40 80 c 0
40 16 m 2
 64 16 64 16 64 40 c 2
 64 60 l 1
 32 16 l 1
 40 16 l 2
48 64 m 1
 40 64 l 2
 16 64 16 64 16 40 c 2
 16 20 l 1
 48 64 l 1
EndSplineSet
Validated: 1
EndChar

StartChar: thorn
Encoding: 254 254 189
Width: 96
GlyphClass: 2
Flags: W
HStem: 16 16<16 60.8594> 64 16<16 60.8594> 92 20G<0 16>
VStem: 0 16<-16 16 32 64 80 112> 64 16<35.068 60.932>
LayerCount: 2
Fore
SplineSet
0 112 m 1
 16 112 l 1
 16 80 l 1
 72 80 80 72 80 48 c 0
 80 24 72 16 16 16 c 1
 16 -16 l 1
 0 -16 l 1
 0 112 l 1
16 64 m 1
 16 32 l 1
 64 32 64 32 64 48 c 0
 64 64 64 64 16 64 c 1
EndSplineSet
Validated: 1
EndChar

StartChar: Dcroat
Encoding: 272 272 207
Width: 112
GlyphClass: 2
Flags: W
HStem: 0 16<32 71.6582> 64 16<0 16 32 64> 96 16<32 71.6582>
VStem: 16 16<16 64 80 96> 80 16<23.054 88.946>
LayerCount: 2
Fore
SplineSet
16 112 m 1
 32 112 l 2
 88 112 96 104 96 56 c 0
 96 8 88 0 32 0 c 2
 16 0 l 1
 16 64 l 1
 0 64 l 1
 0 80 l 1
 16 80 l 1
 16 112 l 1
32 64 m 1
 32 16 l 1
 80 16 80 16 80 56 c 0
 80 96 80 96 32 96 c 1
 32 80 l 1
 64 80 l 1
 64 64 l 1
 32 64 l 1
EndSplineSet
Validated: 1
EndChar

StartChar: dcroat
Encoding: 273 273 208
Width: 112
GlyphClass: 2
Flags: W
HStem: 0 16<18.5524 64> 48 16<16.8088 46.4343> 80 16<32 64 80 96> 92 20G<64 80>
VStem: 0 16<19.1199 47.1912> 64 16<16 30.5117 50 80 96 112>
AnchorPoint: "Anchor-0" 72 112 basechar 0
LayerCount: 2
Fore
SplineSet
64 16 m 1xcc
 64 32 48 48 32 48 c 0
 16 48 16 48 16 32 c 0
 16 16 16 16 64 16 c 1xcc
64 80 m 1xec
 32 80 l 1
 32 96 l 1
 64 96 l 1xec
 64 112 l 1
 80 112 l 1xdc
 80 96 l 1
 96 96 l 1
 96 80 l 1
 80 80 l 1
 80 0 l 1
 64 0 l 1
 12 0 0 6 0 32 c 0
 0 56 8 64 32 64 c 0
 44 64 56 58 64 50 c 1
 64 80 l 1xec
EndSplineSet
Validated: 1
EndChar

StartChar: Hbar
Encoding: 294 294 229
Width: 128
GlyphClass: 2
Flags: W
HStem: 0 21G<16 32 80 96> 48 16<32 80> 80 16<0 16 32 80 96 112> 92 20G<16 32 80 96>
VStem: 16 16<0 48 64 80 96 112> 80 16<0 48 64 80 96 112>
AnchorPoint: "Anchor-0" 56 112 basechar 0
LayerCount: 2
Fore
SplineSet
32 80 m 1xec
 32 64 l 1
 80 64 l 1
 80 80 l 1
 32 80 l 1xec
96 80 m 1
 96 0 l 1
 80 0 l 1
 80 48 l 1
 32 48 l 1
 32 0 l 1
 16 0 l 1
 16 80 l 1
 0 80 l 1
 0 96 l 1
 16 96 l 1xec
 16 112 l 1
 32 112 l 1xdc
 32 96 l 1
 80 96 l 1xec
 80 112 l 1
 96 112 l 1xdc
 96 96 l 1
 112 96 l 1
 112 80 l 1
 96 80 l 1
EndSplineSet
Validated: 1
EndChar

StartChar: hbar
Encoding: 295 295 230
Width: 112
GlyphClass: 2
Flags: W
HStem: 0 21G<16 32 80 96> 48 16<46.4334 76.7822> 80 16<0 16 32 64> 92 20G<16 32>
VStem: 16 16<0 36.0844 52 80 96 112> 80 16<0 45.4037>
AnchorPoint: "Anchor-0" 24 112 basechar 0
LayerCount: 2
Fore
SplineSet
64 64 m 0xec
 92 64 96 60 96 0 c 1
 80 0 l 1
 80 48 80 48 64 48 c 0
 48 48 40 40 32 32 c 1
 32 0 l 1
 16 0 l 1
 16 80 l 1
 0 80 l 1
 0 96 l 1
 16 96 l 1xec
 16 112 l 1
 32 112 l 1xdc
 32 96 l 1
 64 96 l 1
 64 80 l 1
 32 80 l 1
 32 52 l 1
 40 56 48 64 64 64 c 0xec
EndSplineSet
Validated: 1
EndChar

StartChar: dotlessi
Encoding: 305 305 240
Width: 32
GlyphClass: 2
Flags: W
HStem: 0 21G<0 16> 60 20G<0 16>
VStem: 0 16<0 80>
AnchorPoint: "Anchor-0" 8 80 basechar 0
LayerCount: 2
Fore
SplineSet
16 80 m 1
 16 0 l 1
 0 0 l 1
 0 80 l 1
 16 80 l 1
EndSplineSet
Validated: 1
EndChar

StartChar: IJ
Encoding: 306 306 241
Width: 96
GlyphClass: 2
Flags: W
HStem: 0 16<17.2705 57.1383> 92 20G<0 16 64 80>
VStem: 0 16<17.6587 32 48 112> 64 16<67.1432 112>
LayerCount: 2
Fore
SplineSet
0 112 m 1
 16 112 l 1
 16 48 l 1
 0 48 l 1
 0 112 l 1
40 0 m 0
 8 0 0 8 0 32 c 1
 16 32 l 1
 16 16 16 16 40 16 c 0
 64 16 64 16 64 112 c 1
 80 112 l 1
 80 10 76 0 40 0 c 0
EndSplineSet
Validated: 1
EndChar

StartChar: ij
Encoding: 307 307 242
Width: 80
GlyphClass: 2
Flags: W
HStem: -16 16<0 35.2771> 60 20G<0 16 48 64> 96 16<0 16 48 64>
VStem: 0 16<20 80 96 112> 48 16<33.75 80 96 112>
LayerCount: 2
Fore
SplineSet
16 96 m 1
 0 96 l 1
 0 112 l 1
 16 112 l 1
 16 96 l 1
16 80 m 1
 16 20 l 1
 0 20 l 1
 0 80 l 1
 16 80 l 1
48 112 m 1
 64 112 l 1
 64 96 l 1
 48 96 l 1
 48 112 l 1
0 -16 m 1
 0 0 l 1
 48 0 48 0 48 80 c 1
 64 80 l 1
 64 0 64 -16 0 -16 c 1
EndSplineSet
Validated: 1
EndChar

StartChar: kgreenlandic
Encoding: 312 312 247
AltUni2: 00043a.ffffffff.0
Width: 80
GlyphClass: 2
Flags: W
HStem: 0 21G<0 16 25.3333 64> 60 20G<0 16 25.3333 64>
VStem: 0 16<0 30 50 80>
LayerCount: 2
Fore
SplineSet
0 80 m 1
 16 80 l 1
 16 50 l 1
 44 80 l 1
 64 80 l 1
 24 40 l 1
 64 0 l 1
 44 0 l 1
 16 30 l 1
 16 0 l 1
 0 0 l 1
 0 80 l 1
EndSplineSet
Validated: 1
EndChar

StartChar: Lslash
Encoding: 321 321 256
Width: 112
GlyphClass: 2
Flags: W
HStem: 0 16<32 96> 60 20G<32 64> 92 20G<16 32>
VStem: 16 16<16 40 64 112>
AnchorPoint: "Anchor-0" 56 112 basechar 0
LayerCount: 2
Fore
SplineSet
16 112 m 1
 32 112 l 1
 32 64 l 1
 64 80 l 1
 64 64 l 1
 32 48 l 1
 32 16 l 1
 96 16 l 1
 96 0 l 1
 16 0 l 1
 16 40 l 1
 0 32 l 1
 0 48 l 1
 16 56 l 1
 16 112 l 1
EndSplineSet
Validated: 1
EndChar

StartChar: lslash
Encoding: 322 322 257
Width: 80
GlyphClass: 2
Flags: W
HStem: 0 16<34.1735 48> 60 20G<32 64> 92 20G<16 32>
VStem: 16 16<17.5959 40 64 112>
AnchorPoint: "Anchor-0" 24 112 basechar 0
LayerCount: 2
Fore
SplineSet
16 112 m 1
 32 112 l 1
 32 64 l 1
 64 80 l 1
 64 64 l 1
 32 48 l 1
 32 16 32 16 48 16 c 1
 48 0 l 1
 16 0 16 16 16 40 c 1
 0 32 l 1
 0 48 l 1
 16 56 l 1
 16 112 l 1
EndSplineSet
Validated: 1
EndChar

StartChar: Eng
Encoding: 330 330 265
Width: 96
GlyphClass: 2
Flags: W
HStem: -16 16<48 61.3831> 0 21G<0 16> 92 20G<0 36 64 80>
VStem: 0 16<0 90> 64 16<2.78864 42 64 112>
AnchorPoint: "Anchor-0" 40 112 basechar 0
LayerCount: 2
Fore
SplineSet
64 64 m 1x78
 64 112 l 1
 80 112 l 1
 80 42 l 2
 80 -8 72 -16 48 -16 c 1
 48 0 l 1xb8
 64 0 64 0 64 42 c 1
 16 90 l 1
 16 0 l 1
 0 0 l 1
 0 112 l 1
 16 112 l 1
 64 64 l 1x78
EndSplineSet
Validated: 1
EndChar

StartChar: eng
Encoding: 331 331 266
AltUni2: 001d51.ffffffff.0
Width: 96
GlyphClass: 2
Flags: W
HStem: -16 16<48 61.5369> 0 21G<0 16> 64 16<16 57.4307>
VStem: 0 16<0 64> 64 16<1.79915 57.928>
LayerCount: 2
Fore
SplineSet
16 64 m 1xb8
 16 0 l 1
 0 0 l 1x78
 0 80 l 1
 16 80 l 2
 76 80 80 72 80 32 c 0
 80 -8 72 -16 48 -16 c 1
 48 0 l 1
 64 0 64 0 64 32 c 0
 64 64 64 64 16 64 c 1xb8
EndSplineSet
Validated: 1
EndChar

StartChar: OE
Encoding: 338 338 273
Width: 160
GlyphClass: 2
Flags: W
HStem: 0 16<24.3418 64 80 144> 64 16<80 112> 96 16<24.3418 64 80 144>
VStem: 0 16<23.4943 88.5057> 64 16<16 64 80 96>
AnchorPoint: "Anchor-1" 72 0 basechar 0
AnchorPoint: "Anchor-0" 72 112 basechar 0
LayerCount: 2
Fore
SplineSet
64 96 m 0
 16 96 16 96 16 56 c 0
 16 16 16 16 64 16 c 0
 64 96 l 0
64 0 m 2
 8 0 0 10 0 56 c 0
 0 102 8 112 64 112 c 2
 144 112 l 1
 144 96 l 1
 80 96 l 1
 80 80 l 1
 112 80 l 1
 112 64 l 1
 80 64 l 1
 80 16 l 1
 144 16 l 1
 144 0 l 1
 64 0 l 2
EndSplineSet
Validated: 1
EndChar

StartChar: oe
Encoding: 339 339 274
Width: 160
GlyphClass: 2
Flags: W
HStem: 0 16<18.2861 62.7321 96.8264 144> 32 16<80 128> 64 16<18.2861 62.7961 81.2679 126.73>
VStem: 0 16<18.2861 61.7139> 64 16<19.6205 32 48 62.5114> 128 16<48 62.3413>
CounterMasks: 1 fc
AnchorPoint: "Anchor-0" 72 80 basechar 0
LayerCount: 2
Fore
SplineSet
64 48 m 1
 64 64 64 64 40 64 c 0
 16 64 16 64 16 40 c 0
 16 16 16 16 40 16 c 0
 64 16 64 16 64 32 c 1
 64 48 l 1
72 8 m 1
 64 0 56 0 40 0 c 0
 8 0 0 8 0 40 c 0
 0 72 8 80 40 80 c 0
 58 80 64 80 72 72 c 1
 80 80 88 80 104 80 c 0
 136 80 144 72 144 48 c 2
 144 32 l 1
 80 32 l 1
 80 16 80 16 144 16 c 1
 144 0 l 1
 88 0 80 0 72 8 c 1
128 48 m 1
 128 64 128 64 104 64 c 0
 80 64 80 64 80 48 c 1
 128 48 l 1
EndSplineSet
Validated: 1
EndChar

StartChar: Tbar
Encoding: 358 358 293
Width: 96
GlyphClass: 2
Flags: W
HStem: 0 21G<32 48> 64 16<16 32 48 64> 96 16<0 32 48 80>
VStem: 32 16<0 64 80 96>
AnchorPoint: "Anchor-0" 40 112 basechar 0
LayerCount: 2
Fore
SplineSet
0 112 m 1
 80 112 l 1
 80 96 l 1
 48 96 l 1
 48 80 l 1
 64 80 l 1
 64 64 l 1
 48 64 l 1
 48 0 l 1
 32 0 l 1
 32 64 l 1
 16 64 l 1
 16 80 l 1
 32 80 l 1
 32 96 l 1
 0 96 l 1
 0 112 l 1
EndSplineSet
Validated: 1
EndChar

StartChar: tbar
Encoding: 359 359 294
Width: 64
GlyphClass: 2
Flags: W
HStem: 0 16<32.875 48> 32 16<0 16 32 48> 64 16<0 16 32 48> 92 20G<16 32>
VStem: 0 48<32 48 64 80> 16 16<16.875 32 48 64 80 112>
AnchorPoint: "Anchor-0" 24 112 basechar 0
LayerCount: 2
Fore
SplineSet
16 32 m 1xf4
 0 32 l 1
 0 48 l 1xf8
 16 48 l 1
 16 64 l 1xf4
 0 64 l 1
 0 80 l 1xf8
 16 80 l 1
 16 112 l 1
 32 112 l 1
 32 80 l 1xf4
 48 80 l 1
 48 64 l 1xf8
 32 64 l 1
 32 48 l 1xf4
 48 48 l 1
 48 32 l 1xf8
 32 32 l 1xf4
 32 16 32 16 48 16 c 1
 48 0 l 1xf8
 24 0 16 8 16 32 c 1xf4
EndSplineSet
Validated: 1
EndChar

StartChar: longs
Encoding: 383 383 318
Width: 64
GlyphClass: 2
Flags: W
HStem: 0 21G<0 16> 96 16<25.7461 48>
VStem: 0 16<0 45.9844>
AnchorPoint: "Anchor-0" 24 112 basechar 0
LayerCount: 2
Fore
SplineSet
0 0 m 1
 0 96 0 112 48 112 c 1
 48 96 l 1
 16 96 16 96 16 0 c 1
 0 0 l 1
EndSplineSet
Validated: 1
EndChar

StartChar: uni0180
Encoding: 384 384 319
Width: 112
GlyphClass: 2
Flags: W
HStem: 0 16<32 77.4476> 48 16<49.5657 79.1912> 80 16<0 16 32 64> 92 20G<16 32>
VStem: 16 16<16 30.5117 50 80 96 112> 80 16<19.1199 47.1912>
AnchorPoint: "Anchor-0" 24 112 basechar 0
LayerCount: 2
Fore
SplineSet
32 16 m 1xcc
 80 16 80 16 80 32 c 0
 80 48 80 48 64 48 c 0
 48 48 32 32 32 16 c 1xcc
32 80 m 1xec
 32 50 l 1
 40 58 52 64 64 64 c 0
 88 64 96 56 96 32 c 0
 96 6 84 0 32 0 c 1
 16 0 l 1
 16 80 l 1
 0 80 l 1
 0 96 l 1
 16 96 l 1xec
 16 112 l 1
 32 112 l 1xdc
 32 96 l 1
 64 96 l 1
 64 80 l 1
 32 80 l 1xec
EndSplineSet
Validated: 1
EndChar

StartChar: uni0181
Encoding: 385 385 320
Width: 128
GlyphClass: 2
Flags: W
HStem: 0 16<48 91.5342> 64 16<48 91.5342> 80 21G<0 16> 96 16<16.875 32 48 95.1663>
VStem: 0 16<80 95.125> 32 16<16 64 80 96> 96 16<20.4736 59.7789 81.4868 94.2901>
LayerCount: 2
Fore
SplineSet
48 112 m 2x9e
 104 112 112 108 112 88 c 0
 112 80 110 76 104 72 c 1
 110 68 112 62 112 40 c 0
 112 4 104 0 48 0 c 2
 32 0 l 1
 32 96 l 1x9e
 16 96 16 96 16 80 c 1
 0 80 l 1xae
 0 104 8 112 32 112 c 2
 48 112 l 2x9e
48 80 m 1xde
 96 80 96 80 96 88 c 0
 96 96 96 96 48 96 c 1
 48 80 l 1xde
48 16 m 1
 96 16 96 16 96 40 c 0
 96 64 96 64 48 64 c 1
 48 16 l 1
EndSplineSet
Validated: 1
EndChar

StartChar: uni0182
Encoding: 386 386 321
Width: 96
GlyphClass: 2
Flags: W
HStem: 0 16<16 59.5342> 64 16<16 59.5342> 96 16<16 80>
VStem: 0 16<16 64 80 96> 64 16<20.4736 59.5264>
LayerCount: 2
Fore
SplineSet
16 0 m 2
 0 0 l 1
 0 112 l 1
 80 112 l 1
 80 96 l 1
 16 96 l 1
 16 80 l 1
 72 80 80 76 80 40 c 1
 80 4 72 -6.85779558141e-15 16 0 c 2
16 64 m 1
 16 16 l 1
 64 16 64 16 64 40 c 1
 64 64 64 64 16 64 c 1
EndSplineSet
Validated: 1
EndChar

StartChar: uni0183
Encoding: 387 387 322
Width: 96
GlyphClass: 2
Flags: W
HStem: 0 16<16 58.749> 64 16<32.9482 62.4263> 96 16<16 80>
VStem: 0 16<16 43.3281 64 96> 64 16<20.3481 62.7295>
AnchorPoint: "Anchor-0" 8 112 basechar 0
LayerCount: 2
Fore
SplineSet
16 64 m 1
 24 74 34 80 48 80 c 0
 72 80 80 72 80 40 c 0
 80 6 70 0 16 0 c 2
 0 0 l 1
 0 112 l 1
 80 112 l 1
 80 96 l 1
 16 96 l 1
 16 64 l 1
16 16 m 1
 64 16 64 16 64 40 c 0
 64 64 64 64 48 64 c 0
 28 64 16 48 16 16 c 1
EndSplineSet
Validated: 1
EndChar

StartChar: uni0184
Encoding: 388 388 323
Width: 112
GlyphClass: 2
Flags: W
HStem: 0 16<32 76.8594> 48 16<32 76.8594> 92 20G<6 32>
VStem: 16 16<16 48 64 80> 80 16<19.068 44.932>
LayerCount: 2
Fore
SplineSet
32 112 m 1
 32 64 l 1
 88 64 96 56 96 32 c 0
 96 8 88 0 32 0 c 2
 16 0 l 1
 16 80 l 1
 0 80 l 1
 16 112 l 1
 32 112 l 1
80 32 m 0
 80 48 80 48 32 48 c 1
 32 16 l 1
 80 16 80 16 80 32 c 0
EndSplineSet
Validated: 1
EndChar

StartChar: uni0185
Encoding: 389 389 324
Width: 112
GlyphClass: 2
Flags: W
HStem: 0 16<32 74.749> 64 16<48.9482 78.4263> 92 20G<6 32>
VStem: 16 16<16 43.3281 64 80> 80 16<20.3481 62.7295>
LayerCount: 2
Fore
SplineSet
32 64 m 1
 40 74 50 80 64 80 c 0
 88 80 96 72 96 40 c 0
 96 6 86 0 32 0 c 2
 16 0 l 1
 16 80 l 1
 0 80 l 1
 16 112 l 1
 32 112 l 1
 32 64 l 1
32 16 m 1
 80 16 80 16 80 40 c 0
 80 64 80 64 64 64 c 0
 44 64 32 48 32 16 c 1
EndSplineSet
Validated: 1
EndChar

StartChar: uni0186
Encoding: 390 390 325
Width: 96
GlyphClass: 2
Flags: W
HStem: 0 16<17.2705 60.0758> 80 21G<0 16> 96 16<17.2705 60.0758>
VStem: 0 16<17.6587 32 80 94.3413> 64 16<20.1304 91.8696>
AnchorPoint: "Anchor-0" 40 112 basechar 0
LayerCount: 2
Fore
SplineSet
40 0 m 0xb8
 8 0 0 8 0 32 c 1
 16 32 l 1
 16 16 16 16 40 16 c 0
 64 16 64 16 64 56 c 0
 64 96 64 96 40 96 c 0xb8
 16 96 16 96 16 80 c 1
 0 80 l 1xd8
 0 104 8 112 40 112 c 0
 72 112 80 104 80 56 c 0
 80 8 72 0 40 0 c 0xb8
EndSplineSet
Validated: 1
EndChar

StartChar: uni0187
Encoding: 391 391 326
Width: 112
GlyphClass: 2
Flags: W
HStem: 0 16<19.9242 62.7295> 80 21G<64 80> 96 16<20.25 62.8861> 128 16<80.875 96>
VStem: 0 16<20.1304 91.8696> 64 16<17.6587 32 80 94.3632 112.744 127.541>
AnchorPoint: "Anchor-0" 40 112 basechar 0
LayerCount: 2
Fore
SplineSet
40 0 m 0xbc
 8 0 0 8 0 56 c 0
 0 104 8 112 40 112 c 0xbc
 64 112 64 112 64 120 c 0
 64 136 72 144 96 144 c 1
 96 128 l 1
 80 128 80 128 80 120 c 0
 80 112 80 108 76 104 c 1
 80 100 80 96 80 80 c 1
 64 80 l 1xdc
 64 96 64 96 40 96 c 0
 16 96 16 96 16 56 c 0
 16 16 16 16 40 16 c 0
 64 16 64 16 64 32 c 1
 80 32 l 1
 80 8 72 0 40 0 c 0xbc
EndSplineSet
Validated: 1
EndChar

StartChar: uni0188
Encoding: 392 392 327
Width: 112
GlyphClass: 2
Flags: W
HStem: 0 16<18.2861 62.7295> 64 16<18.3394 62.8861> 96 16<80.875 96>
VStem: 0 16<18.2861 61.7139> 64 16<17.6587 32 48 62.3632 80.7443 95.541>
AnchorPoint: "Anchor-0" 40 80 basechar 0
LayerCount: 2
Fore
SplineSet
80 48 m 1
 64 48 l 1
 64 64 64 64 40 64 c 0
 16 64 16 64 16 40 c 0
 16 16 16 16 40 16 c 0
 64 16 64 16 64 32 c 1
 80 32 l 1
 80 8 72 0 40 0 c 0
 8 0 0 8 0 40 c 0
 0 72 8 80 40 80 c 0
 64 80 64 80 64 88 c 0
 64 104 72 112 96 112 c 1
 96 96 l 1
 80 96 80 96 80 88 c 0
 80 80 80 76 76 72 c 1
 80 68 80 64 80 48 c 1
EndSplineSet
Validated: 1
EndChar

StartChar: uni0189
Encoding: 393 393 328
Width: 112
GlyphClass: 2
Flags: W
HStem: 0 16<32 71.6582> 64 16<0 16 32 48> 96 16<32 71.6582>
VStem: 16 16<16 64 80 96> 80 16<23.054 88.946>
LayerCount: 2
Fore
SplineSet
16 112 m 1
 32 112 l 2
 88 112 96 104 96 56 c 0
 96 8 88 0 32 0 c 2
 16 0 l 1
 16 64 l 1
 0 64 l 1
 0 80 l 1
 16 80 l 1
 16 112 l 1
32 64 m 1
 32 16 l 1
 80 16 80 16 80 56 c 0
 80 96 80 96 32 96 c 1
 32 80 l 1
 48 80 l 1
 48 64 l 1
 32 64 l 1
EndSplineSet
Validated: 1
EndChar

StartChar: uni018A
Encoding: 394 394 329
Width: 128
GlyphClass: 2
Flags: W
HStem: 0 16<48 87.6582> 80 21G<0 16> 96 16<16.875 32 48 87.6582>
VStem: 0 16<80 95.125> 32 16<16 96> 96 16<23.054 88.946>
AnchorPoint: "Anchor-0" 72 112 basechar 0
LayerCount: 2
Fore
SplineSet
48 96 m 1xbc
 48 16 l 1
 96 16 96 16 96 56 c 0
 96 96 96 96 48 96 c 1xbc
32 96 m 1
 16 96 16 96 16 80 c 1
 0 80 l 1xdc
 0 104 8 112 32 112 c 2
 48 112 l 2
 104 112 112 104 112 56 c 0
 112 8 104 0 48 0 c 2
 32 0 l 1
 32 96 l 1
EndSplineSet
Validated: 1
EndChar

StartChar: uni018B
Encoding: 395 395 330
Width: 96
GlyphClass: 2
Flags: W
HStem: 0 16<20.4658 64> 64 16<20.4658 64> 96 16<0 64>
VStem: 0 16<20.4736 59.5264> 64 16<16 64 80 96>
LayerCount: 2
Fore
SplineSet
64 0 m 2
 8 -0 0 4 0 40 c 1
 0 76 8 80 64 80 c 1
 64 96 l 1
 0 96 l 1
 0 112 l 1
 80 112 l 1
 80 0 l 1
 64 0 l 2
64 64 m 1
 16 64 16 64 16 40 c 1
 16 16 16 16 64 16 c 1
 64 64 l 1
EndSplineSet
Validated: 1
EndChar

StartChar: uni018C
Encoding: 396 396 331
Width: 96
GlyphClass: 2
Flags: W
HStem: 0 16<21.251 64> 64 16<17.5737 47.0518> 96 16<0 64>
VStem: 0 16<20.3481 62.7295> 64 16<16 43.3281 64 96>
AnchorPoint: "Anchor-0" 72 112 basechar 0
LayerCount: 2
Fore
SplineSet
64 64 m 1
 64 96 l 1
 0 96 l 1
 0 112 l 1
 80 112 l 1
 80 0 l 1
 64 0 l 2
 10 0 0 6 0 40 c 0
 0 72 8 80 32 80 c 0
 46 80 56 74 64 64 c 1
64 16 m 1
 64 48 52 64 32 64 c 0
 16 64 16 64 16 40 c 0
 16 16 16 16 64 16 c 1
EndSplineSet
Validated: 1
EndChar

StartChar: uni018D
Encoding: 397 397 332
Width: 96
GlyphClass: 2
Flags: W
HStem: -16 16<16 46.8811> 80 16<17.2705 62.7295>
VStem: 0 16<49.5607 78.4263> 48 16<1.04297 13.9131> 64 16<49.5949 78.4263>
LayerCount: 2
Fore
SplineSet
40 32 m 1xe8
 52 40 64 48 64 64 c 0
 64 80 64 80 40 80 c 0
 16 80 16 80 16 64 c 0
 16 48 28 40 40 32 c 1xe8
40 16 m 2
 26 24 l 2
 9.2001953125 33.599609375 0 45 0 64 c 0
 0 88 8 96 40 96 c 0
 72 96 80 88 80 64 c 0xe8
 80 45 70 34 54 24 c 1
 60 20 64 14 64 8 c 0
 64 -8 56 -16 16 -16 c 1
 16 0 l 1
 48 0 48 0 48 8 c 0xf0
 48 12 48 12 40 16 c 2
EndSplineSet
Validated: 1
EndChar

StartChar: uni018E
Encoding: 398 398 333
AltUni2: 001d32.ffffffff.0
Width: 96
GlyphClass: 2
Flags: W
HStem: 0 16<0 64> 64 16<32 64> 96 16<0 64>
VStem: 64 16<16 64 80 96>
AnchorPoint: "Anchor-0" 40 112 basechar 0
LayerCount: 2
Fore
SplineSet
80 112 m 1
 80 0 l 1
 0 0 l 1
 0 16 l 1
 64 16 l 1
 64 64 l 1
 32 64 l 1
 32 80 l 1
 64 80 l 1
 64 96 l 1
 0 96 l 1
 0 112 l 1
 80 112 l 1
EndSplineSet
Validated: 1
EndChar

StartChar: uni018F
Encoding: 399 399 334
Width: 96
GlyphClass: 2
Flags: W
HStem: 0 16<19.1401 60.8599> 48 16<16 64> 80 21G<0 16> 96 16<17.2705 60.8599>
VStem: 0 16<19.1426 48 80 94.3413> 64 16<19.1426 48 64 92.8574>
LayerCount: 2
Fore
SplineSet
80 48 m 2xdc
 80 8 72 0 40 0 c 0
 8 0 0 8 0 48 c 2
 0 64 l 1
 64 64 l 1
 64 96 64 96 40 96 c 0xdc
 16 96 16 96 16 80 c 1
 0 80 l 1xec
 0 104 8 112 40 112 c 0
 72 112 80 104 80 64 c 2
 80 48 l 2xdc
16 48 m 1
 16 16 16 16 40 16 c 0
 64 16 64 16 64 48 c 1
 16 48 l 1
EndSplineSet
Validated: 1
EndChar

StartChar: uni0190
Encoding: 400 400 335
Width: 96
GlyphClass: 2
Flags: W
HStem: 0 16<33.1917 80> 64 16<18.9772 48> 96 16<33.1917 80>
VStem: 0 16<21.6098 60.9299 81.0027 94.0969>
LayerCount: 2
Fore
SplineSet
80 96 m 1
 16 96 16 96 16 88 c 0
 16 80 16 80 48 80 c 1
 48 64 l 1
 16 64 16 64 16 40 c 0
 16 16 16 16 80 16 c 1
 80 0 l 1
 8 0 0 4 0 40 c 0
 0 62 2 68 8 72 c 1
 2 76 0 80 0 88 c 0
 0 108 8 112 80 112 c 1
 80 96 l 1
EndSplineSet
Validated: 1
EndChar

StartChar: uni0191
Encoding: 401 401 336
Width: 112
GlyphClass: 2
Flags: W
HStem: -16 16<0 11.6906> 64 16<32 64> 96 16<32 96>
VStem: 16 16<17.0859 64 80 96>
LayerCount: 2
Fore
SplineSet
16 112 m 1
 96 112 l 1
 96 96 l 1
 32 96 l 1
 32 80 l 1
 64 80 l 1
 64 64 l 1
 32 64 l 1
 32 0 32 -16 0 -16 c 1
 0 0 l 1
 16 0 16 0 16 64 c 2
 16 112 l 1
EndSplineSet
Validated: 1
EndChar

StartChar: florin
Encoding: 402 402 337
Width: 96
GlyphClass: 2
Flags: W
HStem: -16 16<16.4151 30.4258> 48 16<16 32 48 64> 80 21G<64 80> 96 16<49.043 63.5849>
VStem: 0 16<0.875 16> 32 16<0.83374 48 64 94.8811> 64 16<80 95.125>
CounterMasks: 1 0e
LayerCount: 2
Fore
SplineSet
48 48 m 1xde
 48 -8 40 -16 24 -16 c 0
 8 -16 0 -8 0 16 c 1
 16 16 l 1
 16 0 16 0 24 0 c 0
 32 0 32 0 32 48 c 1
 16 48 l 1
 16 64 l 1
 32 64 l 1
 32 104 40 112 56 112 c 0xde
 72 112 80 104 80 80 c 1
 64 80 l 1xee
 64 96 64 96 56 96 c 0
 48 96 48 96 48 64 c 1
 64 64 l 1
 64 48 l 1
 48 48 l 1xde
EndSplineSet
Validated: 1
EndChar

StartChar: uni0193
Encoding: 403 403 338
Width: 112
GlyphClass: 2
Flags: W
HStem: 0 16<20.0116 59.6519> 64 16<48 64> 96 16<23.8545 64> 128 16<80.875 96>
VStem: 0 16<19.9948 88.7362> 48 32<64 80> 64 16<21.251 64 112 127.125>
AnchorPoint: "Anchor-1" 40 0 basechar 0
AnchorPoint: "Anchor-0" 40 112 basechar 0
LayerCount: 2
Fore
SplineSet
40 0 m 0xfc
 6 0 0 10 0 56 c 0
 0 106 10 112 64 112 c 1
 64 136 72 144 96 144 c 1
 96 128 l 1
 80 128 80 128 80 112 c 1
 80 96 l 1
 64 96 l 2
 16 96 16 96 16 56 c 0
 16 16 16 16 40 16 c 0
 64 16 64 16 64 64 c 1xfa
 48 64 l 1
 48 80 l 1
 80 80 l 1
 80 64 l 2
 80 10 74 0 40 0 c 0xfc
EndSplineSet
Validated: 1
EndChar

StartChar: uni0194
Encoding: 404 404 339
Width: 96
GlyphClass: 2
Flags: W
HStem: -16 16<32.263 47.737> 92 20G<0 24 56 80>
VStem: 16 16<0.263016 20.4876> 48 16<0.263016 20.4876>
AnchorPoint: "Anchor-0" 40 80 basechar 0
LayerCount: 2
Fore
SplineSet
32 8 m 0
 32 0 32 0 40 0 c 0
 48 0 48 0 48 8 c 0
 48 14 42 24 40 28 c 1
 38 24 32 14 32 8 c 0
0 112 m 1
 16 112 l 1
 40 52 l 1
 64 112 l 1
 80 112 l 1
 50 40 l 1
 57 29 64 14 64 8 c 0
 64 -8 56 -16 40 -16 c 0
 24 -16 16 -8 16 8 c 0
 16 14 23 29 30 40 c 1
 0 112 l 1
EndSplineSet
Validated: 1
EndChar

StartChar: uni0195
Encoding: 405 405 340
Width: 144
GlyphClass: 2
Flags: W
HStem: 0 16<81.6533 108.122> 64 16<33.5122 62.5007> 92 20G<0 16>
VStem: 0 16<0 38.3243 64 112> 64 16<18.1223 62.4033> 112 16<33.1917 80>
AnchorPoint: "Anchor-0" 8 112 basechar 0
LayerCount: 2
Fore
SplineSet
16 64 m 1
 24 74 34 80 48 80 c 0
 72 80 80 72 80 42 c 0
 80 16 80 16 96 16 c 0
 112 16 112 16 112 80 c 1
 128 80 l 1
 128 8 120 0 96 0 c 0
 72 0 64 8 64 42 c 0
 64 64 64 64 48 64 c 0
 26 64 16 44 16 0 c 1
 0 0 l 1
 0 112 l 1
 16 112 l 1
 16 64 l 1
EndSplineSet
Validated: 1
EndChar

StartChar: uni0196
Encoding: 406 406 341
Width: 64
GlyphClass: 2
Flags: W
HStem: 0 16<36.3094 48> 96 16<0 16 32 48>
VStem: 16 16<49.75 96>
AnchorPoint: "Anchor-0" 24 112 basechar 0
LayerCount: 2
Fore
SplineSet
0 96 m 1
 0 112 l 1
 48 112 l 1
 48 96 l 1
 32 96 l 1
 32 16 32 16 48 16 c 1
 48 0 l 1
 16 0 16 8 16 96 c 1
 0 96 l 1
EndSplineSet
Validated: 1
EndChar

StartChar: uni0197
Encoding: 407 407 342
Width: 64
GlyphClass: 2
Flags: W
HStem: 0 16<0 16 32 48> 48 16<0 16 32 48> 96 16<0 16 32 48>
VStem: 0 48<0 16 48 64 96 112> 16 16<16 48 64 96>
CounterMasks: 1 e0
AnchorPoint: "Anchor-0" 24 112 basechar 0
LayerCount: 2
Fore
SplineSet
0 112 m 1xf0
 48 112 l 1
 48 96 l 1xf0
 32 96 l 1
 32 64 l 1xe8
 48 64 l 1
 48 48 l 1xf0
 32 48 l 1
 32 16 l 1xe8
 48 16 l 1
 48 0 l 1
 0 0 l 1
 0 16 l 1xf0
 16 16 l 1
 16 48 l 1xe8
 0 48 l 1
 0 64 l 1xf0
 16 64 l 1
 16 96 l 1xe8
 0 96 l 1
 0 112 l 1xf0
EndSplineSet
Validated: 1
EndChar

StartChar: uni0198
Encoding: 408 408 343
Width: 96
GlyphClass: 2
Flags: W
HStem: 0 21G<0 16 64 80> 64 16<16 39.2031> 96 16<16.875 32>
VStem: 0 16<0 64 80 95.125> 64 16<0 33.2622 98.856 112>
AnchorPoint: "Anchor-0" 40 112 basechar 0
LayerCount: 2
Fore
SplineSet
16 64 m 1
 16 0 l 1
 0 0 l 1
 0 80 l 2
 0 104 8 112 32 112 c 1
 32 96 l 1
 16 96 16 96 16 80 c 1
 48 80 64 96 64 112 c 1
 80 112 l 1
 80 96 70 80 48 72 c 1
 70 61 80 37 80 0 c 1
 64 0 l 1
 64 48 48 64 16 64 c 1
EndSplineSet
Validated: 1
EndChar

StartChar: uni0199
Encoding: 409 409 344
Width: 80
GlyphClass: 2
Flags: W
HStem: 0 21G<0 16 24 64> 60 20G<24 64> 96 16<19.2217 32>
VStem: 0 16<0 28 52 93.2519>
AnchorPoint: "Anchor-0" 40 112 basechar 0
LayerCount: 2
Fore
SplineSet
16 52 m 1
 44 80 l 1
 64 80 l 1
 24 40 l 1
 64 0 l 1
 44 0 l 1
 16 28 l 1
 16 0 l 1
 0 0 l 1
 0 50 l 2
 -2.81659461379e-15 96 0 112 32 112 c 1
 32 96 l 1
 16 96 16 96 16 52 c 1
EndSplineSet
Validated: 1
EndChar

StartChar: uni019A
Encoding: 410 410 345
Width: 64
GlyphClass: 2
Flags: W
HStem: 0 16<34.1735 48> 48 16<0 16 32 48> 92 20G<16 32>
VStem: 16 16<17.8242 48 64 112>
LayerCount: 2
Fore
SplineSet
16 112 m 1
 32 112 l 1
 32 64 l 1
 48 64 l 1
 48 48 l 1
 32 48 l 1
 32 16 32 16 48 16 c 1
 48 0 l 1
 16 0 16 16 16 48 c 1
 0 48 l 1
 0 64 l 1
 16 64 l 1
 16 112 l 1
EndSplineSet
Validated: 1
EndChar

StartChar: uni019B
Encoding: 411 411 346
Width: 96
GlyphClass: 2
Flags: W
HStem: 0 21G<0 25.5862 54.4138 80> 64 16<16 26 54 64> 96 16<0 24.7691>
AnchorPoint: "Anchor-0" 40 112 basechar 0
LayerCount: 2
Fore
SplineSet
16 64 m 1
 16 80 l 1
 32 80 l 1
 24 96 24 96 0 96 c 1
 0 112 l 1
 32 112 37 109 48 80 c 1
 64 80 l 1
 64 64 l 1
 54 64 l 1
 80 0 l 1
 62 0 l 1
 40 58 l 1
 18 0 l 1
 0 0 l 1
 26 64 l 1
 16 64 l 1
EndSplineSet
Validated: 1
EndChar

StartChar: uni019C
Encoding: 412 412 347
Width: 96
GlyphClass: 2
Flags: W
HStem: 0 16<18.532 30.1809 51.7686 64> 60 20G<32 48> 92 20G<0 16 64 80>
VStem: 0 16<64.5782 112> 32 16<32.8264 80> 64 16<16 112>
CounterMasks: 1 1c
AnchorPoint: "Anchor-1" 40 0 basechar 0
AnchorPoint: "Anchor-0" 40 112 basechar 0
LayerCount: 2
Fore
SplineSet
64 16 m 1
 64 112 l 1
 80 112 l 1
 80 0 l 1
 64 0 l 2
 52 0 44 2 40 8 c 1
 36 2 32 0 24 0 c 0
 0 0 0 12 0 112 c 1
 16 112 l 1
 16 16 16 16 24 16 c 0
 32 16 32 16 32 80 c 1
 48 80 l 1
 48 16 48 16 64 16 c 1
EndSplineSet
Validated: 1
EndChar

StartChar: uni019D
Encoding: 413 413 348
Width: 112
GlyphClass: 2
Flags: W
HStem: -16 16<0 11.6906> 0 21G<80 96> 92 20G<16 52 80 96>
VStem: 16 16<43.8298 90> 80 16<0 42 64 112>
AnchorPoint: "Anchor-0" 56 112 basechar 0
LayerCount: 2
Fore
SplineSet
80 64 m 1xb8
 80 112 l 1
 96 112 l 1
 96 0 l 1
 80 0 l 1x78
 80 42 l 1
 32 90 l 1
 32 0 32 -16 0 -16 c 1
 0 0 l 1
 16 0 16 0 16 90 c 2
 16 112 l 1
 32 112 l 1
 80 64 l 1xb8
EndSplineSet
Validated: 1
EndChar

StartChar: uni019E
Encoding: 414 414 349
Width: 96
GlyphClass: 2
Flags: W
HStem: 0 21G<0 16> 64 16<16 51.2771>
VStem: 0 16<0 64> 64 16<-16 30.25>
LayerCount: 2
Fore
SplineSet
16 64 m 1
 16 0 l 1
 0 0 l 1
 0 80 l 1
 16 80 l 2
 80 80 80 64 80 -16 c 1
 64 -16 l 1
 64 64 64 64 16 64 c 1
EndSplineSet
Validated: 1
EndChar

StartChar: uni019F
Encoding: 415 415 350
Width: 96
GlyphClass: 2
Flags: W
HStem: 0 16<19.2031 60.7969> 48 16<16 64> 96 16<19.2031 60.7969>
VStem: 0 16<19.1426 48 64 92.8574> 64 16<19.1426 48 64 92.8574>
CounterMasks: 1 e0
AnchorPoint: "Anchor-0" 40 112 basechar 0
LayerCount: 2
Fore
SplineSet
0 64 m 1
 0 104 6 112 40 112 c 0
 74 112 80 104 80 64 c 1
 80 48 l 1
 80 8 74 0 40 0 c 0
 6 0 0 8 0 48 c 1
 0 64 l 1
64 48 m 1
 16 48 l 1
 16 16 16 16 40 16 c 0
 64 16 64 16 64 48 c 1
64 64 m 1
 64 96 64 96 40 96 c 0
 16 96 16 96 16 64 c 1
 64 64 l 1
EndSplineSet
Validated: 1
EndChar

StartChar: uni01A2
Encoding: 418 418 353
Width: 128
GlyphClass: 2
Flags: W
HStem: 0 16<24.3418 64> 96 16<24.3418 64 80 96>
VStem: 0 16<23.054 88.946> 64 16<16 96> 96 16<-16 96>
AnchorPoint: "Anchor-0" 40 112 basechar 0
LayerCount: 2
Fore
SplineSet
64 96 m 1
 16 96 16 96 16 56 c 0
 16 16 16 16 64 16 c 1
 64 96 l 1
80 96 m 1
 80 0 l 1
 64 0 l 2
 8 0 0 8 0 56 c 0
 0 104 8 112 64 112 c 2
 112 112 l 1
 112 -16 l 1
 96 -16 l 1
 96 96 l 1
 80 96 l 1
EndSplineSet
Validated: 1
EndChar

StartChar: uni01A3
Encoding: 419 419 354
Width: 128
GlyphClass: 2
Flags: W
HStem: 0 16<20.4658 64> 64 16<20.4658 64 80 96>
VStem: 0 16<20.2607 59.7393> 64 16<16 64> 96 16<-16 64>
AnchorPoint: "Anchor-0" 40 80 basechar 0
LayerCount: 2
Fore
SplineSet
64 64 m 1
 16 64 16 64 16 40 c 0
 16 16 16 16 64 16 c 1
 64 64 l 1
80 64 m 1
 80 0 l 1
 64 0 l 2
 8 0 0 8 0 40 c 0
 0 72 8 80 64 80 c 2
 112 80 l 1
 112 -16 l 1
 96 -16 l 1
 96 64 l 1
 80 64 l 1
EndSplineSet
Validated: 1
EndChar

StartChar: uni01A4
Encoding: 420 420 355
Width: 128
GlyphClass: 2
Flags: W
HStem: 0 21G<32 48> 64 16<48 95.1663> 80 21G<0 16> 96 16<16.875 32 48 95.1663>
VStem: 0 16<80 95.125> 32 16<0 64 80 96> 96 16<81.7099 94.2901>
AnchorPoint: "Anchor-0" 72 112 basechar 0
LayerCount: 2
Fore
SplineSet
48 64 m 1xde
 48 0 l 1
 32 0 l 1
 32 96 l 1xde
 16 96 16 96 16 80 c 1
 0 80 l 1xae
 0 104 8 112 32 112 c 2
 48 112 l 2
 104 112 112 108 112 88 c 0
 112 68 104 64 48 64 c 1xde
48 96 m 1
 48 80 l 1
 96 80 96 80 96 88 c 0
 96 96 96 96 48 96 c 1
EndSplineSet
Validated: 1
EndChar

StartChar: uni01A5
Encoding: 421 421 356
Width: 96
GlyphClass: 2
Flags: W
HStem: 16 16<16 61.4476> 64 16<33.5657 63.1912> 96 16<18.4631 32>
VStem: 0 16<-16 16 32 46.5117 66 94.4935> 64 16<35.1199 63.1912>
AnchorPoint: "Anchor-0" 40 80 basechar 0
LayerCount: 2
Fore
SplineSet
16 32 m 1
 64 32 64 32 64 48 c 0
 64 64 64 64 48 64 c 0
 32 64 16 48 16 32 c 1
16 -16 m 1
 0 -16 l 1
 0 66 l 2
 -2.32675207226e-15 104 8 112 32 112 c 1
 32 96 l 1
 16 96 16 96 16 66 c 1
 24 74 36 80 48 80 c 0
 72 80 80 72 80 48 c 0
 80 22 68 16 16 16 c 1
 16 -16 l 1
EndSplineSet
Validated: 1
EndChar

StartChar: uni01A6
Encoding: 422 422 357
Width: 96
GlyphClass: 2
Flags: W
HStem: 0 21G<0 16> 48 16<16 53.1384> 80 16<16 63.1663> 92 20G<0 16>
VStem: 0 16<0 48 64 80 96 112> 64 16<-16 31.0654 65.5173 78.2901>
AnchorPoint: "Anchor-1" 40 0 basechar 0
AnchorPoint: "Anchor-0" 40 96 basechar 0
LayerCount: 2
Fore
SplineSet
16 64 m 1xec
 64 64 64 64 64 72 c 0
 64 80 64 80 16 80 c 1
 16 64 l 1xec
68 52 m 1
 76 44 80 32 80 -16 c 1
 64 -16 l 1
 64 48 64 48 16 48 c 1
 16 0 l 1
 0 0 l 1
 0 112 l 1
 16 112 l 1xdc
 16 96 l 1
 72 96 80 92 80 72 c 0
 80 60 76 56 68 52 c 1
EndSplineSet
Validated: 1
EndChar

StartChar: uni01A7
Encoding: 423 423 358
Width: 96
GlyphClass: 2
Flags: W
HStem: 0 16<18.2861 62.7295> 64 16<18.3394 63.4246> 96 16<0 46.9071>
VStem: 0 16<18.2861 61.7139> 64 16<17.6587 32 80.9229 94.0969>
AnchorPoint: "Anchor-0" 40 112 basechar 0
AnchorPoint: "Anchor-1" 40 0 basechar 0
LayerCount: 2
Fore
SplineSet
40 80 m 0
 64 80 64 80 64 88 c 0
 64 96 64 96 0 96 c 1
 0 112 l 1
 68 112 80 108 80 88 c 0
 80 70 70 64 40 64 c 0
 16 64 16 64 16 40 c 0
 16 16 16 16 40 16 c 0
 64 16 64 16 64 32 c 1
 80 32 l 1
 80 8 72 0 40 0 c 0
 8 0 0 8 0 40 c 0
 0 72 8 80 40 80 c 0
EndSplineSet
Validated: 1
EndChar

StartChar: uni01A8
Encoding: 424 424 359
Width: 96
GlyphClass: 2
Flags: W
HStem: 0 16<33.0929 80> 32 16<16.5754 63.4246> 64 16<0 46.9071>
VStem: 0 16<17.9031 31.0771> 64 16<48.9229 62.0969>
CounterMasks: 1 e0
AnchorPoint: "Anchor-1" 40 0 basechar 0
AnchorPoint: "Anchor-0" 40 80 basechar 0
LayerCount: 2
Fore
SplineSet
80 0 m 1
 12 0 0 4 0 24 c 0
 0 42 10 48 40 48 c 0
 64 48 64 48 64 56 c 0
 64 64 64 64 0 64 c 1
 0 80 l 1
 68 80 80 76 80 56 c 0
 80 38 70 32 40 32 c 0
 16 32 16 32 16 24 c 0
 16 16 16 16 80 16 c 1
 80 0 l 1
EndSplineSet
Validated: 1
EndChar

StartChar: uni01A9
Encoding: 425 425 360
Width: 96
GlyphClass: 2
Flags: W
HStem: 0 16<20 80> 96 16<20 80>
LayerCount: 2
Fore
SplineSet
48 56 m 1
 20 16 l 1
 80 16 l 1
 80 0 l 1
 0 0 l 1
 0 16 l 1
 28 56 l 1
 0 96 l 1
 0 112 l 1
 80 112 l 1
 80 96 l 1
 20 96 l 1
 48 56 l 1
EndSplineSet
Validated: 1
EndChar

StartChar: uni01AA
Encoding: 426 426 361
Width: 96
GlyphClass: 2
Flags: W
HStem: -16 16<55.2411 80> 64 16<16.875 32> 96 16<16.263 31.5849>
VStem: 0 16<80.4151 95.737> 32 16<17.0859 64 80 95.125>
LayerCount: 2
Fore
SplineSet
32 80 m 1
 32 96 32 96 24 96 c 0
 16 96 16 96 16 88 c 0
 16 80 16 80 32 80 c 1
32 64 m 1
 8 64 0 72 0 88 c 0
 0 104 8 112 24 112 c 0
 40 112 48 104 48 80 c 1
 48 64 l 2
 48 0 48 0 80 0 c 1
 80 -16 l 1
 32 -16 32 0 32 64 c 1
EndSplineSet
Validated: 1
EndChar

StartChar: uni01AB
Encoding: 427 427 362
AltUni2: 001db5.ffffffff.0
Width: 64
GlyphClass: 2
Flags: W
HStem: -32 16<16 31.125> 64 16<0 16 32 48> 92 20G<16 32>
VStem: 16 16<16 64 80 112> 32 16<-15.125 0>
LayerCount: 2
Fore
SplineSet
48 0 m 2xe8
 48 -24 40 -32 16 -32 c 1
 16 -16 l 1xf0
 32 -16 32 -16 32 0 c 1xe8
 16 0 l 1
 16 64 l 1
 0 64 l 1
 0 80 l 1
 16 80 l 1
 16 112 l 1
 32 112 l 1
 32 80 l 1xf0
 48 80 l 1
 48 64 l 1xe8
 32 64 l 1
 32 16 l 1xf0
 48 16 l 1
 48 0 l 2xe8
EndSplineSet
Validated: 1
EndChar

StartChar: uni01AC
Encoding: 428 428 363
Width: 112
GlyphClass: 2
Flags: W
HStem: 0 21G<48 64> 80 21G<0 16> 96 16<18.1131 48 64 96>
VStem: 0 16<80 93.5369> 48 16<0 96>
AnchorPoint: "Anchor-0" 56 112 basechar 0
LayerCount: 2
Fore
SplineSet
0 80 m 1xd8
 0 104 8 112 48 112 c 2
 96 112 l 1
 96 96 l 1
 64 96 l 1
 64 0 l 1
 48 0 l 1
 48 96 l 1xb8
 16 96 16 96 16 80 c 1
 0 80 l 1xd8
EndSplineSet
Validated: 1
EndChar

StartChar: uni01AD
Encoding: 429 429 364
Width: 64
GlyphClass: 2
Flags: W
HStem: 0 16<35.5879 48> 64 16<0 16 32 48> 96 16<32.875 48>
VStem: 16 16<19.1406 64 80 95.125>
AnchorPoint: "Anchor-0" 24 112 basechar 0
LayerCount: 2
Fore
SplineSet
48 0 m 1
 20 0 16 8 16 64 c 1
 0 64 l 1
 0 80 l 1
 16 80 l 1
 16 104 24 112 48 112 c 1
 48 96 l 1
 32 96 32 96 32 80 c 1
 48 80 l 1
 48 64 l 1
 32 64 l 1
 32 16 32 16 48 16 c 1
 48 0 l 1
EndSplineSet
Validated: 1
EndChar

StartChar: uni01AE
Encoding: 430 430 365
Width: 96
GlyphClass: 2
Flags: W
HStem: -16 16<53.4375 64> 96 16<0 32 48 80>
VStem: 32 16<50.0156 96>
AnchorPoint: "Anchor-0" 40 112 basechar 0
LayerCount: 2
Fore
SplineSet
0 96 m 1
 0 112 l 1
 80 112 l 1
 80 96 l 1
 48 96 l 1
 48 0 48 0 64 0 c 1
 64 -16 l 1
 32 -16 32 0 32 96 c 1
 0 96 l 1
EndSplineSet
Validated: 1
EndChar

StartChar: uni01B1
Encoding: 433 433 368
Width: 96
GlyphClass: 2
Flags: W
HStem: 0 16<19.2031 60.7969> 96 16<0 12 68 80>
VStem: 0 32<96 112> 0 16<19.0599 79.5434> 48 32<96 112> 64 16<19.0599 79.5434>
AnchorPoint: "Anchor-0" 40 0 basechar 0
LayerCount: 2
Fore
SplineSet
80 112 m 1xc8
 80 96 l 1xc8
 68 96 l 1
 72 90 80 84 80 48 c 0
 80 8 74 0 40 0 c 0
 6 0 0 8 0 48 c 0xd4
 0 84 8 90 12 96 c 1
 0 96 l 1
 0 112 l 1
 32 112 l 1
 32 96 l 1xe0
 20 84 16 76 16 48 c 0
 16 16 16 16 40 16 c 0
 64 16 64 16 64 48 c 0xd4
 64 76 60 84 48 96 c 1
 48 112 l 1
 80 112 l 1xc8
EndSplineSet
Validated: 1
EndChar

StartChar: uni01B2
Encoding: 434 434 369
Width: 96
GlyphClass: 2
Flags: W
HStem: 0 16<16 39.8694> 96 16<48 60.7783>
VStem: 0 16<16 112> 64 16<37.7254 93.7735>
AnchorPoint: "Anchor-0" 40 112 basechar 0
AnchorPoint: "Anchor-1" 40 0 basechar 0
LayerCount: 2
Fore
SplineSet
16 0 m 2
 0 0 l 1
 0 112 l 1
 16 112 l 1
 16 16 l 1
 48 16 64 32 64 56 c 0
 64 96 64 96 48 96 c 1
 48 112 l 1
 80 112 80 96 80 56 c 0
 80 24 56 -4.89842541529e-15 16 0 c 2
EndSplineSet
Validated: 1
EndChar

StartChar: uni01B3
Encoding: 435 435 370
Width: 112
GlyphClass: 2
Flags: W
HStem: 0 21G<32 48> 80 21G<80 96> 96 16<64.4592 79.5849>
VStem: 32 16<0 68> 80 16<80 95.125>
AnchorPoint: "Anchor-0" 40 112 basechar 0
LayerCount: 2
Fore
SplineSet
0 112 m 1xb8
 18 112 l 1
 40 82 l 1
 48 96 56 112 72 112 c 0xb8
 88 112 96 104 96 80 c 1
 80 80 l 1xd8
 80 96 80 96 72 96 c 0
 64 96 56 80 48 68 c 1
 48 0 l 1
 32 0 l 1
 32 68 l 1
 0 112 l 1xb8
EndSplineSet
Validated: 1
EndChar

StartChar: uni01B4
Encoding: 436 436 371
Width: 128
GlyphClass: 2
Flags: W
HStem: -16 16<0 46.9071> 16 16<25.5072 64> 60 20G<0 16> 80 21G<96 112> 96 16<81.8367 95.5849>
VStem: 0 16<40.7432 80> 64 16<3.62054 16 32 78.8083> 96 16<80 95.125>
AnchorPoint: "Anchor-0" 40 80 basechar 0
LayerCount: 2
Fore
SplineSet
64 16 m 1xcf
 4 16 0 28 0 80 c 1
 16 80 l 1
 16 32 16 32 64 32 c 1
 64 104 64 112 88 112 c 0xef
 104 112 112 104 112 80 c 1
 96 80 l 1xd7
 96 96 96 96 88 96 c 0
 80 96 80 96 80 32 c 2
 80 16 l 2
 80 -12 68 -16 0 -16 c 1
 0 0 l 1
 64 0 64 0 64 16 c 1xcf
EndSplineSet
Validated: 1
EndChar

StartChar: uni01B5
Encoding: 437 437 372
Width: 96
GlyphClass: 2
Flags: W
HStem: 0 16<20 80> 48 16<0 24 56 80> 96 16<0 60>
CounterMasks: 1 e0
AnchorPoint: "Anchor-0" 40 112 basechar 0
LayerCount: 2
Fore
SplineSet
0 0 m 1
 0 16 l 1
 24 48 l 1
 0 48 l 1
 0 64 l 1
 36 64 l 1
 60 96 l 1
 0 96 l 1
 0 112 l 1
 80 112 l 1
 80 96 l 1
 56 64 l 1
 80 64 l 1
 80 48 l 1
 44 48 l 1
 20 16 l 1
 80 16 l 1
 80 0 l 1
 0 0 l 1
EndSplineSet
Validated: 1
EndChar

StartChar: uni01B6
Encoding: 438 438 373
Width: 96
GlyphClass: 2
Flags: W
HStem: 0 16<24 80> 32 16<0 20 60 80> 64 16<0 56>
CounterMasks: 1 e0
AnchorPoint: "Anchor-1" 40 0 basechar 0
AnchorPoint: "Anchor-0" 40 80 basechar 0
LayerCount: 2
Fore
SplineSet
80 48 m 1
 80 32 l 1
 44 32 l 1
 24 16 l 1
 80 16 l 1
 80 0 l 1
 0 0 l 1
 0 16 l 1
 20 32 l 1
 0 32 l 1
 0 48 l 1
 36 48 l 1
 56 64 l 1
 0 64 l 1
 0 80 l 1
 80 80 l 1
 80 64 l 1
 60 48 l 1
 80 48 l 1
EndSplineSet
Validated: 1
EndChar

StartChar: uni01B7
Encoding: 439 439 374
AltUni2: 0004e0.ffffffff.0
Width: 96
GlyphClass: 2
Flags: W
HStem: -16 16<17.2705 60.8599> 64 16<32 60> 96 16<0 64>
VStem: 0 16<1.65872 16> 64 16<3.05988 60.0224 82.0279 96>
AnchorPoint: "Anchor-0" 40 112 basechar 0
LayerCount: 2
Fore
SplineSet
64 96 m 1
 0 96 l 1
 0 112 l 1
 80 112 l 1
 80 96 l 2
 80 80 78 76 72 72 c 1
 78 68 80 62 80 32 c 0
 80 -8 72 -16 40 -16 c 0
 8 -16 0 -8 0 16 c 1
 16 16 l 1
 16 0 16 0 40 0 c 0
 64 0 64 0 64 32 c 0
 64 64 64 64 32 64 c 1
 32 80 l 1
 64 80 64 80 64 96 c 1
EndSplineSet
Validated: 1
EndChar

StartChar: uni01B8
Encoding: 440 440 375
Width: 96
GlyphClass: 2
Flags: W
HStem: -16 16<19.1401 62.7295> 64 16<20 48> 96 16<16 80>
VStem: 0 16<3.05988 60.0224 82.0279 96> 64 16<1.65872 16>
AnchorPoint: "Anchor-0" 40 112 basechar 0
LayerCount: 2
Fore
SplineSet
16 96 m 1
 16 80 16 80 48 80 c 1
 48 64 l 1
 16 64 16 64 16 32 c 0
 16 0 16 0 40 0 c 0
 64 0 64 0 64 16 c 1
 80 16 l 1
 80 -8 72 -16 40 -16 c 0
 8 -16 0 -8 0 32 c 0
 0 62 2 68 8 72 c 1
 2 76 0 80 0 96 c 2
 0 112 l 1
 80 112 l 1
 80 96 l 1
 16 96 l 1
EndSplineSet
Validated: 1
EndChar

StartChar: uni01B9
Encoding: 441 441 376
Width: 96
GlyphClass: 2
Flags: W
HStem: -16 16<17.2705 62.7295> 32 16<17.4852 48> 64 16<16 80>
VStem: 0 16<1.57365 29.9247 50.0279 64> 64 16<1.65872 16>
AnchorPoint: "Anchor-0" 40 80 basechar 0
LayerCount: 2
Fore
SplineSet
48 32 m 1
 16 32 16 32 16 16 c 0
 16 0 16 0 40 0 c 0
 64 0 64 0 64 16 c 1
 80 16 l 1
 80 -8 72 -16 40 -16 c 0
 8 -16 0 -8 0 16 c 0
 0 26 2 36 8 40 c 1
 2 44 0 48 0 64 c 2
 0 80 l 1
 80 80 l 1
 80 64 l 1
 16 64 l 1
 16 48 16 48 48 48 c 1
 48 32 l 1
EndSplineSet
Validated: 1
EndChar

StartChar: uni01BA
Encoding: 442 442 377
Width: 96
GlyphClass: 2
Flags: W
HStem: -32 16<33.0859 80> 0 16<16.543 63.457> 32 16<32 62.5148> 64 16<0 64>
VStem: 0 16<-14.1633 -0.915115> 64 16<16.9151 30.9973 50.0279 64>
LayerCount: 2
Fore
SplineSet
64 64 m 1
 0 64 l 1
 0 80 l 1
 80 80 l 1
 80 64 l 2
 80 48 78 44 72 40 c 1
 78 36 80 32 80 24 c 0
 80 8 72 0 40 0 c 0
 16 0 16 0 16 -8 c 0
 16 -16 16 -16 80 -16 c 1
 80 -32 l 1
 16 -32 0 -32 0 -8 c 0
 0 8 8 16 40 16 c 0
 64 16 64 16 64 24 c 0
 64 32 64 32 32 32 c 1
 32 48 l 1
 64 48 64 48 64 64 c 1
EndSplineSet
Validated: 1
EndChar

StartChar: uni01BB
Encoding: 443 443 378
Width: 96
GlyphClass: 2
Flags: W
HStem: 0 32<64 80> 0 16<16 64> 48 16<0 16 33.4883 63.2574 78 80> 80 21G<0 16> 96 16<17.2705 62.7295>
VStem: 0 16<16 30.5117 80 94.3413> 64 16<16 32 64.7468 94.4263>
LayerCount: 2
Fore
SplineSet
80 32 m 1xa6
 80 0 l 1xa6
 0 0 l 1
 0 16 l 2
 -9.79685083058e-16 32 8 40 16 48 c 1
 0 48 l 1
 0 64 l 1
 48 64 l 2
 64 64 64 64 64 80 c 0x76
 64 96 64 96 40 96 c 0x2e
 16 96 16 96 16 80 c 1
 0 80 l 1x36
 0 104 8 112 40 112 c 0x2e
 72 112 80 104 80 80 c 0
 80 72 80 68 78 64 c 1
 80 64 l 1
 80 48 l 1
 48 48 l 2
 32 48 16 32 16 16 c 1
 64 16 l 1x76
 64 32 l 1
 80 32 l 1xa6
EndSplineSet
Validated: 1
EndChar

StartChar: uni01BC
Encoding: 444 444 379
Width: 96
GlyphClass: 2
Flags: W
HStem: 0 16<17.2705 61.7139> 64 16<32 60.8574> 96 16<0 16 32 80>
VStem: 0 16<17.6587 32> 16 16<80 96> 64 16<18.2861 60.8599>
LayerCount: 2
Fore
SplineSet
32 64 m 2xec
 16 64 l 1
 16 96 l 1xec
 0 96 l 1
 0 112 l 1xf4
 16 112 l 1
 80 112 l 1
 80 96 l 1
 32 96 l 1
 32 80 l 1xec
 72 80 80 72 80 40 c 0
 80 8 72 0 40 0 c 0
 8 0 0 8 0 32 c 1
 16 32 l 1xf4
 16 16 16 16 40 16 c 0
 64 16 64 16 64 40 c 0
 64 64 64 64 32 64 c 2xec
EndSplineSet
Validated: 1
EndChar

StartChar: uni01BD
Encoding: 445 445 380
Width: 96
GlyphClass: 2
Flags: W
HStem: 0 16<0 46.8083> 32 16<32 62.8811> 64 16<0 16 32 80>
VStem: 16 16<48 64> 64 16<17.9031 30.9493>
CounterMasks: 1 e0
LayerCount: 2
Fore
SplineSet
0 0 m 1
 0 16 l 1
 64 16 64 16 64 24 c 0
 64 32 64 32 32 32 c 2
 16 32 l 1
 16 64 l 1
 0 64 l 1
 0 80 l 1
 80 80 l 1
 80 64 l 1
 32 64 l 1
 32 48 l 1
 72 48 80 42 80 24 c 0
 80 4 72 0 0 0 c 1
EndSplineSet
Validated: 1
EndChar

StartChar: uni01BE
Encoding: 446 446 381
Width: 96
GlyphClass: 2
Flags: W
HStem: 0 16<0 46.8083> 32 16<32.875 63.125> 64 16<0 16 32 48> 92 20G<16 32>
VStem: 16 16<48.875 64 80 112> 64 16<17.9031 31.6051>
LayerCount: 2
Fore
SplineSet
0 0 m 1
 0 16 l 1
 64 16 64 16 64 24 c 0
 64 32 64 32 48 32 c 0
 24 32 16 40 16 64 c 1
 0 64 l 1
 0 80 l 1
 16 80 l 1
 16 112 l 1
 32 112 l 1
 32 80 l 1
 48 80 l 1
 48 64 l 1
 32 64 l 1
 32 48 32 48 48 48 c 0
 72 48 80 42 80 24 c 0
 80 4 72 0 0 0 c 1
EndSplineSet
Validated: 1
EndChar

StartChar: uni01BF
Encoding: 447 447 382
Width: 96
GlyphClass: 2
Flags: W
HStem: 0 16<16 39.8694> 64 16<32.9482 63.1912>
VStem: 0 16<-16 0 16 43.3281 64 80> 64 16<34.7571 63.1912>
LayerCount: 2
Fore
SplineSet
16 64 m 1
 24 74 34 80 48 80 c 0
 72 80 80 72 80 48 c 0
 80 24 56 0 16 0 c 1
 16 -16 l 1
 0 -16 l 1
 0 80 l 1
 16 80 l 1
 16 64 l 1
16 16 m 1
 48 16 64 32 64 48 c 0
 64 64 64 64 48 64 c 0
 28 64 16 48 16 16 c 1
EndSplineSet
Validated: 1
EndChar

StartChar: uni01C0
Encoding: 448 448 383
Width: 32
GlyphClass: 2
Flags: W
HStem: 0 21G<0 16> 92 20G<0 16>
VStem: 0 16<0 112>
LayerCount: 2
Fore
SplineSet
0 112 m 1
 16 112 l 1
 16 0 l 1
 0 0 l 1
 0 112 l 1
EndSplineSet
Validated: 1
EndChar

StartChar: uni01C1
Encoding: 449 449 384
Width: 64
GlyphClass: 2
Flags: W
HStem: 0 21G<0 16 32 48> 92 20G<0 16 32 48>
VStem: 0 16<0 112> 32 16<0 112>
LayerCount: 2
Fore
SplineSet
32 112 m 1
 48 112 l 1
 48 0 l 1
 32 0 l 1
 32 112 l 1
0 112 m 1
 16 112 l 1
 16 0 l 1
 0 0 l 1
 0 112 l 1
EndSplineSet
Validated: 1
EndChar

StartChar: uni01C2
Encoding: 450 450 385
Width: 96
GlyphClass: 2
Flags: W
HStem: 0 21G<32 48> 32 16<0 32 48 80> 64 16<0 32 48 80> 92 20G<32 48>
VStem: 32 16<0 32 48 64 80 112>
LayerCount: 2
Fore
SplineSet
32 112 m 1
 48 112 l 1
 48 80 l 1
 80 80 l 1
 80 64 l 1
 48 64 l 1
 48 48 l 1
 80 48 l 1
 80 32 l 1
 48 32 l 1
 48 0 l 1
 32 0 l 1
 32 32 l 1
 0 32 l 1
 0 48 l 1
 32 48 l 1
 32 64 l 1
 0 64 l 1
 0 80 l 1
 32 80 l 1
 32 112 l 1
EndSplineSet
Validated: 1
EndChar

StartChar: uni01C3
Encoding: 451 451 386
Width: 32
GlyphClass: 2
Flags: W
HStem: 0 16<0 16> 92 20G<0 16>
VStem: 0 16<0 16 32 112>
LayerCount: 2
Fore
SplineSet
0 16 m 1
 16 16 l 1
 16 0 l 1
 0 0 l 1
 0 16 l 1
0 112 m 1
 16 112 l 1
 16 32 l 1
 0 32 l 1
 0 112 l 1
EndSplineSet
Validated: 1
EndChar

StartChar: uni01C7
Encoding: 455 455 390
Width: 160
GlyphClass: 2
Flags: W
HStem: 0 16<16 64 96.8088 123.461> 92 20G<0 16 128 144>
VStem: 0 16<16 112> 80 16<16.875 32> 128 16<65.0216 112>
LayerCount: 2
Fore
SplineSet
0 112 m 1
 16 112 l 1
 16 16 l 1
 64 16 l 1
 64 0 l 1
 0 0 l 1
 0 112 l 1
112 0 m 0
 88 0 80 8 80 32 c 1
 96 32 l 1
 96 16 96 16 112 16 c 0
 128 16 128 16 128 112 c 1
 144 112 l 1
 144 4 140 0 112 0 c 0
EndSplineSet
Validated: 1
EndChar

StartChar: uni01C8
Encoding: 456 456 391
Width: 160
GlyphClass: 2
Flags: W
HStem: -16 16<98.2316 123.769> 0 16<16 64> 60 20G<128 144> 96 16<128 144>
VStem: 0 16<16 112> 80 16<2.11307 32> 128 16<34.1261 80 96 112>
LayerCount: 2
Fore
SplineSet
0 112 m 1x7e
 16 112 l 1
 16 16 l 1
 64 16 l 1
 64 0 l 1
 0 0 l 1
 0 112 l 1x7e
128 112 m 1
 144 112 l 1
 144 96 l 1
 128 96 l 1
 128 112 l 1
112 -16 m 0xbe
 88 -16 80 -8 80 32 c 1
 96 32 l 1
 96 0 96 0 112 0 c 0
 128 0 128 0 128 80 c 1
 144 80 l 1
 144 -12 140 -16 112 -16 c 0xbe
EndSplineSet
Validated: 1
EndChar

StartChar: uni01C9
Encoding: 457 457 392
Width: 128
GlyphClass: 2
Flags: W
HStem: -16 16<66.2316 91.7686> 0 16<21.4375 32> 60 20G<96 112> 96 16<96 112>
VStem: 0 16<66.436 112> 48 16<2.11307 32> 96 16<34.1261 80 96 112>
CounterMasks: 1 0e
LayerCount: 2
Fore
SplineSet
0 112 m 1x7e
 16 112 l 1
 16 16 16 16 32 16 c 1
 32 0 l 1
 0 0 0 8 0 112 c 1x7e
96 112 m 1
 112 112 l 1
 112 96 l 1
 96 96 l 1
 96 112 l 1
80 -16 m 0xbe
 56 -16 48 -8 48 32 c 1
 64 32 l 1
 64 0 64 0 80 0 c 0
 96 0 96 0 96 80 c 1
 112 80 l 1
 112 -12 108 -16 80 -16 c 0xbe
EndSplineSet
Validated: 1
EndChar

StartChar: uni01CA
Encoding: 458 458 393
Width: 160
GlyphClass: 2
Flags: W
HStem: 0 16<96.8088 123.461> 92 20G<0 29.3333 48 64 128 144>
VStem: 0 16<0 86> 48 16<0 38 64 112> 80 16<16.875 32> 128 16<65.0216 112>
LayerCount: 2
Fore
SplineSet
112 0 m 0
 88 0 80 8 80 32 c 1
 96 32 l 1
 96 16 96 16 112 16 c 0
 128 16 128 16 128 112 c 1
 144 112 l 1
 144 4 140 0 112 0 c 0
48 64 m 1
 48 112 l 1
 64 112 l 1
 64 0 l 1
 48 0 l 1
 48 38 l 1
 16 86 l 1
 16 0 l 1
 0 0 l 1
 0 112 l 1
 16 112 l 1
 48 64 l 1
EndSplineSet
Validated: 1
EndChar

StartChar: uni01CB
Encoding: 459 459 394
Width: 160
GlyphClass: 2
Flags: W
HStem: -16 16<98.2316 123.769> 0 21G<0 16 48 64> 60 20G<128 144> 96 16<128 144>
VStem: 0 16<0 86> 48 16<0 38 64 112> 80 16<2.11307 32> 128 16<34.1261 80 96 112>
LayerCount: 2
Fore
SplineSet
128 112 m 1x3f
 144 112 l 1
 144 96 l 1
 128 96 l 1
 128 112 l 1x3f
112 -16 m 0xbf
 88 -16 80 -8 80 32 c 1
 96 32 l 1
 96 0 96 0 112 0 c 0
 128 0 128 0 128 80 c 1
 144 80 l 1
 144 -12 140 -16 112 -16 c 0xbf
48 64 m 1
 48 112 l 1
 64 112 l 1
 64 0 l 1
 48 0 l 1
 48 38 l 1
 16 86 l 1
 16 0 l 1
 0 0 l 1x7f
 0 112 l 1
 16 112 l 1
 48 64 l 1
EndSplineSet
Validated: 1
EndChar

StartChar: uni01CC
Encoding: 460 460 395
Width: 160
GlyphClass: 2
Flags: W
HStem: -16 16<98.2316 123.769> 0 21G<0 16 48 64> 64 16<16 40.7589> 96 16<128 144>
VStem: 0 16<0 64> 48 16<0 46.8083> 80 16<2.11307 32> 128 16<34.1261 80 96 112>
LayerCount: 2
Fore
SplineSet
128 112 m 1x3f
 144 112 l 1
 144 96 l 1
 128 96 l 1
 128 112 l 1x3f
112 -16 m 0xbf
 88 -16 80 -8 80 32 c 1
 96 32 l 1
 96 0 96 0 112 0 c 0
 128 0 128 0 128 80 c 1
 144 80 l 1
 144 -12 140 -16 112 -16 c 0xbf
16 64 m 1
 16 0 l 1
 0 0 l 1
 0 80 l 1
 16 80 l 2
 60 80 64 72 64 0 c 1
 48 0 l 1x7f
 48 64 48 64 16 64 c 1
EndSplineSet
Validated: 1
EndChar

StartChar: uni01DD
Encoding: 477 477 412
Width: 96
GlyphClass: 2
Flags: W
HStem: 0 16<17.2705 62.7295> 32 16<16 64> 64 16<0 46.9071>
VStem: 0 16<17.6587 32> 64 16<17.6587 32 48 60.3795>
CounterMasks: 1 e0
AnchorPoint: "Anchor-1" 40 80 basechar 0
AnchorPoint: "Anchor-0" 40 0 basechar 0
LayerCount: 2
Fore
SplineSet
64 32 m 1
 16 32 l 1
 16 16 16 16 40 16 c 0
 64 16 64 16 64 32 c 1
0 80 m 1
 68 80 80 76 80 48 c 2
 80 32 l 2
 80 8 72 0 40 0 c 0
 8 0 0 8 0 32 c 2
 0 48 l 1
 64 48 l 1
 64 64 64 64 0 64 c 1
 0 80 l 1
EndSplineSet
Validated: 1
EndChar

StartChar: uni01E4
Encoding: 484 484 419
Width: 112
GlyphClass: 2
Flags: W
HStem: 0 16<20.0116 62.7295> 32 16<48 64 80 96> 64 16<48 64> 96 16<32.8264 80>
VStem: 0 16<19.9948 87.0955> 48 32<64 80> 64 16<17.6587 32 48 64>
AnchorPoint: "Anchor-1" 40 0 basechar 0
AnchorPoint: "Anchor-0" 40 112 basechar 0
LayerCount: 2
Fore
SplineSet
40 16 m 0xfa
 64 16 64 16 64 32 c 1xfa
 48 32 l 1
 48 48 l 1xfc
 64 48 l 1
 64 64 l 1xfa
 48 64 l 1
 48 80 l 1
 80 80 l 1xfc
 80 48 l 1
 96 48 l 1
 96 32 l 1
 80 32 l 1
 80 8 72 0 40 0 c 0
 6 0 0 10 0 56 c 0
 0 106 10 112 80 112 c 1
 80 96 l 1
 16 96 16 96 16 56 c 0
 16 16 16 16 40 16 c 0xfa
EndSplineSet
Validated: 1
EndChar

StartChar: uni01E5
Encoding: 485 485 420
Width: 112
GlyphClass: 2
Flags: W
HStem: -32 16<0 46.8083> 0 16<48 64 80 96> 64 16<18.5524 64>
VStem: 0 16<35.1199 60.8801> 64 16<-11.8652 0 32 64>
AnchorPoint: "Anchor-1" 40 -16 basechar 0
AnchorPoint: "Anchor-0" 40 80 basechar 0
LayerCount: 2
Fore
SplineSet
80 16 m 1
 96 16 l 1
 96 0 l 1
 80 0 l 1
 80 -24 72 -32 0 -32 c 1
 0 -16 l 1
 64 -16 64 -16 64 0 c 1
 48 0 l 1
 48 16 l 1
 64 16 l 1
 12 16 0 22 0 48 c 0
 0 74 12 80 64 80 c 2
 80 80 l 1
 80 16 l 1
16 48 m 0
 16 32 16 32 64 32 c 1
 64 64 l 1
 16 64 16 64 16 48 c 0
EndSplineSet
Validated: 1
EndChar

StartChar: uni01F1
Encoding: 497 497 432
Width: 160
GlyphClass: 2
Flags: W
HStem: 0 16<16 42.6902 98 144> 96 16<16 42.6902 80 126>
VStem: 0 16<16 96> 48 16<21.3711 90.6289>
AnchorPoint: "Anchor-0" 112 128 basechar 0
LayerCount: 2
Fore
SplineSet
16 96 m 1
 16 16 l 1
 48 16 48 16 48 56 c 0
 48 96 48 96 16 96 c 1
0 112 m 1
 16 112 l 2
 56 112 64 104 64 56 c 0
 64 8 56 0 16 0 c 2
 0 0 l 1
 0 112 l 1
80 0 m 1
 80 16 l 1
 126 96 l 1
 80 96 l 1
 80 112 l 1
 144 112 l 1
 144 96 l 1
 98 16 l 1
 144 16 l 1
 144 0 l 1
 80 0 l 1
EndSplineSet
Validated: 1
EndChar

StartChar: uni01F2
Encoding: 498 498 433
Width: 160
GlyphClass: 2
Flags: W
HStem: 0 16<16 42.6902 100 144> 64 16<80 124> 96 16<16 42.6902>
VStem: 0 16<16 96> 48 16<21.3711 90.6289>
AnchorPoint: "Anchor-0" 112 96 basechar 0
LayerCount: 2
Fore
SplineSet
144 0 m 1
 80 0 l 1
 80 16 l 1
 124 64 l 1
 80 64 l 1
 80 80 l 1
 144 80 l 1
 144 64 l 1
 100 16 l 1
 144 16 l 1
 144 0 l 1
16 96 m 1
 16 16 l 1
 48 16 48 16 48 56 c 0
 48 96 48 96 16 96 c 1
0 112 m 1
 16 112 l 2
 56 112 64 104 64 56 c 0
 64 8 56 0 16 0 c 2
 0 0 l 1
 0 112 l 1
EndSplineSet
Validated: 1
EndChar

StartChar: uni01F3
Encoding: 499 499 434
Width: 160
GlyphClass: 2
Flags: W
HStem: 0 16<19.0018 48 100 144> 64 16<16.9151 34.0517 80 124> 92 20G<48 64>
VStem: 0 16<19.2031 63.6279> 48 16<16 44.3008 64 112>
AnchorPoint: "Anchor-0" 112 96 basechar 0
LayerCount: 2
Fore
SplineSet
144 0 m 1
 80 0 l 1
 80 16 l 1
 124 64 l 1
 80 64 l 1
 80 80 l 1
 144 80 l 1
 144 64 l 1
 100 16 l 1
 144 16 l 1
 144 0 l 1
48 16 m 1
 48 48 36 64 24 64 c 0
 16 64 16 64 16 40 c 0
 16 16 16 16 48 16 c 1
48 112 m 1
 64 112 l 1
 64 0 l 1
 48 0 l 2
 10 0 0 6 0 40 c 0
 0 72 8 80 24 80 c 0
 34 80 40 74 48 64 c 1
 48 112 l 1
EndSplineSet
Validated: 1
EndChar

StartChar: uni01F6
Encoding: 502 502 437
Width: 144
GlyphClass: 2
Flags: W
HStem: 0 16<83.068 108.122> 64 16<16 64> 92 20G<0 16 64 80>
VStem: 0 16<0 64 80 112> 64 16<19.1406 64 80 112> 112 16<33.1917 80>
AnchorPoint: "Anchor-0" 40 112 basechar 0
LayerCount: 2
Fore
SplineSet
16 112 m 1
 16 80 l 1
 64 80 l 1
 64 112 l 1
 80 112 l 1
 80 64 l 2
 80 16 80 16 96 16 c 0
 112 16 112 16 112 80 c 1
 128 80 l 1
 128 8 120 0 96 0 c 0
 72 0 64 8 64 64 c 1
 16 64 l 1
 16 0 l 1
 0 0 l 1
 0 112 l 1
 16 112 l 1
EndSplineSet
Validated: 1
EndChar

StartChar: uni01F7
Encoding: 503 503 438
Width: 96
GlyphClass: 2
Flags: W
HStem: 16 16<16 28.2083> 96 16<33.209 63.1912>
VStem: 0 16<-16 16 32 70.8062 94 112> 64 16<67.7487 95.1912>
LayerCount: 2
Fore
SplineSet
80 80 m 0
 80 56 40 16 16 16 c 1
 16 -16 l 1
 0 -16 l 1
 0 112 l 1
 16 112 l 1
 16 94 l 1
 24 106 34 112 48 112 c 0
 72 112 80 104 80 80 c 0
16 32 m 1
 32 32 64 64 64 80 c 0
 64 96 64 96 48 96 c 0
 28 96 16 80 16 32 c 1
EndSplineSet
Validated: 1
EndChar

StartChar: uni021C
Encoding: 540 540 475
Width: 96
GlyphClass: 2
Flags: W
HStem: -16 16<0 36.1133> 48 16<32 52.1182> 80 21G<0 16> 96 16<17.2705 62.7295>
VStem: 0 16<80 94.3413> 64 16<19.3014 45.8621 72.8252 94.4263>
LayerCount: 2
Fore
SplineSet
32 48 m 1xec
 32 64 l 1
 48 64 64 72 64 80 c 0xec
 64 96 64 96 40 96 c 0xdc
 16 96 16 96 16 80 c 1
 0 80 l 1xec
 0 104 8 112 40 112 c 0xdc
 72 112 80 104 80 80 c 0
 80 70 76 62 68 58 c 1
 76 54 80 49 80 32 c 0
 80 8 56 -16 0 -16 c 1
 0 0 l 1
 48 0 64 16 64 32 c 0
 64 48 64 48 32 48 c 1xec
EndSplineSet
Validated: 1
EndChar

StartChar: uni021D
Encoding: 541 541 476
Width: 96
GlyphClass: 2
Flags: W
HStem: -16 16<0 36.1133> 32 16<32 63.7318> 64 16<17.2705 63.6279>
VStem: 0 16<48 62.3413> 64 16<15.9608 30.9973 49.0027 63.0849>
LayerCount: 2
Fore
SplineSet
32 32 m 1
 32 48 l 1
 64 48 64 48 64 56 c 0
 64 64 64 64 40 64 c 0
 16 64 16 64 16 48 c 1
 0 48 l 1
 0 72 8 80 40 80 c 0
 72 80 80 72 80 56 c 0
 80 48 78 44 74 40 c 1
 78 36 80 32 80 24 c 0
 80 8 56 -16 0 -16 c 1
 0 0 l 1
 48 0 64 16 64 24 c 0
 64 32 64 32 32 32 c 1
EndSplineSet
Validated: 1
EndChar

StartChar: uni0220
Encoding: 544 544 479
Width: 96
GlyphClass: 2
Flags: W
HStem: 0 21G<0 16> 96 16<16 49.4418>
VStem: 0 16<0 96> 64 16<-16 28.2697>
LayerCount: 2
Fore
SplineSet
16 96 m 1
 16 0 l 1
 0 0 l 1
 0 112 l 1
 16 112 l 2
 76 112 80 104 80 -16 c 1
 64 -16 l 1
 64 96 64 96 16 96 c 1
EndSplineSet
Validated: 1
EndChar

StartChar: uni0221
Encoding: 545 545 480
Width: 128
GlyphClass: 2
Flags: W
HStem: -16 16<80.4151 95.737> 0 16<21.251 64> 16 16<80 95.125> 64 16<17.5737 47.0518> 92 20G<64 80>
VStem: 0 16<20.3481 62.7295> 64 16<0 0 32 43.3281 64 112> 96 16<0.263016 15.5849>
LayerCount: 2
Fore
SplineSet
64 16 m 1x5f
 64 48 52 64 32 64 c 0
 16 64 16 64 16 40 c 0
 16 16 16 16 64 16 c 1x5f
80 16 m 1xbf
 80 0 80 0 88 0 c 0
 96 0 96 0 96 8 c 0
 96 16 96 16 80 16 c 1xbf
64 112 m 1
 80 112 l 1
 80 32 l 1
 104 32 112 24 112 8 c 0
 112 -8 104 -16 88 -16 c 0xbf
 72 -16 64 -8 64 0 c 1x5f
 10 0 0 6 0 40 c 0
 0 72 8 80 32 80 c 0
 46 80 56 74 64 64 c 1
 64 112 l 1
EndSplineSet
Validated: 1
EndChar

StartChar: uni0222
Encoding: 546 546 481
AltUni2: 001d3d.ffffffff.0
Width: 96
GlyphClass: 2
Flags: W
HStem: 0 16<17.2705 62.7295> 48 16<17.1139 59.7285> 96 16<16.875 32>
VStem: 0 16<17.5737 46.4373 65.5627 95.1912> 64 16<17.5737 46.4373 68.4658 112>
CounterMasks: 1 e0
AnchorPoint: "Anchor-0" 40 64 basechar 0
LayerCount: 2
Fore
SplineSet
40 16 m 0
 64 16 64 16 64 32 c 0
 64 48 64 48 40 48 c 0
 16 48 16 48 16 32 c 0
 16 16 16 16 40 16 c 0
40 64 m 0
 64 64 64 64 64 112 c 1
 80 112 l 1
 80 72 76 60 72 56 c 1
 76 52 80 48 80 32 c 0
 80 8 72 0 40 0 c 0
 8 0 0 8 0 32 c 0
 0 48 4 52 8 56 c 1
 4 60 0 64 0 80 c 0
 0 104 8 112 32 112 c 1
 32 96 l 1
 16 96 16 96 16 80 c 0
 16 64 16 64 40 64 c 0
EndSplineSet
Validated: 1
EndChar

StartChar: uni0223
Encoding: 547 547 482
Width: 96
GlyphClass: 2
Flags: W
HStem: 0 16<17.2705 62.7295> 48 16<20.2715 59.7285> 92 20G<0 16 64 80>
VStem: 0 16<17.5737 46.4373 68.4658 112> 64 16<17.5737 46.4373 68.4658 112>
AnchorPoint: "Anchor-0" 40 64 basechar 0
LayerCount: 2
Fore
SplineSet
40 48 m 0
 16 48 16 48 16 32 c 0
 16 16 16 16 40 16 c 0
 64 16 64 16 64 32 c 0
 64 48 64 48 40 48 c 0
40 0 m 0
 8 0 0 8 0 32 c 0
 0 48 4 52 8 56 c 1
 4 60 0 72 0 112 c 1
 16 112 l 1
 16 64 16 64 40 64 c 0
 64 64 64 64 64 112 c 1
 80 112 l 1
 80 72 76 60 72 56 c 1
 76 52 80 48 80 32 c 0
 80 8 72 0 40 0 c 0
EndSplineSet
Validated: 1
EndChar

StartChar: uni0224
Encoding: 548 548 483
Width: 96
GlyphClass: 2
Flags: W
HStem: 0 16<20 61.8359> 96 16<0 60>
VStem: 64 16<-16 -3.28842>
LayerCount: 2
Fore
SplineSet
20 0 m 2
 0 0 l 1
 0 16 l 1
 60 96 l 1
 0 96 l 1
 0 112 l 1
 80 112 l 1
 80 96 l 1
 20 16 l 1
 72 16 80 8 80 -16 c 1
 64 -16 l 1
 64 0 64 0 20 0 c 2
EndSplineSet
Validated: 1
EndChar

StartChar: uni0225
Encoding: 549 549 484
Width: 96
GlyphClass: 2
Flags: W
HStem: 0 16<24 61.7372> 64 16<0 56>
VStem: 64 16<-16 -2.46313>
AnchorPoint: "Anchor-1" 40 0 basechar 0
AnchorPoint: "Anchor-0" 40 80 basechar 0
LayerCount: 2
Fore
SplineSet
24 16 m 1
 72 16 80 8 80 -16 c 1
 64 -16 l 1
 64 0 64 0 24 0 c 2
 0 0 l 1
 0 16 l 1
 56 64 l 1
 0 64 l 1
 0 80 l 1
 80 80 l 1
 80 64 l 1
 24 16 l 1
EndSplineSet
Validated: 1
EndChar

StartChar: uni0234
Encoding: 564 564 499
Width: 64
GlyphClass: 2
Flags: W
HStem: -16 16<16.4151 31.737> 16 16<16 31.125> 92 20G<0 16>
VStem: 0 16<0.875 16 32 112> 32 16<0.263016 15.5849>
LayerCount: 2
Fore
SplineSet
0 112 m 1
 16 112 l 1
 16 32 l 1
 40 32 48 24 48 8 c 0
 48 -8 40 -16 24 -16 c 0
 8 -16 0 -8 0 16 c 2
 0 112 l 1
16 16 m 1
 16 0 16 0 24 0 c 0
 32 0 32 0 32 8 c 0
 32 16 32 16 16 16 c 1
EndSplineSet
Validated: 1
EndChar

StartChar: uni0235
Encoding: 565 565 500
Width: 128
GlyphClass: 2
Flags: W
HStem: -16 16<80.4151 95.737> 0 21G<0 16> 16 16<80 95.125> 64 16<16 57.0342>
VStem: 0 16<0 64> 64 16<0.875 16 32 57.5514> 96 16<0.263016 15.5849>
LayerCount: 2
Fore
SplineSet
64 32 m 2xbe
 64 64 64 64 16 64 c 1
 16 0 l 1
 0 0 l 1x5e
 0 80 l 1
 16 80 l 2
 72 80 80 72 80 32 c 1
 104 32 112 24 112 8 c 0
 112 -8 104 -16 88 -16 c 0
 72 -16 64 -8 64 16 c 2
 64 32 l 2xbe
80 16 m 1xbe
 80 0 80 0 88 0 c 0
 96 0 96 0 96 8 c 0
 96 16 96 16 80 16 c 1xbe
EndSplineSet
Validated: 1
EndChar

StartChar: uni0236
Encoding: 566 566 501
Width: 80
GlyphClass: 2
Flags: W
HStem: 0 16<32.4151 47.737> 32 16<32 47.125> 64 16<0 16 32 48> 92 20G<16 32>
VStem: 16 16<16.875 32 48 64 80 112> 48 16<16.263 31.5849>
LayerCount: 2
Fore
SplineSet
32 48 m 1
 56 48 64 40 64 24 c 0
 64 8 56 0 40 0 c 0
 24 0 16 8 16 32 c 2
 16 64 l 1
 0 64 l 1
 0 80 l 1
 16 80 l 1
 16 112 l 1
 32 112 l 1
 32 80 l 1
 48 80 l 1
 48 64 l 1
 32 64 l 1
 32 48 l 1
32 32 m 1
 32 16 32 16 40 16 c 0
 48 16 48 16 48 24 c 0
 48 32 48 32 32 32 c 1
EndSplineSet
Validated: 1
EndChar

StartChar: uni0237
Encoding: 567 567 502
Width: 96
GlyphClass: 2
Flags: W
HStem: -16 16<19.1401 57.6001> 60 20G<64 80>
VStem: 0 16<3.14258 32> 64 16<34.1261 80>
AnchorPoint: "Anchor-0" 72 80 basechar 0
LayerCount: 2
Fore
SplineSet
40 -16 m 0
 8 -16 0 -8 0 32 c 1
 16 32 l 1
 16 0 16 0 40 0 c 0
 64 0 64 0 64 80 c 1
 80 80 l 1
 80 -12 76 -16 40 -16 c 0
EndSplineSet
Validated: 1
EndChar

StartChar: uni0238
Encoding: 568 568 503
Width: 160
GlyphClass: 2
Flags: W
HStem: 0 16<21.251 64 80 122.749> 64 16<17.5737 47.0518 96.9482 126.426> 92 20G<64 80>
VStem: 0 16<20.3481 62.7295> 64 16<16 43.3281 64 112> 128 16<20.3481 62.7295>
CounterMasks: 1 1c
AnchorPoint: "Anchor-1" 72 0 basechar 0
AnchorPoint: "Anchor-0" 72 112 basechar 0
LayerCount: 2
Fore
SplineSet
64 16 m 1
 64 48 52 64 32 64 c 0
 16 64 16 64 16 40 c 0
 16 16 16 16 64 16 c 1
64 0 m 2
 10 0 0 6 0 40 c 0
 0 72 8 80 32 80 c 0
 46 80 56 74 64 64 c 1
 64 112 l 1
 80 112 l 1
 80 64 l 1
 88 74 98 80 112 80 c 0
 136 80 144 72 144 40 c 0
 144 6 134 0 80 0 c 2
 64 0 l 2
80 16 m 1
 128 16 128 16 128 40 c 0
 128 64 128 64 112 64 c 0
 92 64 80 48 80 16 c 1
EndSplineSet
Validated: 1
EndChar

StartChar: uni0239
Encoding: 569 569 504
Width: 160
GlyphClass: 2
Flags: W
HStem: 16 16<18.5524 64 80 125.448> 64 16<16.8088 46.4343 97.5657 127.191>
VStem: 0 16<35.1199 63.1912> 64 16<-16 16 32 46.5117 66 80> 128 16<35.1199 63.1912>
CounterMasks: 1 38
AnchorPoint: "Anchor-1" 40 0 basechar 0
AnchorPoint: "Anchor-0" 40 80 basechar 0
LayerCount: 2
Fore
SplineSet
64 32 m 1
 64 48 48 64 32 64 c 0
 16 64 16 64 16 48 c 0
 16 32 16 32 64 32 c 1
64 16 m 1
 12 16 0 22 0 48 c 0
 0 72 8 80 32 80 c 0
 44 80 56 74 64 66 c 1
 64 80 l 1
 80 80 l 1
 80 66 l 1
 88 74 100 80 112 80 c 0
 136 80 144 72 144 48 c 0
 144 22 132 16 80 16 c 1
 80 -16 l 1
 64 -16 l 1
 64 16 l 1
80 32 m 1
 128 32 128 32 128 48 c 0
 128 64 128 64 112 64 c 0
 96 64 80 48 80 32 c 1
EndSplineSet
Validated: 1
EndChar

StartChar: uni023A
Encoding: 570 570 505
Width: 96
GlyphClass: 2
Flags: W
HStem: 0 21G<0 26 64 80> 64 16<16 32 56 64> 96 16<18.3394 47.0682>
VStem: 0 16<32 64 80 93.5369> 64 16<0 64 80 91.8154>
LayerCount: 2
Fore
SplineSet
56 80 m 1
 64 80 l 1
 64 88 64 88 62 92 c 1
 56 80 l 1
48 64 m 1
 16 0 l 1
 0 0 l 1
 0 80 l 2
 0 104 8 112 40 112 c 0
 72 112 80 104 80 80 c 2
 80 0 l 1
 64 0 l 1
 64 64 l 1
 48 64 l 1
40 80 m 1
 48 96 l 1
 16 96 16 96 16 80 c 1
 40 80 l 1
32 64 m 1
 16 64 l 1
 16 32 l 1
 32 64 l 1
EndSplineSet
Validated: 1
EndChar

StartChar: uni023B
Encoding: 571 571 506
Width: 96
GlyphClass: 2
Flags: W
HStem: 0 16<20.4248 62.5729> 96 16<20.25 59.5752>
VStem: 0 16<36.975 91.4606> 64 16<17.6587 32>
LayerCount: 2
Fore
SplineSet
0 56 m 0
 0 104 8 112 40 112 c 0
 74 112 80 102 80 80 c 1
 68 80 l 1
 20 16 l 1
 40 16 l 2
 64 16 64 16 64 32 c 1
 80 32 l 1
 80 8 72 0 40 0 c 0
 6 0 0 10 0 56 c 0
60 96 m 1
 40 96 l 2
 16 96 16 96 16 56 c 2
 16 36 l 1
 60 96 l 1
EndSplineSet
Validated: 1
EndChar

StartChar: uni023C
Encoding: 572 572 507
Width: 96
GlyphClass: 2
Flags: W
HStem: 0 16<32.9318 62.5729> 64 16<18.3394 55.5742>
VStem: 0 16<24.4258 61.6606> 64 16<17.6587 32>
LayerCount: 2
Fore
SplineSet
40 0 m 0
 8 0 0 8 0 40 c 0
 0 72 8 80 40 80 c 0
 72 80 80 72 80 48 c 1
 64 48 l 1
 32 16 l 1
 40 16 l 2
 64 16 64 16 64 32 c 1
 80 32 l 1
 80 8 72 0 40 0 c 0
56 64 m 1
 40 64 l 2
 16 64 16 64 16 40 c 2
 16 24 l 1
 56 64 l 1
EndSplineSet
Validated: 1
EndChar

StartChar: uni023D
Encoding: 573 573 508
Width: 112
GlyphClass: 2
Flags: W
HStem: 0 16<32 96> 48 16<0 16 32 48> 92 20G<16 32>
VStem: 16 16<16 48 64 112>
LayerCount: 2
Fore
SplineSet
16 112 m 1
 32 112 l 1
 32 64 l 1
 48 64 l 1
 48 48 l 1
 32 48 l 1
 32 16 l 1
 96 16 l 1
 96 0 l 1
 16 0 l 1
 16 48 l 1
 0 48 l 1
 0 64 l 1
 16 64 l 1
 16 112 l 1
EndSplineSet
Validated: 1
EndChar

StartChar: uni023E
Encoding: 574 574 509
Width: 96
GlyphClass: 2
Flags: W
HStem: 0 21G<32 48> 96 16<0 32 48 60>
VStem: 32 16<0 32 80 96>
LayerCount: 2
Fore
SplineSet
0 112 m 1
 80 112 l 1
 80 96 l 1
 48 52 l 1
 48 0 l 1
 32 0 l 1
 32 32 l 1
 20 16 l 1
 0 16 l 1
 32 60 l 1
 32 96 l 1
 0 96 l 1
 0 112 l 1
60 96 m 1
 48 96 l 1
 48 80 l 1
 60 96 l 1
EndSplineSet
Validated: 1
EndChar

StartChar: uni023F
Encoding: 575 575 510
Width: 96
GlyphClass: 2
Flags: W
HStem: -32 16<52.7588 80> 0 16<0 10.835 33 47.1736> 32 16<16.5754 63.4246> 64 16<33.0929 80>
VStem: 0 16<48.9229 62.0969> 64 16<17.8055 31.0771>
AnchorPoint: "Anchor-1" 40 0 basechar 0
AnchorPoint: "Anchor-0" 40 80 basechar 0
LayerCount: 2
Fore
SplineSet
64 24 m 0
 64 32 64 32 40 32 c 0
 10 32 0 38 0 56 c 0
 0 76 12 80 80 80 c 1
 80 64 l 1
 16 64 16 64 16 56 c 0
 16 48 16 48 40 48 c 0
 70 48 80 42 80 24 c 0
 80 6 70 0 33 0 c 1
 44 -10 56 -16 80 -16 c 1
 80 -32 l 1
 32 -32 16 0 0 0 c 1
 0 16 l 1
 64 16 64 16 64 24 c 0
EndSplineSet
Validated: 1
EndChar

StartChar: uni0240
Encoding: 576 576 511
Width: 96
GlyphClass: 2
Flags: W
HStem: -16 16<62.1486 80> 0 16<24 41.8514> 64 16<0 56>
AnchorPoint: "Anchor-1" 40 0 basechar 0
AnchorPoint: "Anchor-0" 40 80 basechar 0
LayerCount: 2
Fore
SplineSet
80 64 m 1x60
 24 16 l 1x60
 56 16 56 0 80 0 c 1
 80 -16 l 1xa0
 48 -16 48 0 24 0 c 1
 0 0 l 1
 0 16 l 1
 56 64 l 1
 0 64 l 1
 0 80 l 1
 80 80 l 1
 80 64 l 1x60
EndSplineSet
Validated: 1
EndChar

StartChar: uni0241
Encoding: 577 577 512
Width: 96
GlyphClass: 2
Flags: W
HStem: 0 21G<32 48> 32 16<48 62.3413> 80 21G<0 16> 96 16<17.2705 61.7139>
VStem: 0 16<80 94.3413> 32 16<0 32> 64 16<49.2705 93.7139>
CounterMasks: 1 0e
LayerCount: 2
Fore
SplineSet
32 0 m 1xde
 32 48 l 1
 48 48 l 2
 64 48 64 48 64 72 c 0
 64 96 64 96 40 96 c 0xde
 16 96 16 96 16 80 c 1
 0 80 l 1xee
 0 104 8 112 40 112 c 0
 72 112 80 104 80 72 c 0
 80 40 72 32 48 32 c 1
 48 0 l 1
 32 0 l 1xde
EndSplineSet
Validated: 1
EndChar

StartChar: uni0242
Encoding: 578 578 513
Width: 96
GlyphClass: 2
Flags: W
HStem: 0 32<32 48> 16 16<48 63.125> 64 16<17.2705 62.7295>
VStem: 0 16<48 62.3413> 32 16<0 16> 64 16<32.8088 62.4263>
CounterMasks: 1 1c
LayerCount: 2
Fore
SplineSet
32 0 m 1xbc
 32 32 l 1
 48 32 l 2xbc
 64 32 64 32 64 48 c 0
 64 64 64 64 40 64 c 0
 16 64 16 64 16 48 c 1
 0 48 l 1
 0 72 8 80 40 80 c 0
 72 80 80 72 80 48 c 0
 80 24 72 16 48 16 c 1x7c
 48 0 l 1
 32 0 l 1xbc
EndSplineSet
Validated: 1
EndChar

StartChar: uni0243
Encoding: 579 579 514
Width: 112
GlyphClass: 2
Flags: W
HStem: 0 16<32 75.5342> 32 16<0 16 32 64> 64 16<32 75.5342> 96 16<32 79.1663>
VStem: 16 16<16 32 48 64 80 96> 80 16<20.4736 59.7789 81.4868 94.2901>
AnchorPoint: "Anchor-1" 24 0 basechar 0
AnchorPoint: "Anchor-0" 40 112 basechar 0
LayerCount: 2
Fore
SplineSet
32 16 m 1
 80 16 80 16 80 40 c 0
 80 64 80 64 32 64 c 1
 32 48 l 1
 64 48 l 1
 64 32 l 1
 32 32 l 1
 32 16 l 1
32 80 m 1
 80 80 80 80 80 88 c 0
 80 96 80 96 32 96 c 1
 32 80 l 1
16 32 m 1
 0 32 l 1
 0 48 l 1
 16 48 l 1
 16 112 l 1
 32 112 l 2
 88 112 96 108 96 88 c 0
 96 80 94 76 88 72 c 1
 94 68 96 62 96 40 c 0
 96 4 88 0 32 0 c 2
 16 0 l 1
 16 32 l 1
EndSplineSet
Validated: 1
EndChar

StartChar: uni0244
Encoding: 580 580 515
Width: 128
GlyphClass: 2
Flags: W
HStem: 0 16<36.2607 75.7393> 64 16<0 16 32 80 96 112> 92 20G<16 32 80 96>
VStem: 16 16<20.4658 64 80 112> 80 16<20.4658 64 80 112>
LayerCount: 2
Fore
SplineSet
80 64 m 1
 32 64 l 1
 32 16 32 16 56 16 c 0
 80 16 80 16 80 64 c 1
96 64 m 1
 96 8 88 0 56 0 c 0
 24 0 16 8 16 64 c 1
 0 64 l 1
 0 80 l 1
 16 80 l 1
 16 112 l 1
 32 112 l 1
 32 80 l 1
 80 80 l 1
 80 112 l 1
 96 112 l 1
 96 80 l 1
 112 80 l 1
 112 64 l 1
 96 64 l 1
EndSplineSet
Validated: 1
EndChar

StartChar: uni0245
Encoding: 581 581 516
Width: 96
GlyphClass: 2
Flags: W
HStem: 0 21G<0 16 64 80> 92 20G<24 56>
VStem: 0 16<0 46.4101> 64 16<0 46.4101>
AnchorPoint: "Anchor-1" 40 112 basechar 0
AnchorPoint: "Anchor-0" 40 0 basechar 0
LayerCount: 2
Fore
SplineSet
40 96 m 1
 22 68 16 56 16 0 c 1
 0 0 l 1
 0 72 16 86 32 112 c 1
 48 112 l 1
 64 86 80 72 80 0 c 1
 64 0 l 1
 64 56 58 68 40 96 c 1
  Spiro
    40 96 v
    25.7884 71.5796 o
    18.2176 43.7441 o
    16 0 v
    0 0 v
    4.7319 55.2181 o
    16.6068 87.4332 o
    32 112 v
    48 112 v
    63.3932 87.4332 o
    75.2681 55.2181 o
    80 0 v
    64 0 v
    61.7824 43.7441 o
    54.2116 71.5796 o
    0 0 z
  EndSpiro
EndSplineSet
Validated: 1
EndChar

StartChar: uni0246
Encoding: 582 582 517
Width: 96
GlyphClass: 2
Flags: W
HStem: 0 16<16 80> 64 16<16 36> 96 16<16 60>
VStem: 0 16<40 64 80 96>
LayerCount: 2
Fore
SplineSet
0 112 m 1
 80 112 l 1
 80 96 l 1
 16 16 l 1
 80 16 l 1
 80 0 l 1
 0 0 l 1
 0 112 l 1
60 96 m 1
 16 96 l 1
 16 80 l 1
 48 80 l 1
 60 96 l 1
36 64 m 1
 16 64 l 1
 16 40 l 1
 36 64 l 1
EndSplineSet
Validated: 1
EndChar

StartChar: uni0247
Encoding: 583 583 518
Width: 112
GlyphClass: 2
Flags: W
HStem: 0 16<48.4104 96> 64 16<33.2705 77.7813>
VStem: 16 80<32 72> 16 16<48 62.3413>
AnchorPoint: "Anchor-1" 56 0 basechar 0
AnchorPoint: "Anchor-0" 56 80 basechar 0
LayerCount: 2
Fore
SplineSet
34 20 m 1xe0
 42 16 50 16 96 16 c 1
 96 0 l 1xe0
 40 0 28 4 20 12 c 1
 0 0 l 1
 0 16 l 1
 16 26 l 1xd0
 16 48 l 2
 16 72 24 80 56 80 c 0
 88 80 96 72 96 48 c 2
 96 32 l 1
 54 32 l 1
 34 20 l 1xe0
78 62 m 1
 76 64 68 64 56 64 c 0
 32 64 32 64 32 48 c 1xd0
 54 48 l 1
 78 62 l 1
EndSplineSet
Validated: 1
EndChar

StartChar: uni0248
Encoding: 584 584 519
Width: 112
GlyphClass: 2
Flags: W
HStem: 0 16<17.2705 59.7393> 64 16<48 64 80 96> 92 20G<64 80>
VStem: 0 16<17.6587 32> 64 16<20.4658 64 80 112>
LayerCount: 2
Fore
SplineSet
40 0 m 0
 8 0 0 8 0 32 c 1
 16 32 l 1
 16 16 16 16 40 16 c 0
 64 16 64 16 64 64 c 1
 48 64 l 1
 48 80 l 1
 64 80 l 1
 64 112 l 1
 80 112 l 1
 80 80 l 1
 96 80 l 1
 96 64 l 1
 80 64 l 1
 80 8 72 0 40 0 c 0
EndSplineSet
Validated: 1
EndChar

StartChar: uni0249
Encoding: 585 585 520
Width: 112
GlyphClass: 2
Flags: W
HStem: -16 16<19.1401 59.7393> 48 16<48 64 80 96> 60 20G<64 80> 96 16<64 80>
VStem: 0 16<3.14258 32> 64 16<4.46576 48 64 80 96 112>
LayerCount: 2
Fore
SplineSet
40 -16 m 0xdc
 8 -16 0 -8 0 32 c 1
 16 32 l 1
 16 0 16 0 40 0 c 0
 64 0 64 0 64 48 c 1
 48 48 l 1
 48 64 l 1
 64 64 l 1xdc
 64 80 l 1
 80 80 l 1xbc
 80 64 l 1
 96 64 l 1
 96 48 l 1
 80 48 l 1
 80 -8 72 -16 40 -16 c 0xdc
64 112 m 1
 80 112 l 1
 80 96 l 1
 64 96 l 1
 64 112 l 1
EndSplineSet
Validated: 1
EndChar

StartChar: uni024A
Encoding: 586 586 521
Width: 112
GlyphClass: 2
Flags: W
HStem: -16 16<81.6587 96> 0 16<18.4567 46.0791> 96 16<23.4556 64>
VStem: 0 16<18.0597 88.946> 64 16<0.903893 18 49.0859 96>
LayerCount: 2
Fore
SplineSet
96 -16 m 1xb8
 72 -16 64 -8 64 18 c 1
 56 6 48 0 32 0 c 0x78
 6 0 0 8 0 56 c 0
 0 104 6 112 64 112 c 2
 80 112 l 1
 80 18 l 2
 80 0 80 0 96 0 c 1
 96 -16 l 1xb8
64 96 m 1
 16 96 16 96 16 56 c 0
 16 16 16 16 32 16 c 0
 52 16 64 32 64 96 c 1
EndSplineSet
Validated: 1
EndChar

StartChar: uni024B
Encoding: 587 587 522
Width: 112
GlyphClass: 2
Flags: W
HStem: -16 16<80.875 96> 16 16<18.5524 64> 64 16<16.8088 46.4343>
VStem: 0 16<35.1199 63.1912> 64 16<0.875 16 32 46.5117 66 80>
AnchorPoint: "Anchor-0" 40 80 basechar 0
LayerCount: 2
Fore
SplineSet
64 32 m 1
 64 48 48 64 32 64 c 0
 16 64 16 64 16 48 c 0
 16 32 16 32 64 32 c 1
80 80 m 1
 80 16 l 2
 80 0 80 0 96 0 c 1
 96 -16 l 1
 72 -16 64 -8 64 16 c 1
 12 16 0 22 0 48 c 0
 0 72 8 80 32 80 c 0
 44 80 56 74 64 66 c 1
 64 80 l 1
 80 80 l 1
EndSplineSet
Validated: 1
EndChar

StartChar: uni024C
Encoding: 588 588 523
Width: 112
GlyphClass: 2
Flags: W
HStem: 0 21G<16 32 80 96> 64 16<0 16 32 69.1384> 96 16<32 79.1663>
VStem: 16 16<0 64 80 96> 80 16<0 47.0654 81.5173 94.2901>
AnchorPoint: "Anchor-0" 56 112 basechar 0
AnchorPoint: "Anchor-1" 56 0 basechar 0
LayerCount: 2
Fore
SplineSet
32 0 m 1
 16 0 l 1
 16 64 l 1
 0 64 l 1
 0 80 l 1
 16 80 l 1
 16 112 l 1
 32 112 l 2
 88 112 96 108 96 88 c 0
 96 76 92 72 84 68 c 1
 92 60 96 48 96 0 c 1
 80 0 l 1
 80 64 80 64 32 64 c 1
 32 0 l 1
32 80 m 1
 80 80 80 80 80 88 c 0
 80 96 80 96 32 96 c 1
 32 80 l 1
EndSplineSet
Validated: 1
EndChar

StartChar: uni024D
Encoding: 589 589 524
Width: 112
GlyphClass: 2
Flags: W
HStem: 0 21G<16 32> 16 16<0 16 32 48> 64 16<49.5657 79.1912>
VStem: 16 16<0 16 32 46.5117 66 80> 80 16<48 63.125>
AnchorPoint: "Anchor-0" 56 80 basechar 0
LayerCount: 2
Fore
SplineSet
64 80 m 0x78
 88 80 96 72 96 48 c 1
 80 48 l 1
 80 64 80 64 64 64 c 0
 48 64 32 48 32 32 c 1
 48 32 l 1
 48 16 l 1
 32 16 l 1x78
 32 0 l 1
 16 0 l 1xb8
 16 16 l 1
 0 16 l 1
 0 32 l 1
 16 32 l 1
 16 80 l 1
 32 80 l 1
 32 66 l 1
 40 74 52 80 64 80 c 0x78
EndSplineSet
Validated: 1
EndChar

StartChar: uni024E
Encoding: 590 590 525
Width: 128
GlyphClass: 2
Flags: W
HStem: 0 21G<48 64> 80 16<0 24 48 64 88 112>
VStem: 48 16<0 48>
LayerCount: 2
Fore
SplineSet
16 112 m 1
 34 112 l 1
 42 96 l 1
 70 96 l 1
 78 112 l 1
 96 112 l 1
 88 96 l 1
 112 96 l 1
 112 80 l 1
 80 80 l 1
 64 48 l 1
 64 0 l 1
 48 0 l 1
 48 48 l 1
 32 80 l 1
 0 80 l 1
 0 96 l 1
 24 96 l 1
 16 112 l 1
48 80 m 1
 56 62 l 1
 64 80 l 1
 48 80 l 1
EndSplineSet
Validated: 1
EndChar

StartChar: uni024F
Encoding: 591 591 526
Width: 128
GlyphClass: 2
Flags: W
HStem: -16 16<16 62.9071> 16 16<35.1406 80> 48 16<0 16 32 80 96 112> 60 20G<16 32 80 96>
VStem: 16 16<35.2884 48 64 80> 80 16<3.62054 16 32 48 64 80>
LayerCount: 2
Fore
SplineSet
16 48 m 1xec
 0 48 l 1
 0 64 l 1
 16 64 l 1xec
 16 80 l 1
 32 80 l 1xdc
 32 64 l 1
 80 64 l 1xec
 80 80 l 1
 96 80 l 1xdc
 96 64 l 1
 112 64 l 1
 112 48 l 1
 96 48 l 1
 96 16 l 2
 96 -12 84 -16 16 -16 c 1
 16 0 l 1
 80 0 80 0 80 16 c 1
 24 16 16 24 16 48 c 1xec
32 48 m 1
 32 32 32 32 80 32 c 1
 80 48 l 1
 32 48 l 1
EndSplineSet
Validated: 1
EndChar

StartChar: uni0250
Encoding: 592 592 527
AltUni2: 001d44.ffffffff.0
Width: 96
GlyphClass: 2
Flags: W
HStem: 0 16<18.8338 64> 32 16<16 63.5977> 64 16<16 63.5977>
VStem: 0 16<19.5879 32 48 64> 64 16<49.7099 62.2901>
CounterMasks: 1 e0
AnchorPoint: "Anchor-1" 40 80 basechar 0
AnchorPoint: "Anchor-0" 40 0 basechar 0
LayerCount: 2
Fore
SplineSet
64 56 m 0
 64 64 64 64 16 64 c 1
 16 48 l 1
 64 48 64 48 64 56 c 0
64 0 m 1
 10 0 0 4 0 32 c 2
 0 80 l 1
 16 80 l 2
 68 80 80 76 80 56 c 0
 80 36 68 32 16 32 c 1
 16 16 16 16 64 16 c 1
 64 0 l 1
EndSplineSet
Validated: 1
EndChar

StartChar: uni0251
Encoding: 593 593 528
AltUni2: 001d45.ffffffff.0
Width: 96
GlyphClass: 2
Flags: W
HStem: 0 16<21.251 64> 64 16<17.5737 47.0518>
VStem: 0 16<20.3481 62.7295> 64 16<16 43.3281 64 80>
AnchorPoint: "Anchor-1" 40 0 basechar 0
AnchorPoint: "Anchor-0" 40 80 basechar 0
LayerCount: 2
Fore
SplineSet
64 64 m 1
 64 80 l 1
 80 80 l 1
 80 16 l 1
 80 0 l 1
 64 0 l 2
 10 0 0 6 0 40 c 0
 0 72 8 80 32 80 c 0
 46 80 56 74 64 64 c 1
64 16 m 1
 64 48 52 64 32 64 c 0
 16 64 16 64 16 40 c 0
 16 16 16 16 64 16 c 1
EndSplineSet
Validated: 1
EndChar

StartChar: uni0252
Encoding: 594 594 529
Width: 96
GlyphClass: 2
Flags: W
HStem: 0 16<32.9482 62.4263> 64 16<16 58.749>
VStem: 0 16<0 16 36.6719 64> 64 16<17.2705 59.6519>
AnchorPoint: "Anchor-1" 40 80 basechar 0
AnchorPoint: "Anchor-0" 40 0 basechar 0
LayerCount: 2
Fore
SplineSet
16 16 m 1
 16 0 l 1
 0 0 l 1
 0 64 l 1
 0 80 l 1
 16 80 l 2
 70 80 80 74 80 40 c 0
 80 8 72 0 48 0 c 0
 34 0 24 6 16 16 c 1
16 64 m 1
 16 32 28 16 48 16 c 0
 64 16 64 16 64 40 c 0
 64 64 64 64 16 64 c 1
EndSplineSet
Validated: 1
EndChar

StartChar: uni0253
Encoding: 595 595 530
Width: 96
GlyphClass: 2
Flags: W
HStem: 0 16<16 58.749> 64 16<32.9482 62.4263> 96 16<22.9658 64>
VStem: 0 16<16 43.3281 64 89.5514> 64 16<20.3481 62.7295>
LayerCount: 2
Fore
SplineSet
16 64 m 1
 24 74 34 80 48 80 c 0
 72 80 80 72 80 40 c 0
 80 6 70 0 16 0 c 2
 0 0 l 1
 0 64 l 2
 0 104 8 112 64 112 c 1
 64 96 l 1
 16 96 16 96 16 64 c 1
16 16 m 1
 64 16 64 16 64 40 c 0
 64 64 64 64 48 64 c 0
 28 64 16 48 16 16 c 1
EndSplineSet
Validated: 1
EndChar

StartChar: uni0254
Encoding: 596 596 531
AltUni2: 001d53.ffffffff.0
Width: 96
GlyphClass: 2
Flags: W
HStem: 0 16<17.2705 61.7139> 64 16<17.2705 61.7139>
VStem: 0 16<17.6587 32 48 62.3413> 64 16<18.2861 61.7139>
AnchorPoint: "Anchor-0" 40 80 basechar 0
LayerCount: 2
Fore
SplineSet
40 0 m 0
 8 0 0 8 0 32 c 1
 16 32 l 1
 16 16 16 16 40 16 c 0
 64 16 64 16 64 40 c 0
 64 64 64 64 40 64 c 0
 16 64 16 64 16 48 c 1
 0 48 l 1
 0 72 8 80 40 80 c 0
 72 80 80 72 80 40 c 0
 80 8 72 0 40 0 c 0
EndSplineSet
Validated: 1
EndChar

StartChar: uni0255
Encoding: 597 597 532
Width: 96
GlyphClass: 2
Flags: W
HStem: 0 16<17.662 32 48 63.1656> 32 16<48.4248 63.7273> 64 16<20.4658 64>
VStem: 0 16<17.2705 59.7393> 32 16<-16 0 16 31.125> 64 16<16.4151 31.737>
CounterMasks: 1 fc
LayerCount: 2
Fore
SplineSet
48 16 m 1
 64 16 64 16 64 24 c 0
 64 32 64 32 56 32 c 0
 48 32 48 32 48 16 c 1
56 48 m 0
 76 48 80 40 80 24 c 0
 80 8 74 0 48 0 c 1
 48 -16 l 1
 32 -16 l 1
 32 0 l 1
 6 0 0 8 0 40 c 0
 0 72 8 80 64 80 c 1
 64 64 l 1
 16 64 16 64 16 40 c 0
 16 16 16 16 32 16 c 1
 32 40 36 48 56 48 c 0
EndSplineSet
Validated: 1
EndChar

StartChar: uni0256
Encoding: 598 598 533
Width: 112
GlyphClass: 2
Flags: W
HStem: -16 16<80.875 96> 0 16<21.251 64> 64 16<17.5737 47.0518> 92 20G<64 80>
VStem: 0 16<20.3481 62.7295> 64 16<0 0 16 43.3281 64 112>
AnchorPoint: "Anchor-1" 40 0 basechar 0
LayerCount: 2
Fore
SplineSet
64 16 m 1x7c
 64 48 52 64 32 64 c 0
 16 64 16 64 16 40 c 0
 16 16 16 16 64 16 c 1x7c
64 112 m 1
 80 112 l 1
 80 16 l 2x7c
 80 0 80 0 96 0 c 1
 96 -16 l 1xbc
 72 -16 64 -8 64 0 c 1
 10 0 0 6 0 40 c 0
 0 72 8 80 32 80 c 0
 46 80 56 74 64 64 c 1
 64 112 l 1
EndSplineSet
Validated: 1
EndChar

StartChar: uni0257
Encoding: 599 599 534
Width: 112
GlyphClass: 2
Flags: W
HStem: 0 16<21.251 64> 64 16<17.5737 47.0518> 96 16<82.1735 96>
VStem: 0 16<20.3481 62.7295> 64 16<16 43.3281 64 93.8869>
AnchorPoint: "Anchor-1" 40 0 basechar 0
LayerCount: 2
Fore
SplineSet
64 16 m 1
 64 48 52 64 32 64 c 0
 16 64 16 64 16 40 c 0
 16 16 16 16 64 16 c 1
64 0 m 2
 10 0 0 6 0 40 c 0
 0 72 8 80 32 80 c 0
 46 80 56 74 64 64 c 1
 64 104 64 112 96 112 c 1
 96 96 l 1
 80 96 80 96 80 64 c 2
 80 0 l 1
 64 0 l 2
EndSplineSet
Validated: 1
EndChar

StartChar: uni0258
Encoding: 600 600 535
Width: 96
GlyphClass: 2
Flags: W
HStem: 0 16<0 46.9071> 32 16<16 64> 64 16<17.2705 62.7295>
VStem: 0 16<48 62.3413> 64 16<19.6205 32 48 62.3413>
CounterMasks: 1 e0
AnchorPoint: "Anchor-1" 40 0 basechar 0
AnchorPoint: "Anchor-0" 40 80 basechar 0
LayerCount: 2
Fore
SplineSet
64 48 m 1
 64 64 64 64 40 64 c 0
 16 64 16 64 16 48 c 1
 64 48 l 1
0 0 m 1
 0 16 l 1
 64 16 64 16 64 32 c 1
 0 32 l 1
 0 48 l 2
 0 72 8 80 40 80 c 0
 72 80 80 72 80 48 c 2
 80 32 l 2
 80 4 68 0 0 0 c 1
EndSplineSet
Validated: 1
EndChar

StartChar: uni0259
Encoding: 601 601 536
AltUni2: 001d4a.ffffffff.0
Width: 96
GlyphClass: 2
Flags: W
HStem: 0 16<17.2705 62.7295> 32 16<16 64> 64 16<0 46.9071>
VStem: 0 16<17.6587 32> 64 16<17.6587 32 48 60.3795>
CounterMasks: 1 e0
AnchorPoint: "Anchor-1" 40 80 basechar 0
AnchorPoint: "Anchor-0" 40 0 basechar 0
LayerCount: 2
Fore
SplineSet
64 32 m 1
 16 32 l 1
 16 16 16 16 40 16 c 0
 64 16 64 16 64 32 c 1
0 80 m 1
 68 80 80 76 80 48 c 2
 80 32 l 2
 80 8 72 0 40 0 c 0
 8 0 0 8 0 32 c 2
 0 48 l 1
 64 48 l 1
 64 64 64 64 0 64 c 1
 0 80 l 1
EndSplineSet
Validated: 1
EndChar

StartChar: uni025A
Encoding: 602 602 537
Width: 128
GlyphClass: 2
Flags: W
HStem: 0 16<17.2705 62.7295> 32 16<16 64 96.875 112> 64 16<0 47.1736>
VStem: 0 16<17.6587 32> 64 16<17.6587 32>
CounterMasks: 1 e0
AnchorPoint: "Anchor-1" 40 80 basechar 0
AnchorPoint: "Anchor-0" 40 0 basechar 0
LayerCount: 2
Fore
SplineSet
64 32 m 1
 16 32 l 1
 16 16 16 16 40 16 c 0
 64 16 64 16 64 32 c 1
80 48 m 1
 80 32 l 2
 80 8 72 0 40 0 c 0
 8 0 0 8 0 32 c 2
 0 48 l 1
 64 48 l 1
 64 64 64 64 0 64 c 1
 0 80 l 1
 64 80 76 76 80 64 c 1
 96 64 l 1
 96 48 96 48 112 48 c 1
 112 32 l 1
 88 32 80 40 80 48 c 1
EndSplineSet
Validated: 1
EndChar

StartChar: uni025B
Encoding: 603 603 538
AltUni2: 001d4b.ffffffff.0
Width: 96
GlyphClass: 2
Flags: W
HStem: 0 16<33.0929 80> 32 16<16.2682 48> 64 16<33.0929 80>
VStem: 0 16<17.9031 30.9973 49.0027 62.0969>
CounterMasks: 1 e0
AnchorPoint: "Anchor-0" 40 80 basechar 0
LayerCount: 2
Fore
SplineSet
48 32 m 1
 16 32 16 32 16 24 c 0
 16 16 16 16 80 16 c 1
 80 0 l 1
 12 0 0 4 0 24 c 0
 0 32 2 36 8 40 c 1
 2 44 0 48 0 56 c 0
 0 76 12 80 80 80 c 1
 80 64 l 1
 16 64 16 64 16 56 c 0
 16 48 16 48 48 48 c 1
 48 32 l 1
EndSplineSet
Validated: 1
EndChar

StartChar: uni025C
Encoding: 604 604 539
AltUni2: 001d4c.ffffffff.0
Width: 96
GlyphClass: 2
Flags: W
HStem: 0 16<0 46.9071> 32 16<32 63.7318> 64 16<0 46.9071>
VStem: 64 16<17.9031 30.9973 49.0027 62.0969>
CounterMasks: 1 e0
AnchorPoint: "Anchor-0" 40 0 basechar 0
LayerCount: 2
Fore
SplineSet
32 48 m 1
 64 48 64 48 64 56 c 0
 64 64 64 64 0 64 c 1
 0 80 l 1
 68 80 80 76 80 56 c 0
 80 48 78 44 72 40 c 1
 78 36 80 32 80 24 c 0
 80 4 68 0 0 0 c 1
 0 16 l 1
 64 16 64 16 64 24 c 0
 64 32 64 32 32 32 c 1
 32 48 l 1
EndSplineSet
Validated: 1
EndChar

StartChar: uni025D
Encoding: 605 605 540
Width: 128
GlyphClass: 2
Flags: W
HStem: 0 16<0 46.9071> 32 16<32 63.7318 96.875 112> 64 16<0 47.1736>
VStem: 64 32<49 62.1897> 64 16<17.9031 30.9973>
CounterMasks: 1 e0
AnchorPoint: "Anchor-1" 40 80 basechar 0
AnchorPoint: "Anchor-0" 40 0 basechar 0
LayerCount: 2
Fore
SplineSet
80 47 m 1xe8
 80 43 78 42 72 40 c 1
 78 36 80 32 80 24 c 0
 80 4 68 0 0 0 c 1
 0 16 l 1
 64 16 64 16 64 24 c 0xe8
 64 32 64 32 32 32 c 1
 32 48 l 1
 64 48 64 48 64 56 c 0xf0
 64 64 64 64 0 64 c 1
 0 80 l 1
 64 80 76 76 80 64 c 1xe8
 96 64 l 1xf0
 96 48 96 48 112 48 c 1
 112 32 l 1
 88 32 80 40 80 47 c 1xe8
EndSplineSet
Validated: 1
EndChar

StartChar: uni025E
Encoding: 606 606 541
Width: 96
GlyphClass: 2
Flags: W
HStem: 0 16<18.2861 63.6279> 32 16<32 63.7318> 64 16<18.2861 63.6279>
VStem: 0 16<18.2861 61.7139> 64 16<16.9151 30.9973 49.0027 63.0849>
CounterMasks: 1 e0
LayerCount: 2
Fore
SplineSet
80 24 m 0
 80 8 72 0 40 0 c 0
 8 0 0 8 0 40 c 0
 0 72 8 80 40 80 c 0
 72 80 80 72 80 56 c 0
 80 48 78 44 72 40 c 1
 78 36 80 32 80 24 c 0
64 56 m 0
 64 64 64 64 40 64 c 0
 16 64 16 64 16 40 c 0
 16 16 16 16 40 16 c 0
 64 16 64 16 64 24 c 0
 64 32 64 32 32 32 c 1
 32 48 l 1
 64 48 64 48 64 56 c 0
EndSplineSet
Validated: 1
EndChar

StartChar: uni025F
Encoding: 607 607 542
AltUni2: 001da1.ffffffff.0
Width: 112
GlyphClass: 2
Flags: W
HStem: -16 16<19.1401 59.7393> 48 16<48 64 80 96> 60 20G<64 80>
VStem: 0 16<3.14258 32> 64 16<5.18834 48 64 80>
LayerCount: 2
Fore
SplineSet
40 -16 m 0xd8
 8 -16 0 -8 0 32 c 1
 16 32 l 1
 16 0 16 0 40 0 c 0
 64 0 64 0 64 48 c 1
 48 48 l 1
 48 64 l 1
 64 64 l 1xd8
 64 80 l 1
 80 80 l 1xb8
 80 64 l 1
 96 64 l 1
 96 48 l 1
 80 48 l 1
 80 -12 72 -16 40 -16 c 0xd8
EndSplineSet
Validated: 1
EndChar

StartChar: uni0260
Encoding: 608 608 543
Width: 112
GlyphClass: 2
Flags: W
HStem: -16 16<0 46.9071> 16 16<18.5524 64> 64 16<18.5524 64> 96 16<81.1641 96>
VStem: 0 16<35.1199 60.8801> 64 16<3.62054 16 32 64 80 94.8876>
AnchorPoint: "Anchor-1" 40 -16 basechar 0
AnchorPoint: "Anchor-0" 40 80 basechar 0
LayerCount: 2
Fore
SplineSet
0 -16 m 1
 0 0 l 1
 64 0 64 0 64 16 c 1
 12 16 0 22 0 48 c 0
 0 74 12 80 64 80 c 1
 64 100 64 112 96 112 c 1
 96 96 l 1
 80 96 80 96 80 80 c 2
 80 16 l 2
 80 -12 68 -16 0 -16 c 1
16 48 m 0
 16 32 16 32 64 32 c 1
 64 64 l 1
 16 64 16 64 16 48 c 0
EndSplineSet
Validated: 1
EndChar

StartChar: uni0261
Encoding: 609 609 544
Width: 96
GlyphClass: 2
Flags: W
HStem: -16 16<0 46.9071> 16 16<18.5524 64> 64 16<18.5524 64>
VStem: 0 16<35.1199 60.8801> 64 16<3.62054 16 32 64>
AnchorPoint: "Anchor-1" 40 -16 basechar 0
AnchorPoint: "Anchor-0" 40 80 basechar 0
LayerCount: 2
Fore
SplineSet
16 48 m 0
 16 32 16 32 64 32 c 1
 64 64 l 1
 16 64 16 64 16 48 c 0
0 -16 m 1
 0 0 l 1
 64 0 64 0 64 16 c 1
 12 16 0 22 0 48 c 0
 0 74 12 80 64 80 c 2
 80 80 l 1
 80 16 l 2
 80 -12 68 -16 0 -16 c 1
EndSplineSet
Validated: 1
EndChar

StartChar: uni0262
Encoding: 610 610 545
Width: 96
GlyphClass: 2
Flags: W
HStem: 0 16<18.2861 62.7295> 32 16<48 64> 64 16<33.1917 80>
VStem: 0 16<18.2861 58.66> 48 32<32 48> 64 16<17.6587 32>
CounterMasks: 1 e0
AnchorPoint: "Anchor-0" 40 80 basechar 0
LayerCount: 2
Fore
SplineSet
40 0 m 0xf8
 8 0 0 8 0 40 c 0
 0 72 8 80 80 80 c 1
 80 64 l 1
 16 64 16 64 16 40 c 0
 16 16 16 16 40 16 c 0
 64 16 64 16 64 32 c 1xf4
 48 32 l 1
 48 48 l 1
 80 48 l 1
 80 32 l 2
 80 8 72 0 40 0 c 0xf8
EndSplineSet
Validated: 1
EndChar

StartChar: uni0263
Encoding: 611 611 546
AltUni2: 0002e0.ffffffff.0
Width: 96
GlyphClass: 2
Flags: W
HStem: -16 16<32.263 47.737> 60 20G<0 34.2857 45.7143 80>
VStem: 16 16<0.263016 25.6737> 48 16<0.263016 25.6737>
AnchorPoint: "Anchor-0" 40 80 basechar 0
LayerCount: 2
Fore
SplineSet
50 40 m 1
 62 28 64 22 64 8 c 0
 64 -8 56 -16 40 -16 c 0
 24 -16 16 -8 16 8 c 0
 16 22 18 28 30 40 c 1
 0 80 l 1
 20 80 l 1
 40 52 l 1
 60 80 l 1
 80 80 l 1
 50 40 l 1
32 8 m 0
 32 0 32 0 40 0 c 0
 48 0 48 0 48 8 c 0
 48 22 44 26 40 30 c 1
 36 26 32 22 32 8 c 0
EndSplineSet
Validated: 1
EndChar

StartChar: uni0264
Encoding: 612 612 547
Width: 96
GlyphClass: 2
Flags: W
HStem: 0 16<32.4151 47.5849> 64 16<0 30.1212 49.8788 80>
VStem: 16 16<16.5045 43.5412> 48 16<16.5045 43.5412>
LayerCount: 2
Fore
SplineSet
48 60 m 1
 56 52 64 48 64 32 c 0
 64 8 56 0 40 0 c 0
 24 0 16 8 16 32 c 0
 16 48 24 52 32 60 c 1
 24 64 16 64 0 64 c 1
 0 80 l 1
 24 80 32 76 40 70 c 1
 48 76 56 80 80 80 c 1
 80 64 l 1
 64 64 56 64 48 60 c 1
32 32 m 0
 32 16 32 16 40 16 c 0
 48 16 48 16 48 32 c 0
 48 36 48 40 40 48 c 1
 32 40 32 36 32 32 c 0
EndSplineSet
Validated: 1
EndChar

StartChar: uni0265
Encoding: 613 613 548
Width: 96
GlyphClass: 2
Flags: W
HStem: 0 21G<64 80> 32 16<19.5063 46.4878> 92 20G<0 16 64 80>
VStem: 0 16<65.1917 112> 64 16<0 48 73.6757 112>
AnchorPoint: "Anchor-1" 40 112 basechar 0
AnchorPoint: "Anchor-0" 72 0 basechar 0
LayerCount: 2
Fore
SplineSet
64 112 m 1
 80 112 l 1
 80 0 l 1
 64 0 l 1
 64 48 l 1
 56 38 46 32 32 32 c 0
 6 32 0 40 0 112 c 1
 16 112 l 1
 16 48 16 48 32 48 c 0
 54 48 64 68 64 112 c 1
EndSplineSet
Validated: 1
EndChar

StartChar: uni0266
Encoding: 614 614 549
AltUni2: 0002b1.ffffffff.0
Width: 96
GlyphClass: 2
Flags: W
HStem: 0 21G<0 16 64 80> 64 16<33.5122 60.3958> 96 16<33.1917 80>
VStem: 0 16<0 38.3243 64 88.375> 64 16<0 46.5967>
LayerCount: 2
Fore
SplineSet
16 64 m 1
 24 74 34 80 48 80 c 0
 76 80 80 76 80 0 c 1
 64 0 l 1
 64 64 64 64 48 64 c 0
 26 64 16 44 16 0 c 1
 0 0 l 1
 0 64 l 2
 0 104 8 112 80 112 c 1
 80 96 l 1
 16 96 16 96 16 64 c 1
EndSplineSet
Validated: 1
EndChar

StartChar: uni0267
Encoding: 615 615 550
Width: 96
GlyphClass: 2
Flags: W
HStem: -16 16<32 59.2704> 0 21G<0 16> 64 16<33.5122 61.6753> 96 16<33.1917 80>
VStem: 0 16<0 38.3243 64 88.375> 64 16<3.94526 62.034>
LayerCount: 2
Fore
SplineSet
48 64 m 0xbc
 26 64 16 44 16 0 c 1
 0 0 l 1x7c
 0 64 l 2
 0 104 8 112 80 112 c 1
 80 96 l 1
 16 96 16 96 16 64 c 1
 24 74 34 80 48 80 c 0
 76 80 80 76 80 32 c 0
 80 -4 76 -16 32 -16 c 1
 32 0 l 1
 64 0 64 0 64 32 c 0
 64 64 64 64 48 64 c 0xbc
EndSplineSet
Validated: 1
EndChar

StartChar: uni0268
Encoding: 616 616 551
Width: 64
GlyphClass: 2
Flags: W
HStem: 0 21G<16 32> 32 16<0 16 32 48> 60 20G<16 32> 96 16<16 32>
VStem: 16 16<0 32 48 80 96 112>
LayerCount: 2
Fore
SplineSet
32 96 m 1
 16 96 l 1
 16 112 l 1
 32 112 l 1
 32 96 l 1
32 32 m 1
 32 0 l 1
 16 0 l 1
 16 32 l 1
 0 32 l 1
 0 48 l 1
 16 48 l 1
 16 80 l 1
 32 80 l 1
 32 48 l 1
 48 48 l 1
 48 32 l 1
 32 32 l 1
EndSplineSet
Validated: 1
EndChar

StartChar: uni0269
Encoding: 617 617 552
Width: 48
GlyphClass: 2
Flags: W
HStem: 0 16<20.3094 32> 60 20G<0 16>
VStem: 0 16<33.0859 80>
AnchorPoint: "Anchor-0" 8 80 basechar 0
LayerCount: 2
Fore
SplineSet
0 80 m 1
 16 80 l 1
 16 16 16 16 32 16 c 1
 32 0 l 1
 0 0 0 16 0 80 c 1
EndSplineSet
Validated: 1
EndChar

StartChar: uni026A
Encoding: 618 618 553
Width: 64
GlyphClass: 2
Flags: W
HStem: 0 16<0 16 32 48> 64 16<0 16 32 48>
VStem: 0 48<0 16 64 80>
AnchorPoint: "Anchor-0" 40 80 basechar 0
LayerCount: 2
Fore
SplineSet
0 80 m 1
 48 80 l 1
 48 64 l 1
 32 64 l 1
 32 16 l 1
 48 16 l 1
 48 0 l 1
 0 0 l 1
 0 16 l 1
 16 16 l 1
 16 64 l 1
 0 64 l 1
 0 80 l 1
EndSplineSet
Validated: 1
EndChar

StartChar: uni026B
Encoding: 619 619 554
Width: 96
GlyphClass: 2
Flags: W
HStem: 0 16<50.1735 64> 48 16<48 63.125> 64 16<16.875 32> 92 20G<32 48>
VStem: 0 16<48 63.125> 32 16<17.8242 48 80 112> 64 16<64.875 80>
CounterMasks: 1 0e
LayerCount: 2
Fore
SplineSet
48 64 m 1xde
 64 64 64 64 64 80 c 1
 80 80 l 1xbe
 80 56 72 48 48 48 c 1
 48 16 48 16 64 16 c 1
 64 0 l 1
 32 0 32 16 32 48 c 0xde
 32 64 l 0xbe
 16 64 16 64 16 48 c 1
 0 48 l 1xde
 0 72 8 80 32 80 c 1xbe
 32 112 l 1
 48 112 l 1
 48 64 l 1xde
EndSplineSet
Validated: 1
EndChar

StartChar: uni026C
Encoding: 620 620 555
Width: 80
GlyphClass: 2
Flags: W
HStem: 0 16<48.875 64> 32 16<16.875 32 48 64> 64 16<16.875 32> 92 20G<32 48>
VStem: 0 16<48.4151 63.5849> 32 16<16.875 32 48 64 80 112>
LayerCount: 2
Fore
SplineSet
32 112 m 1
 48 112 l 1
 48 48 l 1
 64 48 l 1
 64 32 l 1
 48 32 l 1
 48 16 48 16 64 16 c 1
 64 0 l 1
 40 0 32 8 32 32 c 1
 8 32 0 40 0 56 c 0
 0 72 8 80 32 80 c 1
 32 112 l 1
32 48 m 1
 32 64 l 1
 16 64 16 64 16 56 c 0
 16 48 16 48 32 48 c 1
EndSplineSet
Validated: 1
EndChar

StartChar: uni026D
Encoding: 621 621 556
AltUni2: 001da9.ffffffff.0
Width: 48
GlyphClass: 2
Flags: W
HStem: -16 16<21.4375 32> 92 20G<0 16>
VStem: 0 16<67.2759 112>
LayerCount: 2
Fore
SplineSet
0 112 m 1
 16 112 l 1
 16 0 16 0 32 0 c 1
 32 -16 l 1
 0 -16 0 0 0 112 c 1
EndSplineSet
Validated: 1
EndChar

StartChar: uni026E
Encoding: 622 622 557
Width: 96
GlyphClass: 2
Flags: W
HStem: -16 16<32 61.8869> 0 21G<0 16> 32 16<32 62.5148> 64 16<16 64> 92 20G<0 16>
VStem: 0 16<0 64 80 112> 64 16<2.23157 29.9247 50.0279 64>
LayerCount: 2
Fore
SplineSet
32 32 m 1xbe
 32 48 l 1
 64 48 64 48 64 64 c 1
 16 64 l 1
 16 0 l 1
 0 0 l 1x7e
 0 112 l 1
 16 112 l 1
 16 80 l 1
 80 80 l 1
 80 64 l 2
 80 48 78 44 72 40 c 1
 78 36 80 26 80 16 c 0
 80 -8 72 -16 32 -16 c 1
 32 0 l 1
 64 0 64 0 64 16 c 0
 64 32 64 32 32 32 c 1xbe
EndSplineSet
Validated: 1
EndChar

StartChar: uni026F
Encoding: 623 623 558
AltUni2: 001d5a.ffffffff.0
Width: 96
GlyphClass: 2
Flags: W
HStem: 0 16<17.9031 30.9973 50.1514 64> 60 20G<0 16 64 80>
VStem: 0 16<33.0929 80> 32 16<17.4852 48> 64 16<16 80>
CounterMasks: 1 38
AnchorPoint: "Anchor-1" 40 80 basechar 0
AnchorPoint: "Anchor-0" 40 0 basechar 0
LayerCount: 2
Fore
SplineSet
64 16 m 1
 64 80 l 1
 80 80 l 1
 80 0 l 1
 64 0 l 2
 52 0 44 2 40 8 c 1
 36 2 32 0 24 0 c 0
 4 0 0 12 0 80 c 1
 16 80 l 1
 16 16 16 16 24 16 c 0
 32 16 32 16 32 48 c 1
 48 48 l 1
 48 16 48 16 64 16 c 1
EndSplineSet
Validated: 1
EndChar

StartChar: uni0270
Encoding: 624 624 559
AltUni2: 001dad.ffffffff.0
Width: 96
GlyphClass: 2
Flags: W
HStem: 0 16<17.9031 30.9973 50.1514 64> 60 20G<0 16 64 80>
VStem: 0 16<33.0929 80> 32 16<17.4852 48> 64 16<-16 0 16 80>
CounterMasks: 1 38
AnchorPoint: "Anchor-1" 40 80 basechar 0
AnchorPoint: "Anchor-0" 40 0 basechar 0
LayerCount: 2
Fore
SplineSet
64 16 m 1
 64 80 l 1
 80 80 l 1
 80 0 l 1
 80 -16 l 1
 64 -16 l 1
 64 0 l 1
 52 0 44 2 40 8 c 1
 36 2 32 0 24 0 c 0
 4 0 0 12 0 80 c 1
 16 80 l 1
 16 16 16 16 24 16 c 0
 32 16 32 16 32 48 c 1
 48 48 l 1
 48 16 48 16 64 16 c 1
EndSplineSet
Validated: 1
EndChar

StartChar: uni0271
Encoding: 625 625 560
AltUni2: 001dac.ffffffff.0
Width: 96
GlyphClass: 2
Flags: W
HStem: -16 16<48 61.3506> 0 21G<0 16> 64 16<16 29.8486 49.0027 62.957>
VStem: 0 16<0 64> 32 16<32 62.5148> 64 16<1.7073 63.3698>
CounterMasks: 1 1c
AnchorPoint: "Anchor-1" 40 0 basechar 0
AnchorPoint: "Anchor-0" 40 80 basechar 0
LayerCount: 2
Fore
SplineSet
56 80 m 0x7c
 72 80 80 68 80 32 c 0
 80 -4 76 -16 48 -16 c 1
 48 0 l 1xbc
 64 0 64 0 64 32 c 0
 64 64 64 64 56 64 c 0
 48 64 48 64 48 32 c 1
 32 32 l 1
 32 64 32 64 16 64 c 1
 16 0 l 1
 0 0 l 1
 0 80 l 1
 16 80 l 2
 28 80 36 78 40 72 c 1
 44 78 48 80 56 80 c 0x7c
EndSplineSet
Validated: 1
EndChar

StartChar: uni0272
Encoding: 626 626 561
AltUni2: 001dae.ffffffff.0
Width: 112
GlyphClass: 2
Flags: W
HStem: -16 16<0 11.6906> 0 21G<80 96> 64 16<32 69.1384>
VStem: 16 16<17.0859 64> 80 16<0 46.8083>
LayerCount: 2
Fore
SplineSet
16 80 m 1xb8
 32 80 l 2
 87 80 96 72 96 0 c 1
 80 0 l 1x78
 80 64 80 64 32 64 c 1
 32 0 32 -16 0 -16 c 1
 0 0 l 1
 16 0 16 0 16 64 c 1
 16 80 l 1xb8
EndSplineSet
Validated: 1
EndChar

StartChar: uni0273
Encoding: 627 627 562
Width: 112
GlyphClass: 2
Flags: W
HStem: -16 16<82.4631 96> 0 21G<0 16> 64 16<16 57.0342>
VStem: 0 16<0 64> 64 16<2.11307 57.5514>
LayerCount: 2
Fore
SplineSet
16 64 m 1xb8
 16 0 l 1
 0 0 l 1x78
 0 80 l 1
 16 80 l 2
 72 80 80 72 80 32 c 0
 80 0 80 0 96 0 c 1
 96 -16 l 1
 72 -16 64 -8 64 32 c 0
 64 64 64 64 16 64 c 1xb8
EndSplineSet
Validated: 1
EndChar

StartChar: uni0274
Encoding: 628 628 563
Width: 96
GlyphClass: 2
Flags: W
HStem: 0 21G<0 16 46.8571 80> 60 20G<0 33.1429 64 80>
VStem: 0 16<0 56> 64 16<24 80>
AnchorPoint: "Anchor-0" 40 80 basechar 0
LayerCount: 2
Fore
SplineSet
64 0 m 1
 16 56 l 1
 16 0 l 1
 0 0 l 1
 0 80 l 1
 16 80 l 1
 64 24 l 1
 64 80 l 1
 80 80 l 1
 80 0 l 1
 64 0 l 1
EndSplineSet
Validated: 1
EndChar

StartChar: uni0275
Encoding: 629 629 564
Width: 96
GlyphClass: 2
Flags: W
HStem: 0 16<17.2705 62.7092> 32 16<16 64> 64 16<17.2705 62.7295>
VStem: 0 16<17.6587 32 48 62.3413> 64 16<17.6587 32 48 62.3413>
CounterMasks: 1 e0
AnchorPoint: "Anchor-0" 40 80 basechar 0
LayerCount: 2
Fore
SplineSet
64 48 m 1
 64 64 64 64 40 64 c 0
 16 64 16 64 16 48 c 1
 64 48 l 1
64 32 m 1
 16 32 l 1
 16 16 16 16 40 16 c 0
 64 16 64 16 64 32 c 1
80 32 m 2
 80 8 74 0 40 0 c 0
 8 0 0 8 0 32 c 2
 0 48 l 2
 0 72 8 80 40 80 c 0
 72 80 80 72 80 48 c 2
 80 32 l 2
EndSplineSet
Validated: 1
EndChar

StartChar: uni0276
Encoding: 630 630 565
Width: 160
GlyphClass: 2
Flags: W
HStem: 0 16<20.4658 64 80 144> 32 16<80 112> 64 16<20.4658 64 80 144>
VStem: 0 16<20.2607 59.7393> 64 16<16 32 48 64>
CounterMasks: 1 e0
AnchorPoint: "Anchor-1" 72 0 basechar 0
AnchorPoint: "Anchor-0" 72 80 basechar 0
LayerCount: 2
Fore
SplineSet
64 64 m 1
 16 64 16 64 16 40 c 0
 16 16 16 16 64 16 c 1
 64 64 l 1
144 80 m 1
 144 64 l 1
 80 64 l 1
 80 48 l 1
 112 48 l 1
 112 32 l 1
 80 32 l 1
 80 16 l 1
 144 16 l 1
 144 0 l 1
 64 0 l 2
 8 0 0 8 0 40 c 0
 0 72 8 80 64 80 c 2
 144 80 l 1
EndSplineSet
Validated: 1
EndChar

StartChar: uni0277
Encoding: 631 631 566
Width: 128
GlyphClass: 2
Flags: W
HStem: 0 16<17.5737 45.986 66.014 94.4263> 64 16<20.1304 91.8696>
VStem: 0 16<17.2705 60.0758> 48 16<17.4852 48> 96 16<17.2705 60.0758>
CounterMasks: 1 38
LayerCount: 2
Fore
SplineSet
80 0 m 0
 64 0 60 2 56 8 c 1
 52 2 48 0 32 0 c 0
 8 0 0 8 0 40 c 0
 0 72 8 80 56 80 c 0
 104 80 112 72 112 40 c 0
 112 8 104 0 80 0 c 0
56 64 m 0
 16 64 16 64 16 40 c 0
 16 16 16 16 32 16 c 0
 48 16 48 16 48 48 c 1
 64 48 l 1
 64 16 64 16 80 16 c 0
 96 16 96 16 96 40 c 0
 96 64 96 64 56 64 c 0
EndSplineSet
Validated: 1
EndChar

StartChar: uni0278
Encoding: 632 632 567
Width: 96
GlyphClass: 2
Flags: W
HStem: 0 16<17.662 32 48 62.338> 64 16<17.6587 32 48 62.3413>
VStem: 0 16<17.2705 62.7295> 32 16<-16 0 16 64 80 96> 64 16<17.2705 62.7295>
CounterMasks: 1 38
LayerCount: 2
Fore
SplineSet
32 96 m 1
 48 96 l 1
 48 80 l 1
 72 80 80 72 80 40 c 0
 80 8 74 0 48 0 c 1
 48 -16 l 1
 32 -16 l 1
 32 0 l 1
 6 0 0 8 0 40 c 0
 0 72 8 80 32 80 c 1
 32 96 l 1
32 64 m 1
 16 64 16 64 16 40 c 0
 16 16 16 16 32 16 c 1
 32 64 l 1
48 16 m 1
 64 16 64 16 64 40 c 0
 64 64 64 64 48 64 c 1
 48 16 l 1
EndSplineSet
Validated: 1
EndChar

StartChar: uni0279
Encoding: 633 633 568
AltUni2: 0002b4.ffffffff.0
Width: 96
GlyphClass: 2
Flags: W
HStem: 0 16<16.8088 46.4878> 60 20G<64 80>
VStem: 0 16<16.875 32> 64 16<0 16 41.6757 80>
AnchorPoint: "Anchor-1" 40 80 basechar 0
AnchorPoint: "Anchor-0" 40 0 basechar 0
LayerCount: 2
Fore
SplineSet
64 16 m 1
 56 6 46 0 32 0 c 0
 8 0 0 8 0 32 c 1
 16 32 l 1
 16 16 16 16 32 16 c 0
 54 16 64 36 64 80 c 1
 80 80 l 1
 80 0 l 1
 64 0 l 1
 64 16 l 1
EndSplineSet
Validated: 1
EndChar

StartChar: uni027A
Encoding: 634 634 569
Width: 96
GlyphClass: 2
Flags: W
HStem: 0 16<16.8088 46.2246>
VStem: 0 16<16.875 32> 64 16<0 16 49.1509 96>
AnchorPoint: "Anchor-0" 72 96 basechar 0
LayerCount: 2
Fore
SplineSet
64 16 m 1
 56 6 46 0 32 0 c 0
 8 0 0 8 0 32 c 1
 16 32 l 1
 16 16 16 16 32 16 c 0
 54 16 64 36 64 96 c 1
 80 96 l 1
 80 0 l 1
 64 0 l 1
 64 16 l 1
EndSplineSet
Validated: 1
EndChar

StartChar: uni027B
Encoding: 635 635 570
AltUni2: 0002b5.ffffffff.0
Width: 112
GlyphClass: 2
Flags: W
HStem: -16 16<81.1641 96> 0 16<16.8088 46.4878> 60 20G<64 80>
VStem: 0 16<16.875 32> 64 16<0.815247 16 41.6757 80>
AnchorPoint: "Anchor-1" 40 80 basechar 0
AnchorPoint: "Anchor-0" 40 0 basechar 0
LayerCount: 2
Fore
SplineSet
80 16 m 2x78
 80 0 80 0 96 0 c 1
 96 -16 l 1xb8
 64 -16 64 0 64 16 c 1
 56 6 46 0 32 0 c 0
 8 0 0 8 0 32 c 1
 16 32 l 1
 16 16 16 16 32 16 c 0
 54 16 64 36 64 80 c 1
 80 80 l 1
 80 16 l 2x78
EndSplineSet
Validated: 1
EndChar

StartChar: uni027C
Encoding: 636 636 571
Width: 96
GlyphClass: 2
Flags: W
HStem: 64 16<33.7754 63.1912>
VStem: 0 16<-16 30.8491 64 80> 64 16<48 63.125>
AnchorPoint: "Anchor-0" 40 80 basechar 0
LayerCount: 2
Fore
SplineSet
16 64 m 1
 24 74 34 80 48 80 c 0
 72 80 80 72 80 48 c 1
 64 48 l 1
 64 64 64 64 48 64 c 0
 26 64 16 44 16 -16 c 1
 0 -16 l 1
 0 80 l 1
 16 80 l 1
 16 64 l 1
EndSplineSet
Validated: 1
EndChar

StartChar: uni027D
Encoding: 637 637 572
Width: 96
GlyphClass: 2
Flags: W
HStem: -16 16<18.4631 32> 64 16<33.5657 63.1912>
VStem: 0 16<2.11307 46.5117 66 80> 64 16<48 63.125>
AnchorPoint: "Anchor-0" 40 80 basechar 0
LayerCount: 2
Fore
SplineSet
16 32 m 0
 16 0 16 0 32 0 c 1
 32 -16 l 1
 8 -16 0 -8 0 32 c 2
 0 80 l 1
 16 80 l 1
 16 66 l 1
 24 74 36 80 48 80 c 0
 72 80 80 72 80 48 c 1
 64 48 l 1
 64 64 64 64 48 64 c 0
 32 64 16 48 16 32 c 0
EndSplineSet
Validated: 1
EndChar

StartChar: uni027E
Encoding: 638 638 573
Width: 96
GlyphClass: 2
Flags: W
HStem: 0 21G<0 16> 64 16<21.34 62.7295>
VStem: 0 16<0 46.8083> 64 16<48 62.3413>
LayerCount: 2
Fore
SplineSet
40 80 m 0
 72 80 80 72 80 48 c 1
 64 48 l 1
 64 64 64 64 40 64 c 0
 16 64 16 64 16 0 c 1
 0 0 l 1
 0 72 8 80 40 80 c 0
EndSplineSet
Validated: 1
EndChar

StartChar: uni027F
Encoding: 639 639 574
Width: 96
GlyphClass: 2
Flags: W
HStem: 64 16<17.2705 57.9314>
VStem: 0 16<48 62.3413> 64 16<-16 30.25>
LayerCount: 2
Fore
SplineSet
40 80 m 0
 72 80 80 72 80 -16 c 1
 64 -16 l 1
 64 64 64 64 40 64 c 0
 16 64 16 64 16 48 c 1
 0 48 l 1
 0 72 8 80 40 80 c 0
EndSplineSet
Validated: 1
EndChar

StartChar: uni0280
Encoding: 640 640 575
Width: 96
GlyphClass: 2
Flags: W
HStem: 0 21G<0 16 64 80> 32 16<16 58> 64 16<16 63.1663>
VStem: 0 16<0 32 48 64> 64 16<0 26.3047 49.5173 62.2901>
AnchorPoint: "Anchor-1" 40 0 basechar 0
AnchorPoint: "Anchor-0" 40 80 basechar 0
LayerCount: 2
Fore
SplineSet
68 36 m 1
 76 32 80 24 80 0 c 1
 64 0 l 1
 64 32 64 32 16 32 c 1
 16 0 l 1
 0 0 l 1
 0 80 l 1
 16 80 l 2
 72 80 80 76 80 56 c 0
 80 44 76 40 68 36 c 1
16 48 m 1
 64 48 64 48 64 56 c 0
 64 64 64 64 16 64 c 1
 16 48 l 1
EndSplineSet
Validated: 1
EndChar

StartChar: uni0281
Encoding: 641 641 576
AltUni2: 0002b6.ffffffff.0
Width: 96
GlyphClass: 2
Flags: W
HStem: 0 16<16 63.1663> 32 16<16 58> 60 20G<0 16 64 80>
VStem: 0 16<16 32 48 80> 64 16<17.7099 30.4827 53.6953 80>
AnchorPoint: "Anchor-1" 40 80 basechar 0
AnchorPoint: "Anchor-0" 40 0 basechar 0
LayerCount: 2
Fore
SplineSet
68 44 m 1
 76 40 80 36 80 24 c 0
 80 4 72 0 16 0 c 2
 0 0 l 1
 0 80 l 1
 16 80 l 1
 16 48 l 1
 64 48 64 48 64 80 c 1
 80 80 l 1
 80 56 76 48 68 44 c 1
16 32 m 1
 16 16 l 1
 64 16 64 16 64 24 c 0
 64 32 64 32 16 32 c 1
EndSplineSet
Validated: 1
EndChar

StartChar: uni0282
Encoding: 642 642 577
AltUni2: 001db3.ffffffff.0
Width: 96
GlyphClass: 2
Flags: W
HStem: -32 16<16.875 32> 0 16<16 63.5977> 32 16<16.5754 63.4246> 64 16<33.0929 80>
VStem: 0 16<-15.125 0 48.9229 62.0969> 64 16<17.7099 31.0771>
AnchorPoint: "Anchor-1" 40 0 basechar 0
AnchorPoint: "Anchor-0" 40 80 basechar 0
LayerCount: 2
Fore
SplineSet
0 0 m 2
 0 16 l 1
 16 16 l 2
 64 16 64 16 64 24 c 0
 64 32 64 32 40 32 c 0
 10 32 0 38 0 56 c 0
 0 76 12 80 80 80 c 1
 80 64 l 1
 16 64 16 64 16 56 c 0
 16 48 16 48 40 48 c 0
 70 48 80 42 80 24 c 0
 80 4 68 0 16 0 c 1
 16 -16 16 -16 32 -16 c 1
 32 -32 l 1
 8 -32 0 -24 0 0 c 2
EndSplineSet
Validated: 1
EndChar

StartChar: uni0283
Encoding: 643 643 578
AltUni2: 001db4.ffffffff.0
Width: 96
GlyphClass: 2
Flags: W
HStem: -16 16<0 26.3047> 96 16<53.6953 80>
VStem: 32 16<6.65625 89.3438>
LayerCount: 2
Fore
SplineSet
32 48 m 0
 32 96 32 112 80 112 c 1
 80 96 l 1
 48 96 48 96 48 48 c 0
 48 0 48 -16 0 -16 c 1
 0 0 l 1
 32 0 32 0 32 48 c 0
EndSplineSet
Validated: 1
EndChar

StartChar: uni0284
Encoding: 644 644 579
Width: 112
GlyphClass: 2
Flags: W
HStem: -16 16<19.1401 62.7295> 16 16<48 64 80 96> 96 16<84.3094 96>
VStem: 0 16<3.14258 32> 64 16<1.65872 16 32 78.9141>
LayerCount: 2
Fore
SplineSet
40 -16 m 0
 8 -16 0 -8 0 32 c 1
 16 32 l 1
 16 0 16 0 40 0 c 0
 64 0 64 0 64 16 c 1
 48 16 l 1
 48 32 l 1
 64 32 l 1
 64 96 64 112 96 112 c 1
 96 96 l 1
 80 96 80 96 80 32 c 1
 96 32 l 1
 96 16 l 1
 80 16 l 1
 80 -8 72 -16 40 -16 c 0
EndSplineSet
Validated: 1
EndChar

StartChar: uni0285
Encoding: 645 645 580
Width: 96
GlyphClass: 2
Flags: W
HStem: -16 16<52.25 80> 64 16<0 27.3281>
VStem: 32 16<4.67188 59.75>
LayerCount: 2
Fore
SplineSet
48 32 m 0
 48 0 48 0 80 0 c 1
 80 -16 l 1
 32 -16 32 0 32 32 c 0
 32 64 32 64 0 64 c 1
 0 80 l 1
 32 80 48 80 48 32 c 0
EndSplineSet
Validated: 1
EndChar

StartChar: uni0286
Encoding: 646 646 581
Width: 112
GlyphClass: 2
Flags: W
HStem: -16 16<16.5045 47.1912> 16 16<16.9219 48 64 80> 96 16<71.625 96>
VStem: 0 16<0.415146 15.0225> 48 16<0.875 16 32 78.8083>
LayerCount: 2
Fore
SplineSet
48 16 m 1
 16 16 16 16 16 8 c 0
 16 0 16 0 32 0 c 0
 48 0 48 0 48 16 c 1
64 32 m 1
 80 32 l 1
 80 16 l 1
 64 16 l 1
 64 -8 56 -16 32 -16 c 0
 8 -16 0 -8 0 8 c 0
 0 32 16 32 48 32 c 1
 48 104 56 112 96 112 c 1
 96 96 l 1
 64 96 64 96 64 32 c 1
EndSplineSet
Validated: 1
EndChar

StartChar: uni0287
Encoding: 647 647 582
Width: 64
GlyphClass: 2
Flags: W
HStem: 0 21G<16 32> 32 16<0 16 32 48> 96 16<0 12.7783>
VStem: 16 16<0 32 48 92.8654>
AnchorPoint: "Anchor-0" 24 0 basechar 0
LayerCount: 2
Fore
SplineSet
0 112 m 1
 32 112 32 96 32 48 c 1
 48 48 l 1
 48 32 l 1
 32 32 l 1
 32 0 l 1
 16 0 l 1
 16 32 l 1
 0 32 l 1
 0 48 l 1
 16 48 l 1
 16 96 16 96 0 96 c 1
 0 112 l 1
EndSplineSet
Validated: 1
EndChar

StartChar: uni0288
Encoding: 648 648 583
Width: 64
GlyphClass: 2
Flags: W
HStem: -16 16<36.3094 48> 64 16<0 16 32 48> 92 20G<16 32>
VStem: 16 16<17.0859 64 80 112>
LayerCount: 2
Fore
SplineSet
48 -16 m 1
 16 -16 16 0 16 64 c 1
 0 64 l 1
 0 80 l 1
 16 80 l 1
 16 112 l 1
 32 112 l 1
 32 80 l 1
 48 80 l 1
 48 64 l 1
 32 64 l 1
 32 0 32 0 48 0 c 1
 48 -16 l 1
EndSplineSet
Validated: 1
EndChar

StartChar: uni0289
Encoding: 649 649 584
Width: 128
GlyphClass: 2
Flags: W
HStem: 0 16<35.1406 80> 32 16<0 16 32 80 96 112> 60 20G<16 32 80 96>
VStem: 16 16<19.2884 32 48 80> 80 16<16 32 48 80>
LayerCount: 2
Fore
SplineSet
80 32 m 1
 32 32 l 1
 32 16 32 16 80 16 c 1
 80 32 l 1
96 32 m 1
 96 0 l 1
 80 0 l 2
 24 0 16 8 16 32 c 1
 0 32 l 1
 0 48 l 1
 16 48 l 1
 16 80 l 1
 32 80 l 1
 32 48 l 1
 80 48 l 1
 80 80 l 1
 96 80 l 1
 96 48 l 1
 112 48 l 1
 112 32 l 1
 96 32 l 1
EndSplineSet
Validated: 1
EndChar

StartChar: uni028A
Encoding: 650 650 585
AltUni2: 001db7.ffffffff.0
Width: 96
GlyphClass: 2
Flags: W
HStem: 0 16<18.2861 61.7139> 64 16<0 12 68 80>
VStem: 0 32<64 80> 0 16<18.2861 50.0406> 48 32<64 80> 64 16<18.2861 50.0406>
LayerCount: 2
Fore
SplineSet
40 0 m 0xc4
 8 0 0 8 0 40 c 0xd4
 0 52 4 56 12 64 c 1
 0 64 l 1
 0 80 l 1
 32 80 l 1
 32 64 l 1xe0
 28 60 16 48 16 40 c 0
 16 16 16 16 40 16 c 0
 64 16 64 16 64 40 c 0xd4
 64 48 52 60 48 64 c 1
 48 80 l 1
 80 80 l 1
 80 64 l 1xc8
 68 64 l 1
 76 56 80 52 80 40 c 0
 80 8 72 0 40 0 c 0xc4
EndSplineSet
Validated: 1
EndChar

StartChar: uni028B
Encoding: 651 651 586
AltUni2: 001db9.ffffffff.0
Width: 96
GlyphClass: 2
Flags: W
HStem: 0 16<21.34 61.7139> 64 16<48 62.3413>
VStem: 0 16<33.1917 80> 64 16<18.2861 62.7295>
LayerCount: 2
Fore
SplineSet
40 0 m 0
 8 0 0 8 0 80 c 1
 16 80 l 1
 16 16 16 16 40 16 c 0
 64 16 64 16 64 40 c 0
 64 64 64 64 48 64 c 1
 48 80 l 1
 72 80 80 72 80 40 c 0
 80 8 72 0 40 0 c 0
EndSplineSet
Validated: 1
EndChar

StartChar: uni028C
Encoding: 652 652 587
AltUni2: 001dba.ffffffff.0
Width: 96
GlyphClass: 2
Flags: W
HStem: 0 21G<0 16 64 80> 60 20G<23 57>
VStem: 0 16<0 34.4122> 64 16<0 34.4122>
AnchorPoint: "Anchor-1" 40 80 basechar 0
AnchorPoint: "Anchor-0" 40 0 basechar 0
LayerCount: 2
Fore
SplineSet
32 80 m 1
 48 80 l 1
 66 56 80 48 80 0 c 1
 64 0 l 1
 64 40 56 44 40 64 c 1
 24 44 16 40 16 0 c 1
 0 0 l 1
 0 48 14 56 32 80 c 1
EndSplineSet
Validated: 1
EndChar

StartChar: uni028D
Encoding: 653 653 588
Width: 96
GlyphClass: 2
Flags: W
HStem: 0 21G<0 16 64 80> 64 16<16 32 48 60.3795>
VStem: 0 16<0 64> 32 16<32 64> 64 16<0 47.1736>
CounterMasks: 1 38
AnchorPoint: "Anchor-1" 40 80 basechar 0
AnchorPoint: "Anchor-0" 40 0 basechar 0
LayerCount: 2
Fore
SplineSet
16 64 m 1
 16 0 l 1
 0 0 l 1
 0 80 l 1
 48 80 l 2
 76 80 80 70 80 0 c 1
 64 0 l 1
 64 64 64 64 48 64 c 1
 48 32 l 1
 32 32 l 1
 32 64 l 1
 16 64 l 1
EndSplineSet
Validated: 1
EndChar

StartChar: uni028E
Encoding: 654 654 589
Width: 96
GlyphClass: 2
Flags: W
HStem: 32 16<16 55.457> 64 16<33.0929 80>
VStem: 0 16<-16 32 48 60.3795> 64 16<-16 23.457>
AnchorPoint: "Anchor-1" 40 80 basechar 0
AnchorPoint: "Anchor-0" 40 -16 basechar 0
LayerCount: 2
Fore
SplineSet
16 48 m 1
 72 48 80 40 80 -16 c 1
 64 -16 l 1
 64 32 64 32 16 32 c 1
 16 -16 l 1
 0 -16 l 1
 0 48 l 2
 0 76 12 80 80 80 c 1
 80 64 l 1
 16 64 16 64 16 48 c 1
EndSplineSet
Validated: 1
EndChar

StartChar: uni028F
Encoding: 655 655 590
Width: 96
GlyphClass: 2
Flags: W
HStem: 0 21G<32 48> 60 20G<0 32.6667 47.3333 80>
VStem: 32 16<0 36>
AnchorPoint: "Anchor-0" 40 80 basechar 0
LayerCount: 2
Fore
SplineSet
0 80 m 1
 18 80 l 1
 40 50 l 1
 62 80 l 1
 80 80 l 1
 48 36 l 1
 48 0 l 1
 32 0 l 1
 32 36 l 1
 0 80 l 1
EndSplineSet
Validated: 1
EndChar

StartChar: uni0290
Encoding: 656 656 591
Width: 112
GlyphClass: 2
Flags: W
HStem: -32 16<80.875 96> 0 16<24 64> 64 16<0 56>
VStem: 64 16<-15.125 0>
AnchorPoint: "Anchor-1" 40 0 basechar 0
AnchorPoint: "Anchor-0" 40 80 basechar 0
LayerCount: 2
Fore
SplineSet
80 0 m 2
 80 -16 80 -16 96 -16 c 1
 96 -32 l 1
 72 -32 64 -24 64 0 c 1
 0 0 l 1
 0 16 l 1
 56 64 l 1
 0 64 l 1
 0 80 l 1
 80 80 l 1
 80 64 l 1
 24 16 l 1
 80 16 l 1
 80 0 l 2
EndSplineSet
Validated: 1
EndChar

StartChar: uni0291
Encoding: 657 657 592
Width: 96
GlyphClass: 2
Flags: W
HStem: 0 16<20 32 48 63.1656> 32 16<48.4248 63.7273> 64 16<0 28>
VStem: 32 16<-16 0 16 31.125> 64 16<16.4151 31.737>
CounterMasks: 1 e0
AnchorPoint: "Anchor-1" 40 0 basechar 0
AnchorPoint: "Anchor-0" 40 80 basechar 0
LayerCount: 2
Fore
SplineSet
0 0 m 1
 0 16 l 1
 28 64 l 1
 0 64 l 1
 0 80 l 1
 48 80 l 1
 48 64 l 1
 20 16 l 1
 32 16 l 1
 32 40 36 48 56 48 c 0
 76 48 80 40 80 24 c 0
 80 8 74 0 48 0 c 1
 48 -16 l 1
 32 -16 l 1
 32 0 l 1
 0 0 l 1
48 16 m 1
 64 16 64 16 64 24 c 0
 64 32 64 32 56 32 c 0
 48 32 48 32 48 16 c 1
EndSplineSet
Validated: 1
EndChar

StartChar: uni0292
Encoding: 658 658 593
AltUni2: 0004e1.ffffffff.0
Width: 96
GlyphClass: 2
Flags: W
HStem: -16 16<17.2705 62.7295> 32 16<32 62.5148> 64 16<0 64>
VStem: 0 16<1.65872 16> 64 16<1.57365 29.9247 50.0279 64>
AnchorPoint: "Anchor-0" 40 80 basechar 0
LayerCount: 2
Fore
SplineSet
32 32 m 1
 32 48 l 1
 64 48 64 48 64 64 c 1
 0 64 l 1
 0 80 l 1
 80 80 l 1
 80 64 l 2
 80 48 78 44 72 40 c 1
 78 36 80 26 80 16 c 0
 80 -8 72 -16 40 -16 c 0
 8 -16 0 -8 0 16 c 1
 16 16 l 1
 16 0 16 0 40 0 c 0
 64 0 64 0 64 16 c 0
 64 32 64 32 32 32 c 1
EndSplineSet
Validated: 1
EndChar

StartChar: uni0293
Encoding: 659 659 594
Width: 96
GlyphClass: 2
Flags: W
HStem: -16 16<16.875 32 48 63.125> 16 16<16.2727 31.5752> 32 16<32 62.5148> 64 16<0 64>
VStem: 0 16<0.415146 15.737> 32 16<0 15.125> 64 16<0.808807 29.9247 50.0279 64>
CounterMasks: 1 0e
AnchorPoint: "Anchor-0" 40 80 basechar 0
LayerCount: 2
Fore
SplineSet
48 0 m 1xde
 64 0 64 0 64 16 c 0xde
 64 32 64 32 32 32 c 1
 32 48 l 1xbe
 64 48 64 48 64 64 c 1
 0 64 l 1
 0 80 l 1
 80 80 l 1
 80 64 l 2
 80 48 78 44 72 40 c 1
 78 36 80 26 80 16 c 0
 80 -8 72 -16 48 -16 c 1
 32 -16 l 1
 8 -16 0 -8 0 8 c 0
 0 24 4 32 24 32 c 0
 44 32 48 24 48 0 c 1xde
32 0 m 1
 32 16 32 16 24 16 c 0
 16 16 16 16 16 8 c 0
 16 0 16 0 32 0 c 1
EndSplineSet
Validated: 1
EndChar

StartChar: uni0294
Encoding: 660 660 595
Width: 96
GlyphClass: 2
Flags: W
HStem: 0 21G<32 48> 32 16<48 62.3413> 80 21G<0 16> 96 16<17.2705 61.7139>
VStem: 0 16<80 94.3413> 32 16<0 32> 64 16<49.2705 93.7139>
CounterMasks: 1 0e
LayerCount: 2
Fore
SplineSet
32 0 m 1xde
 32 48 l 1
 48 48 l 2
 64 48 64 48 64 72 c 0
 64 96 64 96 40 96 c 0xde
 16 96 16 96 16 80 c 1
 0 80 l 1xee
 0 104 8 112 40 112 c 0
 72 112 80 104 80 72 c 0
 80 40 72 32 48 32 c 1
 48 0 l 1
 32 0 l 1xde
EndSplineSet
Validated: 1
EndChar

StartChar: uni0295
Encoding: 661 661 596
AltUni2: 0002e4.ffffffff.0
Width: 96
GlyphClass: 2
Flags: W
HStem: 0 21G<32 48> 32 16<17.6587 32> 80 21G<64 80> 96 16<18.2861 62.7295>
VStem: 0 16<49.2705 93.7139> 32 16<0 32> 64 16<80 94.3413>
CounterMasks: 1 0e
LayerCount: 2
Fore
SplineSet
48 0 m 1xde
 32 0 l 1
 32 32 l 1
 8 32 0 40 0 72 c 0
 0 104 8 112 40 112 c 0xde
 72 112 80 104 80 80 c 1
 64 80 l 1xee
 64 96 64 96 40 96 c 0
 16 96 16 96 16 72 c 0
 16 48 16 48 32 48 c 2
 48 48 l 1
 48 0 l 1xde
EndSplineSet
Validated: 1
EndChar

StartChar: uni0296
Encoding: 662 662 597
Width: 96
GlyphClass: 2
Flags: W
HStem: 0 16<17.2705 61.7139> 64 16<48 62.3413> 92 20G<32 48>
VStem: 0 16<17.6587 32> 32 16<80 112> 64 16<18.2861 62.7295>
CounterMasks: 1 1c
LayerCount: 2
Fore
SplineSet
32 112 m 1
 48 112 l 1
 48 80 l 1
 72 80 80 72 80 40 c 0
 80 8 72 0 40 0 c 0
 8 0 0 8 0 32 c 1
 16 32 l 1
 16 16 16 16 40 16 c 0
 64 16 64 16 64 40 c 0
 64 64 64 64 48 64 c 2
 32 64 l 1
 32 112 l 1
EndSplineSet
Validated: 1
EndChar

StartChar: uni0297
Encoding: 663 663 598
Width: 96
GlyphClass: 2
Flags: W
HStem: -16 16<19.1401 62.7295> 64 16<19.1401 62.7295>
VStem: 0 16<3.05988 60.9401> 64 16<1.65872 16 48 62.3413>
LayerCount: 2
Fore
SplineSet
40 -16 m 0
 8 -16 0 -8 0 32 c 0
 0 72 8 80 40 80 c 0
 72 80 80 72 80 48 c 1
 64 48 l 1
 64 64 64 64 40 64 c 0
 16 64 16 64 16 32 c 0
 16 0 16 0 40 0 c 0
 64 0 64 0 64 16 c 1
 80 16 l 1
 80 -8 72 -16 40 -16 c 0
EndSplineSet
Validated: 1
EndChar

StartChar: uni0298
Encoding: 664 664 599
Width: 96
GlyphClass: 2
Flags: W
HStem: 0 16<20.0116 59.9884> 48 16<32 48> 96 16<20.0116 59.9884>
VStem: 0 16<20.1304 91.8696> 32 16<48 64> 64 16<20.1304 91.8696>
CounterMasks: 1 fc
LayerCount: 2
Fore
SplineSet
32 64 m 1
 48 64 l 1
 48 48 l 1
 32 48 l 1
 32 64 l 1
40 16 m 0
 64 16 64 16 64 56 c 0
 64 96 64 96 40 96 c 0
 16 96 16 96 16 56 c 0
 16 16 16 16 40 16 c 0
40 112 m 0
 74 112 80 104 80 56 c 0
 80 8 74 0 40 0 c 0
 6 0 0 8 0 56 c 0
 0 104 6 112 40 112 c 0
EndSplineSet
Validated: 1
EndChar

StartChar: uni0299
Encoding: 665 665 600
Width: 96
GlyphClass: 2
Flags: W
HStem: 0 16<16 62.5574> 32 16<16 63.4004> 64 16<16 62.5574>
VStem: 0 16<16 32 48 64> 64 16<17.7709 30.3396 49.6604 62.2291>
CounterMasks: 1 e0
AnchorPoint: "Anchor-0" 40 80 basechar 0
LayerCount: 2
Fore
SplineSet
16 16 m 1
 62 16 64 16 64 24 c 0
 64 32 62 32 16 32 c 1
 16 16 l 1
0 0 m 1
 0 80 l 1
 16 80 l 2
 68 80 80 76 80 56 c 0
 80 48 72 40 64 40 c 1
 72 40 80 32 80 24 c 0
 80 4 68 0 16 0 c 2
 0 0 l 1
16 64 m 1
 16 48 l 1
 62 48 64 48 64 56 c 0
 64 64 62 64 16 64 c 1
EndSplineSet
Validated: 1
EndChar

StartChar: uni029A
Encoding: 666 666 601
Width: 96
GlyphClass: 2
Flags: W
HStem: 0 16<16.3721 61.7139> 32 16<16.2682 48> 64 16<16.3721 61.7139>
VStem: 0 16<16.9151 30.9385 49.0615 63.0849> 64 16<18.2861 61.7139>
CounterMasks: 1 e0
LayerCount: 2
Fore
SplineSet
80 40 m 0
 80 8 72 0 40 0 c 0
 8 0 0 8 0 24 c 0
 0 28 2 36 8 40 c 1
 2 44 0 52 0 56 c 0
 0 72 8 80 40 80 c 0
 72 80 80 72 80 40 c 0
64 40 m 0
 64 64 64 64 40 64 c 0
 16 64 16 64 16 56 c 0
 16 48 16 48 48 48 c 1
 48 32 l 1
 16 32 16 32 16 24 c 0
 16 16 16 16 40 16 c 0
 64 16 64 16 64 40 c 0
EndSplineSet
Validated: 1
EndChar

StartChar: uni029B
Encoding: 667 667 602
Width: 112
GlyphClass: 2
Flags: W
HStem: 0 16<18.2861 62.7295> 32 16<48 64> 64 16<32.8264 64> 96 16<80.875 96>
VStem: 0 16<18.2861 58.3158> 48 32<32 48> 64 16<17.6587 32 80 95.125>
LayerCount: 2
Fore
SplineSet
40 0 m 0xfc
 8 0 0 8 0 40 c 0
 0 68 8 80 64 80 c 1
 64 104 72 112 96 112 c 1
 96 96 l 1
 80 96 80 96 80 80 c 1
 80 64 l 1
 16 64 16 64 16 40 c 0
 16 16 16 16 40 16 c 0
 64 16 64 16 64 32 c 1xfa
 48 32 l 1
 48 48 l 1
 80 48 l 1
 80 32 l 2
 80 8 72 0 40 0 c 0xfc
EndSplineSet
Validated: 1
EndChar

StartChar: uni029C
Encoding: 668 668 603
Width: 96
GlyphClass: 2
Flags: W
HStem: 0 21G<0 16 64 80> 32 16<16 64> 60 20G<0 16 64 80>
VStem: 0 16<0 32 48 80> 64 16<0 32 48 80>
AnchorPoint: "Anchor-0" 40 80 basechar 0
LayerCount: 2
Fore
SplineSet
16 80 m 1
 16 48 l 1
 64 48 l 1
 64 80 l 1
 80 80 l 1
 80 0 l 1
 64 0 l 1
 64 32 l 1
 16 32 l 1
 16 0 l 1
 0 0 l 1
 0 80 l 1
 16 80 l 1
EndSplineSet
Validated: 1
EndChar

StartChar: uni029D
Encoding: 669 669 604
AltUni2: 001da8.ffffffff.0
Width: 96
GlyphClass: 2
Flags: W
HStem: -16 16<16.5045 47.1912> 16 16<16.9219 48 64 80> 60 20G<48 64> 96 16<48 64>
VStem: 0 16<0.415146 15.0225> 48 16<0.875 16 32 80 96 112>
LayerCount: 2
Fore
SplineSet
48 16 m 1
 16 16 16 16 16 8 c 0
 16 0 16 0 32 0 c 0
 48 0 48 0 48 16 c 1
48 112 m 1
 64 112 l 1
 64 96 l 1
 48 96 l 1
 48 112 l 1
64 80 m 1
 64 32 l 1
 80 32 l 1
 80 16 l 1
 64 16 l 1
 64 -8 56 -16 32 -16 c 0
 8 -16 0 -8 0 8 c 0
 0 32 16 32 48 32 c 1
 48 80 l 1
 64 80 l 1
EndSplineSet
Validated: 1
EndChar

StartChar: uni029E
Encoding: 670 670 605
Width: 80
GlyphClass: 2
Flags: W
HStem: 0 21G<48 64> 92 20G<0 40 48 64>
VStem: 48 16<0 60 84 112>
AnchorPoint: "Anchor-1" 24 112 basechar 0
AnchorPoint: "Anchor-0" 56 0 basechar 0
LayerCount: 2
Fore
SplineSet
64 0 m 1
 48 0 l 1
 48 60 l 1
 20 32 l 1
 0 32 l 1
 40 72 l 1
 0 112 l 1
 20 112 l 1
 48 84 l 1
 48 112 l 1
 64 112 l 1
 64 0 l 1
EndSplineSet
Validated: 1
EndChar

StartChar: uni029F
Encoding: 671 671 606
Width: 96
GlyphClass: 2
Flags: W
HStem: 0 16<16 80> 60 20G<0 16>
VStem: 0 16<16 80>
AnchorPoint: "Anchor-0" 40 80 basechar 0
LayerCount: 2
Fore
SplineSet
0 80 m 1
 16 80 l 1
 16 16 l 1
 80 16 l 1
 80 0 l 1
 0 0 l 1
 0 80 l 1
EndSplineSet
Validated: 1
EndChar

StartChar: uni02A0
Encoding: 672 672 607
Width: 112
GlyphClass: 2
Flags: W
HStem: 16 16<18.5524 64> 64 16<16.8088 46.4343> 96 16<81.6587 96>
VStem: 0 16<35.1199 63.1912> 64 16<-16 16 32 46.5117 66 94.4935>
AnchorPoint: "Anchor-0" 40 80 basechar 0
LayerCount: 2
Fore
SplineSet
64 32 m 1
 64 48 48 64 32 64 c 0
 16 64 16 64 16 48 c 0
 16 32 16 32 64 32 c 1
64 66 m 1
 64 104 72 112 96 112 c 1
 96 96 l 1
 80 96 80 96 80 68 c 2
 80 -16 l 1
 64 -16 l 1
 64 16 l 1
 12 16 0 22 0 48 c 0
 0 72 8 80 32 80 c 0
 44 80 56 74 64 66 c 1
EndSplineSet
Validated: 1
EndChar

StartChar: uni02A1
Encoding: 673 673 608
Width: 96
GlyphClass: 2
Flags: W
HStem: 0 21G<32 48> 16 16<0 32 48 80> 48 16<48 63.125> 80 21G<0 16> 96 16<17.2705 62.7295>
VStem: 0 16<80 94.3413> 32 16<0 16 32 48> 64 16<64.8088 94.4263>
CounterMasks: 1 07
LayerCount: 2
Fore
SplineSet
32 16 m 1x67
 0 16 l 1
 0 32 l 1
 32 32 l 1
 32 64 l 1
 48 64 l 1
 64 64 64 64 64 80 c 0x77
 64 96 64 96 40 96 c 0x2f
 16 96 16 96 16 80 c 1
 0 80 l 1x37
 0 104 8 112 40 112 c 0x2f
 72 112 80 104 80 80 c 0
 80 56 72 48 48 48 c 1
 48 32 l 1
 80 32 l 1
 80 16 l 1
 48 16 l 1x77
 48 0 l 1
 32 0 l 1xa7
 32 16 l 1x67
EndSplineSet
Validated: 1
EndChar

StartChar: uni02A2
Encoding: 674 674 609
Width: 96
GlyphClass: 2
Flags: W
HStem: 0 21G<32 48> 16 16<0 32 48 80> 48 16<16.875 32> 80 21G<64 80> 96 16<17.2705 62.7295>
VStem: 0 16<64.8088 94.4263> 32 16<0 16 32 48> 64 16<80 94.3413>
CounterMasks: 1 07
LayerCount: 2
Fore
SplineSet
48 16 m 1x77
 48 0 l 1
 32 0 l 1xa7
 32 16 l 1
 0 16 l 1
 0 32 l 1
 32 32 l 1
 32 48 l 1
 8 48 0 56 0 80 c 0x77
 0 104 8 112 40 112 c 0x2f
 72 112 80 104 80 80 c 1
 64 80 l 1x37
 64 96 64 96 40 96 c 0x2f
 16 96 16 96 16 80 c 0
 16 64 16 64 32 64 c 1
 48 64 l 1
 48 32 l 1
 80 32 l 1
 80 16 l 1
 48 16 l 1x77
EndSplineSet
Validated: 1
EndChar

StartChar: uni02A3
Encoding: 675 675 610
Width: 160
GlyphClass: 2
Flags: W
HStem: 0 16<21.251 64 100 144> 64 16<17.5737 47.0518 80 124> 92 20G<64 80>
VStem: 0 16<20.3481 62.7295> 64 16<16 43.3281 80 112>
AnchorPoint: "Anchor-1" 40 0 basechar 0
AnchorPoint: "Anchor-0" 72 112 basechar 0
LayerCount: 2
Fore
SplineSet
64 16 m 1
 64 48 52 64 32 64 c 0
 16 64 16 64 16 40 c 0
 16 16 16 16 64 16 c 1
64 64 m 1
 64 112 l 1
 80 112 l 1
 80 80 l 1
 144 80 l 1
 144 64 l 1
 100 16 l 1
 144 16 l 1
 144 0 l 1
 80 0 l 1
 64 0 l 2
 10 0 0 6 0 40 c 0
 0 72 8 80 32 80 c 0
 46 80 56 74 64 64 c 1
80 64 m 1
 80 16 l 1
 124 64 l 1
 80 64 l 1
EndSplineSet
Validated: 1
EndChar

StartChar: uni02A4
Encoding: 676 676 611
Width: 160
GlyphClass: 2
Flags: W
HStem: -16 16<96 125.887> 0 16<20.4658 64> 32 16<96 126.515> 64 16<17.5737 47.0518 80 128> 92 20G<64 80>
VStem: 0 16<20.3481 62.7295> 64 16<16 43.3281 80 112> 128 16<2.23157 29.9247 50.0279 64>
CounterMasks: 1 07
AnchorPoint: "Anchor-0" 72 112 basechar 0
AnchorPoint: "Anchor-1" 40 0 basechar 0
LayerCount: 2
Fore
SplineSet
80 0 m 1x7f
 64 0 l 2
 10.4161959012 0 0 6 0 40 c 0
 0 72 8 80 32 80 c 0
 46 80 56 74 64 64 c 1
 64 112 l 1
 80 112 l 1
 80 80 l 1
 144 80 l 1
 144 64 l 2
 144 48 142 44 136 40 c 1
 142 36 144 26 144 16 c 0x7f
 144 -8 136 -16 96 -16 c 1
 96 0 l 1xbf
 128 0 128 0 128 16 c 0
 128 32 128 32 96 32 c 1
 96 48 l 1
 128 48 128 48 128 64 c 1
 80 64 l 1
 80 0 l 1x7f
64 16 m 1
 64 48 52 64 32 64 c 0
 16 64 16 64 16 40 c 0
 16 16 16 16 64 16 c 1
EndSplineSet
Validated: 1
EndChar

StartChar: uni02A5
Encoding: 677 677 612
Width: 160
GlyphClass: 2
Flags: W
HStem: 0 16<19.0018 48 84 96 112 127.166> 32 16<112.425 127.727> 64 16<16.9151 34.0517 64 92> 92 20G<48 64>
VStem: 0 16<19.2031 63.6279> 48 16<16 44.3008 80 112> 96 16<-16 0 16 31.125> 128 16<16.4151 31.737>
AnchorPoint: "Anchor-1" 56 0 basechar 0
AnchorPoint: "Anchor-0" 56 112 basechar 0
LayerCount: 2
Fore
SplineSet
48 112 m 1
 64 112 l 1
 64 80 l 1
 112 80 l 1
 112 64 l 1
 84 16 l 1
 96 16 l 1
 96 40 100 48 120 48 c 0
 140 48 144 40 144 24 c 0
 144 8 138 0 112 0 c 1
 112 -16 l 1
 96 -16 l 1
 96 0 l 1
 64 0 l 1
 48 0 l 2
 10 0 0 6 0 40 c 0
 0 72 8 80 24 80 c 0
 34 80 40 74 48 64 c 1
 48 112 l 1
48 16 m 1
 48 48 36 64 24 64 c 0
 16 64 16 64 16 40 c 0
 16 16 16 16 48 16 c 1
112 16 m 1
 128 16 128 16 128 24 c 0
 128 32 128 32 120 32 c 0
 112 32 112 32 112 16 c 1
64 64 m 1
 64 16 l 1
 92 64 l 1
 64 64 l 1
EndSplineSet
Validated: 1
EndChar

StartChar: uni02A6
Encoding: 678 678 613
Width: 144
GlyphClass: 2
Flags: W
HStem: 0 16<35.0347 95.0404> 32 16<64.5754 111.425> 64 16<0 16 32 48 81.0929 128> 92 20G<16 32>
VStem: 16 16<19.1346 64 80 112> 48 16<48.9229 62.0969> 112 16<17.9031 31.0771>
AnchorPoint: "Anchor-1" 40 0 basechar 0
AnchorPoint: "Anchor-0" 24 112 basechar 0
LayerCount: 2
Fore
SplineSet
48 0 m 0
 16 0 16 16 16 64 c 1
 0 64 l 1
 0 80 l 1
 16 80 l 1
 16 112 l 1
 32 112 l 1
 32 80 l 1
 48 80 l 1
 48 64 l 1
 32 64 l 1
 32 16 32 16 48 16 c 0
 112 16 112 16 112 24 c 0
 112 32 112 32 88 32 c 0
 58 32 48 38 48 56 c 0
 48 76 60 80 128 80 c 1
 128 64 l 1
 64 64 64 64 64 56 c 0
 64 48 64 48 88 48 c 0
 118 48 128 42 128 24 c 0
 128 4 116 0 48 0 c 0
EndSplineSet
Validated: 1
EndChar

StartChar: uni02A7
Encoding: 679 679 614
Width: 128
GlyphClass: 2
Flags: W
HStem: -16 16<35.965 60.9653> 64 16<0 16 32 48> 96 16<85.6953 112>
VStem: 16 16<17.0859 64 80 112> 64 16<3.13458 89.3438>
AnchorPoint: "Anchor-0" 24 112 basechar 0
LayerCount: 2
Fore
SplineSet
64 48 m 0
 64 96 64 112 112 112 c 1
 112 96 l 1
 80 96 80 96 80 48 c 0
 80 0 80 -16 48 -16 c 0
 16 -16 16 0 16 64 c 1
 0 64 l 1
 0 80 l 1
 16 80 l 1
 16 112 l 1
 32 112 l 1
 32 80 l 1
 48 80 l 1
 48 64 l 1
 32 64 l 1
 32 0 32 0 48 0 c 0
 64 0 64 -1.42108547152e-14 64 48 c 0
EndSplineSet
Validated: 1
EndChar

StartChar: uni02A8
Encoding: 680 680 615
Width: 144
GlyphClass: 2
Flags: W
HStem: 0 16<35.2217 48 64 80 96 111.166> 32 16<96.4248 111.727> 64 16<0 16 32 48 72.543 112> 92 20G<16 32>
VStem: 16 16<19.1346 64 80 112> 48 16<16 55.457> 80 16<-16 0 16 31.125> 112 16<16.4151 31.737>
AnchorPoint: "Anchor-0" 24 112 basechar 0
LayerCount: 2
Fore
SplineSet
96 16 m 1
 112 16 112 16 112 24 c 0
 112 32 112 32 104 32 c 0
 96 32 96 32 96 16 c 1
104 48 m 0
 124 48 128 40 128 24 c 0
 128 8 122 0 96 0 c 1
 96 -16 l 1
 80 -16 l 1
 80 0 l 1
 48 0 l 1
 16 0 16 16 16 64 c 1
 0 64 l 1
 0 80 l 1
 16 80 l 1
 16 112 l 1
 32 112 l 1
 32 80 l 1
 48 80 l 1
 48 64 l 1
 32 64 l 1
 32 16 32 16 48 16 c 1
 48 72 56 80 112 80 c 1
 112 64 l 1
 64 64 64 64 64 16 c 1
 80 16 l 1
 80 40 84 48 104 48 c 0
EndSplineSet
Validated: 1
EndChar

StartChar: uni02A9
Encoding: 681 681 616
Width: 160
GlyphClass: 2
Flags: W
HStem: -16 16<112 125.537> 0 21G<16 32 64 80> 64 16<0 16 32 64 80 121.034> 96 16<34.0071 64>
VStem: 16 16<0 64 80 93.4855> 64 16<0 64> 128 16<1.79915 57.928>
AnchorPoint: "Anchor-0" 40 112 basechar 0
LayerCount: 2
Fore
SplineSet
32 80 m 1x7e
 80 80 l 2
 136 80 144 72 144 32 c 0
 144 -8 136 -16 112 -16 c 1
 112 0 l 1xbe
 128 0 128 0 128 32 c 0
 128 64 128 64 80 64 c 1
 80 0 l 1
 64 0 l 1
 64 64 l 1
 32 64 l 1
 32 0 l 1
 16 0 l 1
 16 64 l 1
 0 64 l 1
 0 80 l 1
 16 80 l 1
 16 106 26 112 64 112 c 1
 64 96 l 1
 32 96 32 96 32 80 c 1x7e
EndSplineSet
Validated: 1
EndChar

StartChar: uni02AA
Encoding: 682 682 617
Width: 128
GlyphClass: 2
Flags: W
HStem: 0 16<20.9797 78.991> 32 16<48.543 95.457> 64 16<65.1917 112> 92 20G<0 16>
VStem: 0 16<66.436 112> 32 16<48.9854 62.0969> 96 16<17.9031 31.0771>
AnchorPoint: "Anchor-0" 8 112 basechar 0
LayerCount: 2
Fore
SplineSet
0 112 m 1
 16 112 l 1
 16 16 16 16 32 16 c 0
 96 16 96 16 96 24 c 0
 96 32 96 32 72 32 c 0
 40 32 32 36 32 56 c 0
 32 76 40 80 112 80 c 1
 112 64 l 1
 48 64 48 64 48 56 c 0
 48 48 48 48 72 48 c 0
 104 48 112 42 112 24 c 0
 112 4 104 0 32 0 c 0
 0 0 0 8 0 112 c 1
EndSplineSet
Validated: 1
EndChar

StartChar: uni02AB
Encoding: 683 683 618
Width: 112
GlyphClass: 2
Flags: W
HStem: 0 16<21.4375 32 52 96> 64 16<32 76> 92 20G<0 16>
VStem: 0 16<66.0156 112>
AnchorPoint: "Anchor-1" 32 0 basechar 0
AnchorPoint: "Anchor-0" 8 112 basechar 0
LayerCount: 2
Fore
SplineSet
76 64 m 1
 32 64 l 1
 32 80 l 1
 96 80 l 1
 96 64 l 1
 52 16 l 1
 96 16 l 1
 96 0 l 1
 32 0 l 2
 0 0 0 16 0 112 c 1
 16 112 l 1
 16 16 16 16 32 16 c 1
 76 64 l 1
EndSplineSet
Validated: 1
EndChar

StartChar: uni02AC
Encoding: 684 684 619
Width: 96
GlyphClass: 2
Flags: W
HStem: 0 32<32 48> 0 16<16 32 48 61.5369> 64 32<32 48> 64 16<16 32 48 61.5369> 92 20G<0 16 64 80>
VStem: 0 16<16 48 80 112> 32 16<16 32 80 96> 64 16<18.1131 48 82.1131 112>
CounterMasks: 1 07
LayerCount: 2
Fore
SplineSet
16 16 m 1x47
 32 16 l 1x47
 32 32 l 1
 48 32 l 1x87
 48 16 l 1x47
 64 16 64 16 64 48 c 1
 80 48 l 1
 80 8 72 0 48 0 c 2x87
 0 0 l 1
 0 48 l 1
 16 48 l 1
 16 16 l 1x47
16 80 m 1x1f
 32 80 l 1x1f
 32 96 l 1
 48 96 l 1x27
 48 80 l 1
 64 80 64 80 64 112 c 1
 80 112 l 1x1f
 80 72 72 64 48 64 c 2x27
 0 64 l 1
 0 112 l 1
 16 112 l 1
 16 80 l 1x1f
EndSplineSet
Validated: 1
EndChar

StartChar: uni02AD
Encoding: 685 685 620
Width: 96
GlyphClass: 2
Flags: W
HStem: 0 48<0 16 64 80> 32 16<16 64> 64 48<0 16 64 80> 96 16<16 64>
VStem: 0 16<0 32 64 96> 64 16<0 32 64 96>
LayerCount: 2
Fore
SplineSet
0 112 m 1x2c
 80 112 l 1
 80 64 l 1
 64 64 l 1x2c
 64 96 l 1
 16 96 l 1x1c
 16 64 l 1
 0 64 l 1
 0 112 l 1x2c
0 48 m 1x8c
 80 48 l 1
 80 0 l 1
 64 0 l 1x8c
 64 32 l 1
 16 32 l 1x4c
 16 0 l 1
 0 0 l 1
 0 48 l 1x8c
EndSplineSet
Validated: 1
EndChar

StartChar: uni02AE
Encoding: 686 686 621
Width: 112
GlyphClass: 2
Flags: W
HStem: 0 16<33.4993 62.4878> 64 16<0 14.3413>
VStem: 16 16<17.5967 61.8777> 80 16<-32 16 41.6757 80>
AnchorPoint: "Anchor-0" 8 112 basechar 0
LayerCount: 2
Fore
SplineSet
80 16 m 1
 72 6 62 0 48 0 c 0
 24 0 16 8 16 38 c 0
 16 64 16 64 0 64 c 1
 0 80 l 1
 24 80 32 72 32 38 c 0
 32 16 32 16 48 16 c 0
 70 16 80 36 80 80 c 1
 96 80 l 1
 96 -32 l 1
 80 -32 l 1
 80 16 l 1
EndSplineSet
Validated: 1
EndChar

StartChar: uni02AF
Encoding: 687 687 622
Width: 128
GlyphClass: 2
Flags: W
HStem: -32 16<98.1735 112> 0 16<33.4993 62.4878> 64 16<0 14.3413>
VStem: 16 16<17.5967 61.8777> 80 16<-14.1758 16 41.6757 80>
AnchorPoint: "Anchor-0" 8 112 basechar 0
LayerCount: 2
Fore
SplineSet
80 16 m 1
 72 6 62 0 48 0 c 0
 24 0 16 8 16 38 c 0
 16 64 16 64 0 64 c 1
 0 80 l 1
 24 80 32 72 32 38 c 0
 32 16 32 16 48 16 c 0
 70 16 80 36 80 80 c 1
 96 80 l 1
 96 16 l 2
 96 -16 96 -16 112 -16 c 1
 112 -32 l 1
 80 -32 80 -16 80 16 c 1
EndSplineSet
Validated: 1
EndChar

StartChar: uni02B0
Encoding: 688 688 623
Width: 96
GlyphClass: 2
Flags: W
HStem: 0 21G<0 16 64 80> 64 16<30.4334 60.3958> 92 20G<0 16>
VStem: 0 16<0 52.0844 68 112> 64 16<0 46.5967>
LayerCount: 2
Fore
SplineSet
48 80 m 0
 76 80 80 76 80 0 c 1
 64 0 l 1
 64 64 64 64 48 64 c 0
 32 64 24 56 16 48 c 1
 16 0 l 1
 0 0 l 1
 0 112 l 1
 16 112 l 1
 16 68 l 1
 24 72 32 80 48 80 c 0
EndSplineSet
Validated: 1
EndChar

StartChar: uni02B1
Encoding: 689 689 624
Width: 96
GlyphClass: 2
Flags: W
HStem: 0 21G<0 16 64 80> 64 16<30.4334 60.3958> 96 16<33.1917 80>
VStem: 0 16<0 52.0844 68 89.5514> 64 16<0 46.5967>
LayerCount: 2
Fore
SplineSet
64 0 m 1
 64 64 64 64 48 64 c 0
 32 64 24 56 16 48 c 1
 16 0 l 1
 0 0 l 1
 0 64 l 2
 0 104 8 112 80 112 c 1
 80 96 l 1
 16 96 16 96 16 68 c 1
 24 72 32 80 48 80 c 0
 76 80 80 76 80 0 c 1
 64 0 l 1
EndSplineSet
Validated: 1
EndChar

StartChar: uni02B2
Encoding: 690 690 625
Width: 96
GlyphClass: 2
Flags: W
HStem: -16 16<19.1401 57.6001> 60 20G<64 80> 96 16<64 80>
VStem: 0 16<3.14258 32> 64 16<34.1261 80 96 112>
LayerCount: 2
Fore
SplineSet
64 112 m 1
 80 112 l 1
 80 96 l 1
 64 96 l 1
 64 112 l 1
40 -16 m 0
 8 -16 0 -8 0 32 c 1
 16 32 l 1
 16 0 16 0 40 0 c 0
 64 0 64 0 64 80 c 1
 80 80 l 1
 80 -12 76 -16 40 -16 c 0
EndSplineSet
Validated: 1
EndChar

StartChar: uni02B3
Encoding: 691 691 626
Width: 96
GlyphClass: 2
Flags: W
HStem: 0 21G<0 16> 64 16<30.4334 63.1912>
VStem: 0 16<0 52.0844 68 80> 64 16<48 63.125>
LayerCount: 2
Fore
SplineSet
16 48 m 1
 16 0 l 1
 0 0 l 1
 0 80 l 1
 16 80 l 1
 16 68 l 1
 24 72 32 80 48 80 c 0
 72 80 80 72 80 48 c 1
 64 48 l 1
 64 64 64 64 48 64 c 0
 32 64 24 56 16 48 c 1
EndSplineSet
Validated: 1
EndChar

StartChar: uni02B4
Encoding: 692 692 627
Width: 96
GlyphClass: 2
Flags: W
HStem: 0 16<16.8088 49.5666> 60 20G<64 80>
VStem: 0 16<16.875 32> 64 16<0 12 27.9156 80>
LayerCount: 2
Fore
SplineSet
64 32 m 1
 64 80 l 1
 80 80 l 1
 80 0 l 1
 64 0 l 1
 64 12 l 1
 56 8 48 0 32 0 c 0
 8 0 0 8 0 32 c 1
 16 32 l 1
 16 16 16 16 32 16 c 0
 48 16 56 24 64 32 c 1
EndSplineSet
Validated: 1
EndChar

StartChar: uni02B5
Encoding: 693 693 628
Width: 112
GlyphClass: 2
Flags: W
HStem: -16 16<81.1641 96> 0 16<16.8088 49.5666> 60 20G<64 80>
VStem: 0 16<16.875 32> 64 16<1.26433 12 27.9156 80>
LayerCount: 2
Fore
SplineSet
16 32 m 5x78
 16 16 16 16 32 16 c 0
 48 16 56 24 64 32 c 1
 64 80 l 1
 80 80 l 1
 80 16 l 2x78
 80 0 80 0 96 0 c 1
 96 -16 l 1xb8
 64 -16 64 -8 64 12 c 1
 56 8 48 0 32 0 c 0
 8 0 0 8 0 32 c 5
 16 32 l 5x78
EndSplineSet
Validated: 1
EndChar

StartChar: uni02B6
Encoding: 694 694 629
Width: 96
GlyphClass: 2
Flags: W
HStem: 0 16<16 63.5977> 32 16<16 55.457> 60 20G<0 16 64 80>
VStem: 0 16<16 32 48 80> 64 16<17.7099 30.53 53.9093 80>
LayerCount: 2
Fore
SplineSet
16 32 m 1
 16 16 l 1
 64 16 64 16 64 24 c 0
 64 32 64 32 16 32 c 1
16 48 m 1
 64 48 64 48 64 80 c 1
 80 80 l 1
 80 44 74 40 56 40 c 1
 80 40 80 28 80 24 c 0
 80 4 68 0 16 0 c 2
 0 0 l 1
 0 80 l 1
 16 80 l 1
 16 48 l 1
EndSplineSet
Validated: 1
EndChar

StartChar: uni02B7
Encoding: 695 695 630
Width: 96
GlyphClass: 2
Flags: W
HStem: 0 16<17.9031 31.0263 50.1733 64> 60 20G<0 16 64 80>
VStem: 0 16<33.1917 80> 32 16<17.4852 48> 64 16<16 80>
CounterMasks: 1 38
LayerCount: 2
Fore
SplineSet
64 16 m 1
 64 80 l 1
 80 80 l 1
 80 0 l 1
 64 0 l 2
 52 0 48 0 40 8 c 1
 36 2 34 0 24 0 c 0
 4 0 0 8 0 80 c 1
 16 80 l 1
 16 16 16 16 24 16 c 0
 32 16 32 16 32 48 c 1
 48 48 l 1
 48 16 48 16 64 16 c 1
EndSplineSet
Validated: 1
EndChar

StartChar: uni02B8
Encoding: 696 696 631
Width: 96
GlyphClass: 2
Flags: W
HStem: -16 16<0 46.9071> 16 16<25.5072 64> 60 20G<0 16 64 80>
VStem: 0 16<40.7432 80> 64 16<3.62054 16 32 80>
LayerCount: 2
Fore
SplineSet
64 16 m 1
 4 16 0 28 0 80 c 1
 16 80 l 1
 16 32 16 32 64 32 c 1
 64 80 l 1
 80 80 l 1
 80 16 l 2
 80 -12 68 -16 0 -16 c 1
 0 0 l 1
 64 0 64 0 64 16 c 1
EndSplineSet
Validated: 1
EndChar

StartChar: uni0374
Encoding: 884 884 632
AltUni2: 0002bc.ffffffff.0 0002b9.ffffffff.0
Width: 32
GlyphClass: 4
Flags: W
HStem: 80 32<0 16>
VStem: 0 16<80 112>
AnchorPoint: "Anchor-2" 8 112 basemark 0
AnchorPoint: "Anchor-2" 8 64 mark 0
AnchorPoint: "Anchor-0" 8 64 mark 0
LayerCount: 2
Fore
SplineSet
0 112 m 1
 16 112 l 1
 16 80 l 1
 0 80 l 1
 0 112 l 1
EndSplineSet
Validated: 1
EndChar

StartChar: uni030E
Encoding: 698 698 633
Width: 64
GlyphClass: 4
Flags: W
HStem: 80 32<0 16 32 48>
VStem: 0 16<80 112> 32 16<80 112>
AnchorPoint: "Anchor-2" 24 64 mark 0
AnchorPoint: "Anchor-2" 24 112 basemark 0
AnchorPoint: "Anchor-0" 24 64 mark 0
LayerCount: 2
Fore
SplineSet
16 112 m 1
 16 80 l 1
 0 80 l 1
 0 112 l 1
 16 112 l 1
48 112 m 1
 48 80 l 1
 32 80 l 1
 32 112 l 1
 48 112 l 1
EndSplineSet
Validated: 1
EndChar

StartChar: uni02BB
Encoding: 699 699 634
Width: 48
GlyphClass: 4
Flags: W
HStem: 80 32
VStem: 0 32
AnchorPoint: "Anchor-2" 24 112 basemark 0
AnchorPoint: "Anchor-2" 8 64 mark 0
AnchorPoint: "Anchor-0" 8 64 mark 0
LayerCount: 2
Fore
SplineSet
16 112 m 1
 32 112 l 1
 16 80 l 1
 0 80 l 1
 16 112 l 1
EndSplineSet
Validated: 1
EndChar

StartChar: uni02BD
Encoding: 701 701 635
Width: 48
GlyphClass: 4
Flags: W
HStem: 80 32
VStem: 0 32
AnchorPoint: "Anchor-2" 8 112 basemark 0
AnchorPoint: "Anchor-2" 24 64 mark 0
AnchorPoint: "Anchor-0" 24 64 mark 0
LayerCount: 2
Fore
SplineSet
16 112 m 1
 32 80 l 1
 16 80 l 1
 0 112 l 1
 16 112 l 1
EndSplineSet
Validated: 1
EndChar

StartChar: uni02BE
Encoding: 702 702 636
Width: 48
GlyphClass: 4
Flags: W
HStem: 64 16<0 15.125> 96 16<0 15.125>
VStem: 16 16<80.4151 95.5849>
AnchorPoint: "Anchor-2" 8 112 basemark 0
AnchorPoint: "Anchor-2" 8 48 mark 0
AnchorPoint: "Anchor-0" 8 48 mark 0
LayerCount: 2
Fore
SplineSet
32 88 m 0
 32 72 24 64 0 64 c 1
 0 80 l 1
 16 80 16 80 16 88 c 0
 16 96 16 96 0 96 c 1
 0 112 l 1
 24 112 32 104 32 88 c 0
EndSplineSet
Validated: 1
EndChar

StartChar: uni02BF
Encoding: 703 703 637
Width: 48
GlyphClass: 4
Flags: W
HStem: 64 16<16.875 32> 96 16<16.875 32>
VStem: 0 16<80.4151 95.5849>
AnchorPoint: "Anchor-2" 24 112 basemark 0
AnchorPoint: "Anchor-2" 24 48 mark 0
AnchorPoint: "Anchor-0" 24 48 mark 0
LayerCount: 2
Fore
SplineSet
0 88 m 0
 0 104 8 112 32 112 c 1
 32 96 l 1
 16 96 16 96 16 88 c 0
 16 80 16 80 32 80 c 1
 32 64 l 1
 8 64 0 72 0 88 c 0
EndSplineSet
Validated: 1
EndChar

StartChar: uni0302
Encoding: 708 708 638
Width: 64
GlyphClass: 4
Flags: W
HStem: 80 32
VStem: 0 48
AnchorPoint: "Anchor-2" 24 112 basemark 0
AnchorPoint: "Anchor-2" 24 64 mark 0
AnchorPoint: "Anchor-0" 24 64 mark 0
LayerCount: 2
Fore
SplineSet
48 80 m 1
 32 80 l 1
 24 96 l 1
 16 80 l 1
 0 80 l 1
 16 112 l 1
 32 112 l 1
 48 80 l 1
EndSplineSet
Validated: 1
EndChar

StartChar: uni02C5
Encoding: 709 709 639
Width: 64
GlyphClass: 4
Flags: W
HStem: 80 32
VStem: 0 48
AnchorPoint: "Anchor-2" 24 112 basemark 0
AnchorPoint: "Anchor-2" 24 64 mark 0
AnchorPoint: "Anchor-0" 24 64 mark 0
LayerCount: 2
Fore
SplineSet
0 112 m 1
 16 112 l 1
 24 96 l 1
 32 112 l 1
 48 112 l 1
 32 80 l 1
 16 80 l 1
 0 112 l 1
EndSplineSet
Validated: 1
EndChar

StartChar: circumflex
Encoding: 710 710 640
Width: 64
GlyphClass: 4
Flags: W
HStem: 80 32
VStem: 0 48
AnchorPoint: "Anchor-2" 24 112 basemark 0
AnchorPoint: "Anchor-2" 24 64 mark 0
AnchorPoint: "Anchor-0" 24 64 mark 0
LayerCount: 2
Fore
SplineSet
48 80 m 1
 32 80 l 1
 24 96 l 1
 16 80 l 1
 0 80 l 1
 16 112 l 1
 32 112 l 1
 48 80 l 1
EndSplineSet
Validated: 1
EndChar

StartChar: caron
Encoding: 711 711 641
Width: 64
GlyphClass: 4
Flags: W
HStem: 80 32
VStem: 0 48
AnchorPoint: "Anchor-2" 24 112 basemark 0
AnchorPoint: "Anchor-2" 24 64 mark 0
AnchorPoint: "Anchor-0" 24 64 mark 0
LayerCount: 2
Fore
SplineSet
0 112 m 1
 16 112 l 1
 24 96 l 1
 32 112 l 1
 48 112 l 1
 32 80 l 1
 16 80 l 1
 0 112 l 1
EndSplineSet
Validated: 1
EndChar

StartChar: uni02C8
Encoding: 712 712 642
Width: 32
GlyphClass: 4
Flags: W
HStem: 80 32<0 16>
VStem: 0 16<80 112>
AnchorPoint: "Anchor-2" 24 112 basemark 0
AnchorPoint: "Anchor-2" 24 64 mark 0
AnchorPoint: "Anchor-0" 8 64 mark 0
LayerCount: 2
Fore
SplineSet
0 112 m 1
 16 112 l 1
 16 80 l 1
 0 80 l 1
 0 112 l 1
EndSplineSet
Validated: 1
EndChar

StartChar: uni02C9
Encoding: 713 713 643
Width: 96
GlyphClass: 4
Flags: W
HStem: 96 16<0 80>
AnchorPoint: "Anchor-2" 24 112 basemark 0
AnchorPoint: "Anchor-2" 24 64 mark 0
AnchorPoint: "Anchor-0" 40 80 mark 0
LayerCount: 2
Fore
SplineSet
0 112 m 1
 80 112 l 1
 80 96 l 1
 0 96 l 1
 0 112 l 1
EndSplineSet
Validated: 1
EndChar

StartChar: uni02CA
Encoding: 714 714 644
Width: 48
GlyphClass: 4
Flags: W
HStem: 80 32
VStem: 0 32
AnchorPoint: "Anchor-2" 24 112 basemark 0
AnchorPoint: "Anchor-2" 8 64 mark 0
AnchorPoint: "Anchor-0" 8 64 mark 0
LayerCount: 2
Fore
SplineSet
32 112 m 1
 16 80 l 1
 0 80 l 1
 16 112 l 1
 32 112 l 1
EndSplineSet
Validated: 1
EndChar

StartChar: uni02CB
Encoding: 715 715 645
Width: 48
GlyphClass: 4
Flags: W
HStem: 80 32
VStem: 0 32
AnchorPoint: "Anchor-2" 8 112 basemark 0
AnchorPoint: "Anchor-2" 24 64 mark 0
AnchorPoint: "Anchor-0" 24 64 mark 0
LayerCount: 2
Fore
SplineSet
0 112 m 1
 16 112 l 1
 32 80 l 1
 16 80 l 1
 0 112 l 1
EndSplineSet
Validated: 1
EndChar

StartChar: uni02CC
Encoding: 716 716 646
Width: 32
GlyphClass: 4
Flags: W
HStem: -16 32<0 16>
VStem: 0 16<-16 16>
AnchorPoint: "Anchor-1" 8 32 mark 0
AnchorPoint: "Anchor-2" 8 -16 basemark 0
AnchorPoint: "Anchor-2" 8 32 mark 0
LayerCount: 2
Fore
SplineSet
0 16 m 1
 16 16 l 1
 16 -16 l 1
 0 -16 l 1
 0 16 l 1
EndSplineSet
Validated: 1
EndChar

StartChar: uni02CD
Encoding: 717 717 647
Width: 96
GlyphClass: 4
Flags: W
HStem: -16 16<0 80>
AnchorPoint: "Anchor-2" 40 16 mark 0
AnchorPoint: "Anchor-2" 40 -16 basemark 0
AnchorPoint: "Anchor-1" 40 16 mark 0
LayerCount: 2
Fore
SplineSet
0 0 m 1
 80 0 l 1
 80 -16 l 1
 0 -16 l 1
 0 0 l 1
EndSplineSet
Validated: 1
EndChar

StartChar: uni02CE
Encoding: 718 718 648
Width: 48
GlyphClass: 4
Flags: W
HStem: -32 32
VStem: 0 32
AnchorPoint: "Anchor-2" 8 16 mark 0
AnchorPoint: "Anchor-2" 24 -32 basemark 0
AnchorPoint: "Anchor-1" 8 16 mark 0
LayerCount: 2
Fore
SplineSet
0 0 m 1
 16 0 l 1
 32 -32 l 1
 16 -32 l 1
 0 0 l 1
EndSplineSet
Validated: 1
EndChar

StartChar: uni02CF
Encoding: 719 719 649
Width: 48
GlyphClass: 4
Flags: W
HStem: -32 32
VStem: 0 32
AnchorPoint: "Anchor-2" 24 16 mark 0
AnchorPoint: "Anchor-2" 8 -32 basemark 0
AnchorPoint: "Anchor-1" 24 16 mark 0
LayerCount: 2
Fore
SplineSet
32 0 m 1
 16 -32 l 1
 0 -32 l 1
 16 0 l 1
 32 0 l 1
EndSplineSet
Validated: 1
EndChar

StartChar: breve
Encoding: 728 728 650
Width: 80
GlyphClass: 4
Flags: W
HStem: 80 16<16.8088 47.1912> 92 20G<0 16 48 64>
VStem: 0 16<96.875 112> 48 16<96.875 112>
AnchorPoint: "Anchor-2" 32 112 basemark 0
AnchorPoint: "Anchor-2" 32 64 mark 0
AnchorPoint: "Anchor-0" 32 64 mark 0
LayerCount: 2
Fore
SplineSet
32 80 m 0xb0
 8 80 0 88 0 112 c 1
 16 112 l 1x70
 16 96 16 96 32 96 c 0xb0
 48 96 48 96 48 112 c 1
 64 112 l 1x70
 64 88 56 80 32 80 c 0xb0
EndSplineSet
Validated: 1
EndChar

StartChar: dotaccent
Encoding: 729 729 651
Width: 32
GlyphClass: 4
Flags: W
HStem: 80 16<0 16>
VStem: 0 16<80 96>
AnchorPoint: "Anchor-2" 8 96 basemark 0
AnchorPoint: "Anchor-2" 8 64 mark 0
AnchorPoint: "Anchor-0" 8 64 mark 0
LayerCount: 2
Fore
SplineSet
0 96 m 1
 16 96 l 1
 16 80 l 1
 0 80 l 1
 0 96 l 1
EndSplineSet
Validated: 1
EndChar

StartChar: ring
Encoding: 730 730 652
Width: 64
GlyphClass: 2
Flags: W
HStem: 64 16<16.263 31.737> 96 16<16.263 31.737>
VStem: 0 16<80.263 95.737> 32 16<80.263 95.737>
AnchorPoint: "Anchor-2" 24 112 basemark 0
AnchorPoint: "Anchor-2" 24 48 mark 0
LayerCount: 2
Fore
SplineSet
16 88 m 0
 16 80 16 80 24 80 c 0
 32 80 32 80 32 88 c 0
 32 96 32 96 24 96 c 0
 16 96 16 96 16 88 c 0
0 88 m 0
 0 104 8 112 24 112 c 0
 40 112 48 104 48 88 c 0
 48 72 40 64 24 64 c 0
 8 64 0 72 0 88 c 0
EndSplineSet
Validated: 1
EndChar

StartChar: tilde
Encoding: 732 732 653
Width: 80
GlyphClass: 4
Flags: W
HStem: 80 16<37.9968 47.6742> 96 16<16.3258 26.0032>
VStem: 0 16<80 95.8882> 48 16<96.1118 112>
AnchorPoint: "Anchor-2" 32 112 basemark 0
AnchorPoint: "Anchor-2" 32 64 mark 0
AnchorPoint: "Anchor-0" 32 64 mark 0
LayerCount: 2
Fore
SplineSet
20 96 m 0x70
 16 96 16 96 16 80 c 1
 0 80 l 1xb0
 0 104 4 112 20 112 c 0x70
 36 112 36 96 44 96 c 0xb0
 48 96 48 96 48 112 c 1
 64 112 l 1x70
 64 88 60 80 44 80 c 0xb0
 28 80 28 96 20 96 c 0x70
EndSplineSet
Validated: 1
EndChar

StartChar: hungarumlaut
Encoding: 733 733 654
Width: 80
GlyphClass: 4
Flags: W
HStem: 80 32
AnchorPoint: "Anchor-2" 40 112 basemark 0
AnchorPoint: "Anchor-2" 24 64 mark 0
AnchorPoint: "Anchor-0" 24 64 mark 0
LayerCount: 2
Fore
SplineSet
32 112 m 1
 16 80 l 1
 0 80 l 1
 16 112 l 1
 32 112 l 1
64 112 m 1
 48 80 l 1
 32 80 l 1
 48 112 l 1
 64 112 l 1
EndSplineSet
Validated: 1
EndChar

StartChar: uni02E0
Encoding: 736 736 655
Width: 96
GlyphClass: 2
Flags: W
HStem: -16 16<32.4151 47.5849> 60 20G<0 16 64 80>
VStem: 0 16<63.1805 80> 16 16<0.504547 27.6373> 48 16<0.504547 27.6373> 64 16<63.1805 80>
LayerCount: 2
Fore
SplineSet
52 40 m 1xe4
 64 32 64 26 64 16 c 0
 64 -8 56 -16 40 -16 c 0
 24 -16 16 -8 16 16 c 0xd8
 16 26 16 32 28 40 c 1
 8 52 0 56 0 80 c 1
 16 80 l 1
 16 64 20 60 40 48 c 1
 60 60 64 64 64 80 c 1
 80 80 l 1
 80 56 72 52 52 40 c 1xe4
32 16 m 0
 32 0 32 0 40 0 c 0
 48 0 48 0 48 16 c 0
 48 20 48 24 40 32 c 1
 32 24 32 20 32 16 c 0
EndSplineSet
Validated: 1
EndChar

StartChar: uni02E1
Encoding: 737 737 656
Width: 48
GlyphClass: 2
Flags: W
HStem: 0 16<21.4375 32> 92 20G<0 16>
VStem: 0 16<66.436 112>
AnchorPoint: "Anchor-0" 8 112 basechar 0
LayerCount: 2
Fore
SplineSet
0 112 m 1
 16 112 l 1
 16 16 16 16 32 16 c 1
 32 0 l 1
 0 0 0 8 0 112 c 1
EndSplineSet
Validated: 1
EndChar

StartChar: uni0455
Encoding: 1109 1109 657
AltUni2: 0002e2.ffffffff.0
Width: 96
GlyphClass: 2
Flags: W
HStem: 0 16<0 46.8083> 32 16<16.543 63.457> 64 16<33.1917 80>
VStem: 0 16<48.9854 62.0969> 64 16<17.9031 31.0771>
CounterMasks: 1 e0
AnchorPoint: "Anchor-0" 40 80 basechar 0
LayerCount: 2
Fore
SplineSet
0 0 m 1
 0 16 l 1
 64 16 64 16 64 24 c 0
 64 32 64 32 40 32 c 0
 8 32 0 36 0 56 c 0
 0 76 8 80 80 80 c 1
 80 64 l 1
 16 64 16 64 16 56 c 0
 16 48 16 48 40 48 c 0
 72 48 80 42 80 24 c 0
 80 4 72 0 0 0 c 1
EndSplineSet
Validated: 1
EndChar

StartChar: uni0445
Encoding: 1093 1093 658
AltUni2: 0002e3.ffffffff.0
Width: 96
GlyphClass: 2
Flags: W
HStem: 0 21G<0 34.2857 45.7143 80> 60 20G<0 34.2857 45.7143 80>
AnchorPoint: "Anchor-0" 40 80 basechar 0
LayerCount: 2
Fore
SplineSet
0 80 m 1
 20 80 l 1
 40 52 l 1
 60 80 l 1
 80 80 l 1
 50 40 l 1
 80 0 l 1
 60 0 l 1
 40 28 l 1
 20 0 l 1
 0 0 l 1
 30 40 l 1
 0 80 l 1
EndSplineSet
Validated: 1
EndChar

StartChar: uni02E4
Encoding: 740 740 659
Width: 96
GlyphClass: 2
Flags: W
HStem: 0 21G<32 48> 32 16<19.2884 32> 80 21G<64 80> 96 16<18.2861 62.7295>
VStem: 0 16<51.1401 93.7139> 32 16<0 32> 64 16<80 94.3413>
CounterMasks: 1 0e
LayerCount: 2
Fore
SplineSet
48 0 m 1xde
 32 0 l 1
 32 32 l 1
 8 32 0 40 0 72 c 0
 0 104 8 112 40 112 c 0xde
 72 112 80 104 80 80 c 1
 64 80 l 1xee
 64 96 64 96 40 96 c 0
 16 96 16 96 16 72 c 0
 16 48 16 48 48 48 c 1
 48 0 l 1xde
EndSplineSet
Validated: 1
EndChar

StartChar: uni0341
Encoding: 833 833 660
AltUni2: 000301.ffffffff.0
Width: 48
GlyphClass: 4
Flags: W
HStem: 80 32
VStem: 0 32
AnchorPoint: "Anchor-2" 24 112 basemark 0
AnchorPoint: "Anchor-2" 8 64 mark 0
AnchorPoint: "Anchor-0" 8 64 mark 0
LayerCount: 2
Fore
SplineSet
32 112 m 1
 16 80 l 1
 0 80 l 1
 16 112 l 1
 32 112 l 1
EndSplineSet
Validated: 1
EndChar

StartChar: uni0302
Encoding: 770 770 661
Width: 64
GlyphClass: 4
Flags: W
HStem: 80 32
VStem: 0 48
AnchorPoint: "Anchor-2" 24 112 basemark 0
AnchorPoint: "Anchor-2" 24 64 mark 0
AnchorPoint: "Anchor-0" 24 64 mark 0
LayerCount: 2
Fore
SplineSet
48 80 m 1
 32 80 l 1
 24 96 l 1
 16 80 l 1
 0 80 l 1
 16 112 l 1
 32 112 l 1
 48 80 l 1
EndSplineSet
Validated: 1
EndChar

StartChar: tildecomb
Encoding: 771 771 662
Width: 80
GlyphClass: 4
Flags: W
HStem: 80 16<37.9968 47.6742> 96 16<16.3258 26.0032>
VStem: 0 16<80 95.8882> 48 16<96.1118 112>
AnchorPoint: "Anchor-2" 24 112 basemark 0
AnchorPoint: "Anchor-2" 24 64 mark 0
AnchorPoint: "Anchor-0" 32 64 mark 0
LayerCount: 2
Fore
SplineSet
20 96 m 0x70
 16 96 16 96 16 80 c 1
 0 80 l 1xb0
 0 104 4 112 20 112 c 0x70
 36 112 36 96 44 96 c 0xb0
 48 96 48 96 48 112 c 1
 64 112 l 1x70
 64 88 60 80 44 80 c 0xb0
 28 80 28 96 20 96 c 0x70
EndSplineSet
Validated: 1
EndChar

StartChar: uni0304
Encoding: 772 772 663
Width: 64
GlyphClass: 4
Flags: W
HStem: 96 16<0 48>
VStem: 0 48<96 112>
AnchorPoint: "Anchor-2" 24 112 basemark 0
AnchorPoint: "Anchor-2" 24 80 mark 0
AnchorPoint: "Anchor-0" 24 80 mark 0
LayerCount: 2
Fore
SplineSet
0 112 m 1
 48 112 l 1
 48 96 l 1
 0 96 l 1
 0 112 l 1
EndSplineSet
Validated: 1
EndChar

StartChar: uni0306
Encoding: 774 774 664
Width: 80
GlyphClass: 4
Flags: W
HStem: 80 16<16.8088 47.1912> 92 20G<0 16 48 64>
VStem: 0 16<96.875 112> 48 16<96.875 112>
AnchorPoint: "Anchor-2" 32 112 basemark 0
AnchorPoint: "Anchor-2" 32 64 mark 0
AnchorPoint: "Anchor-0" 32 64 mark 0
LayerCount: 2
Fore
SplineSet
32 80 m 0xb0
 8 80 0 88 0 112 c 1
 16 112 l 1x70
 16 96 16 96 32 96 c 0xb0
 48 96 48 96 48 112 c 1
 64 112 l 1x70
 64 88 56 80 32 80 c 0xb0
EndSplineSet
Validated: 1
EndChar

